SplineFontDB: 1.0
FontName: Loma-BoldOblique
FullName: Loma Bold Oblique
FamilyName: Loma
Weight: Bold
Copyright: Copyright (c) NECTEC, 2003. All rights reserved.
Version: 0.9.2.1: Jun 7, 2005
ItalicAngle: -12
UnderlinePosition: -170
UnderlineWidth: 10
Ascent: 1638
Descent: 410
NeedsXUIDChange: 1
FSType: 0
PfmFamily: 33
TTFWeight: 700
TTFWidth: 5
LineGap: 0
VLineGap: 0
Panose: 2 11 6 4 2 2 2 2 2 4
OS2TypoAscent: 2089
OS2TypoAOffset: 1
OS2TypoDescent: -430
OS2TypoDOffset: 1
OS2TypoLinegap: 0
OS2WinAscent: 2089
OS2WinAOffset: 1
OS2WinDescent: 430
OS2WinDOffset: 1
HheadAscent: 0
HheadAOffset: 1
HheadDescent: 0
HheadDOffset: 1
OS2Vendor: 'PfEd'
ScriptLang: 3
 1 latn 1 dflt 
 1 thai 4 KUY  PAL  THA  dflt 
 1 thai 1 PAL  
ContextSub: glyph 0 2 ' RQD' 0 0 0 1
 String: 15 uni0E0D uni0E10
 BString: 0 
 FString: 0 
 1
  SeqLookup: 0 'ndsc'
EndFPST
ChainSub: coverage 0 1 'ccmp' 0 0 0 1
 2 0 0
  Coverage: 19 uni0E4B uni0E4B.low
  Coverage: 7 uni0E4D
 2
  SeqLookup: 0 'amni'
  SeqLookup: 1 'G007'
EndFPST
ChainSub: coverage 0 1 'ccmp' 0 0 0 1
 2 0 0
  Coverage: 19 uni0E4A uni0E4A.low
  Coverage: 7 uni0E4D
 2
  SeqLookup: 0 'amni'
  SeqLookup: 1 'G006'
EndFPST
ChainSub: coverage 0 1 'ccmp' 0 0 0 1
 2 0 0
  Coverage: 19 uni0E49 uni0E49.low
  Coverage: 7 uni0E4D
 2
  SeqLookup: 0 'amni'
  SeqLookup: 1 'G005'
EndFPST
ChainSub: coverage 0 1 'ccmp' 0 0 0 1
 2 0 0
  Coverage: 19 uni0E48 uni0E48.low
  Coverage: 7 uni0E4D
 2
  SeqLookup: 0 'amni'
  SeqLookup: 1 'G004'
EndFPST
ChainSub: coverage 0 1 'ccmp' 0 0 0 1
 1 0 1
  Coverage: 15 uni0E0D uni0E10
  FCoverage: 23 uni0E38 uni0E39 uni0E3A
 1
  SeqLookup: 0 'nds0'
EndFPST
ChainSub: coverage 0 1 'ccmp' 0 0 0 1
 1 2 0
  Coverage: 39 uni0E48 uni0E49 uni0E4A uni0E4B uni0E4C
  BCoverage: 23 uni0E38 uni0E39 uni0E3A

StartChar: .notdef
Encoding: 0 -1 0
Width: 1536
Flags: HW
Fore
256 0 m 1
 528 1280 l 1
 1552 1280 l 1
 1280 0 l 1
 256 0 l 1
295 32 m 1
 1255 32 l 1
 1513 1248 l 1
 553 1248 l 1
 295 32 l 1
EndSplineSet
EndChar
StartChar: uni0E4D.high
Encoding: 271 63262 2
Width: 0
VWidth: 2561
Flags: HW
TeX: 0 0 0 0
HStem: 1719 104<82.5 137.5> 1928 107<137.5 193.5>
AnchorPoint: "AboveMark" 108 1740 mark 0
Fore
172 2035 m 0
 215 2035 248 2020 273 1989 c 1
 296 1957 303 1919 294 1875 c 0
 284 1832 262 1796 225 1765 c 0
 188 1734 147 1719 104 1719 c 0
 61 1719 28 1734 3 1765 c 0
 -21 1796 -30 1832 -20 1875 c 0
 -11 1919 13 1957 51 1989 c 0
 88 2020 129 2035 172 2035 c 0
126 1823 m 0
 149 1823 168 1833 182 1853 c 0
 186 1860 190 1867 192 1875 c 0
 196 1897 190 1913 172 1923 c 0
 165 1926 158 1928 149 1928 c 0
 126 1928 108 1918 93 1898 c 1
 84 1879 l 1
 84 1875 l 2
 79 1853 85 1837 105 1828 c 0
 111 1825 118 1823 126 1823 c 0
EndSplineSet
EndChar
StartChar: exclam
Encoding: 3 33 5
Width: 569
Flags: HW
Fore
381 999 m 1
 477 1450 l 1
 716 1450 l 1
 620 999 l 1
 443 365 l 1
 291 365 l 1
 381 999 l 1
218 194 m 1
 441 194 l 1
 400 0 l 1
 177 0 l 1
 218 194 l 1
EndSplineSet
EndChar
StartChar: quotedbl
Encoding: 4 34 6
Width: 727
Flags: HW
Fore
357 947 m 1
 365 1217 l 1
 414 1450 l 1
 644 1450 l 1
 595 1217 l 1
 492 947 l 1
 357 947 l 1
638 947 m 1
 648 1217 l 1
 697 1450 l 1
 927 1450 l 1
 878 1217 l 1
 773 947 l 1
 638 947 l 1
EndSplineSet
EndChar
StartChar: numbersign
Encoding: 5 35 7
Width: 1139
Flags: HW
Fore
55 -10 m 1
 219 355 l 1
 96 355 l 1
 147 595 l 1
 309 595 l 1
 432 865 l 1
 205 865 l 1
 256 1105 l 1
 513 1105 l 1
 677 1470 l 1
 917 1470 l 1
 753 1105 l 1
 972 1105 l 1
 1136 1470 l 1
 1376 1470 l 1
 1212 1105 l 1
 1348 1105 l 1
 1297 865 l 1
 1122 864 l 1
 998 595 l 1
 1239 595 l 1
 1188 355 l 1
 917 355 l 1
 761 -10 l 1
 514 -10 l 1
 677 355 l 1
 459 355 l 1
 295 -10 l 1
 55 -10 l 1
540 595 m 1
 758 595 l 1
 882 865 l 1
 663 865 l 1
 540 595 l 1
EndSplineSet
EndChar
StartChar: dollar
Encoding: 6 36 8
Width: 1139
Flags: HW
Fore
454 -37 m 1
 407 -31 366 -21 329 -6 c 0
 190 51 130 167 152 344 c 1
 165 417 l 1
 374 417 l 1
 372 409 372 409 370 400 c 0
 360 355 358 316 364 284 c 0
 376 225 419 181 495 153 c 1
 594 621 l 1
 521 636 461 666 413 710 c 0
 326 789 296 896 325 1031 c 0
 344 1122 382 1199 438 1264 c 0
 521 1361 630 1416 766 1429 c 1
 778 1488 l 1
 980 1488 l 1
 968 1429 l 1
 1177 1405 1265 1279 1231 1050 c 1
 1028 1050 l 1
 1031 1072 1030 1094 1025 1116 c 0
 1014 1179 980 1220 927 1239 c 1
 838 820 l 1
 905 807 961 786 1006 755 c 0
 1121 679 1161 560 1126 397 c 0
 1102 282 1049 184 968 105 c 0
 879 18 775 -28 657 -35 c 1
 639 -118 l 1
 437 -118 l 1
 454 -37 l 1
726 1241 m 1
 715 1239 705 1237 695 1234 c 0
 627 1212 578 1164 551 1091 c 1
 538 1044 l 1
 535 1028 532 1013 532 999 c 0
 529 925 564 872 641 840 c 1
 726 1241 l 1
739 167 m 1
 781 186 l 1
 848 224 892 291 912 386 c 0
 918 413 920 437 919 458 c 1
 915 495 l 1
 903 546 861 580 791 599 c 1
 697 153 l 1
 739 167 l 1
EndSplineSet
EndChar
StartChar: percent
Encoding: 7 37 9
Width: 1821
Flags: HW
Fore
356 1114 m 0
 378 1219 423 1308 490 1380 c 0
 559 1454 643 1491 743 1491 c 0
 838 1491 908 1458 951 1392 c 0
 996 1323 1006 1227 980 1104 c 1
 954 986 902 890 828 817 c 1
 756 750 673 717 580 717 c 0
 489 717 423 750 381 815 c 0
 337 884 328 984 356 1114 c 0
711 1317 m 0
 674 1317 643 1301 615 1270 c 0
 585 1235 560 1177 543 1096 c 0
 526 1018 527 964 544 933 c 0
 561 902 586 886 619 886 c 0
 654 886 688 902 717 933 c 0
 747 965 771 1023 789 1107 c 0
 806 1184 805 1239 789 1270 c 0
 773 1301 746 1317 711 1317 c 0
1487 1491 m 1
 1764 1491 l 1
 686 -10 l 1
 409 -10 l 1
 1487 1491 l 1
1140 344 m 0
 1162 449 1207 538 1275 610 c 0
 1343 684 1428 721 1529 721 c 0
 1624 721 1693 688 1736 622 c 0
 1782 552 1793 456 1767 334 c 0
 1741 213 1690 117 1614 47 c 0
 1541 -20 1458 -53 1365 -53 c 0
 1272 -53 1205 -20 1165 46 c 0
 1121 117 1113 217 1140 344 c 0
1497 546 m 0
 1458 546 1425 530 1397 499 c 0
 1367 465 1344 408 1327 329 c 0
 1311 254 1312 202 1329 171 c 0
 1347 140 1372 124 1407 124 c 0
 1444 124 1478 140 1508 171 c 0
 1538 202 1562 258 1579 340 c 0
 1595 415 1594 468 1577 499 c 0
 1560 530 1533 546 1497 546 c 0
EndSplineSet
EndChar
StartChar: ampersand
Encoding: 8 38 10
Width: 1366
Flags: HW
Fore
978 140 m 1
 954 119 928 100 901 83 c 0
 798 19 689 -16 571 -22 c 1
 505 -21 l 1
 375 -12 282 37 222 127 c 1
 169 210 152 302 174 403 c 0
 216 602 354 752 588 852 c 1
 571 879 558 902 548 921 c 0
 511 996 501 1076 519 1163 c 0
 539 1256 591 1334 674 1397 c 0
 758 1460 851 1491 954 1491 c 0
 1031 1491 1096 1471 1146 1431 c 1
 1175 1403 l 1
 1229 1343 1247 1268 1227 1178 c 0
 1226 1171 1224 1163 1222 1156 c 0
 1186 1020 1076 908 895 821 c 1
 1037 522 l 1
 1079 579 1117 648 1150 727 c 1
 1359 649 l 1
 1307 540 1244 442 1171 357 c 1
 1219 270 1279 195 1352 132 c 1
 1159 -67 l 1
 1097 -19 1037 50 978 140 c 1
818 983 m 1
 855 1000 884 1018 905 1035 c 0
 944 1066 970 1112 986 1171 c 0
 987 1172 988 1174 987 1176 c 0
 991 1196 990 1215 983 1232 c 0
 969 1267 941 1285 900 1286 c 0
 875 1286 851 1278 828 1263 c 0
 795 1240 773 1212 762 1177 c 0
 760 1167 l 0
 749 1114 768 1052 818 983 c 1
673 671 m 1
 642 655 617 640 595 626 c 0
 491 559 431 488 414 411 c 0
 402 354 410 301 438 253 c 0
 451 230 470 212 497 201 c 0
 520 190 548 185 579 185 c 0
 616 185 656 192 697 207 c 0
 771 233 828 273 869 326 c 1
 673 671 l 1
EndSplineSet
EndChar
StartChar: quotesingle
Encoding: 9 39 11
Width: 391
Flags: HW
Fore
308 947 m 1
 321 1221 l 1
 373 1466 l 1
 636 1466 l 1
 584 1221 l 1
 477 947 l 1
 308 947 l 1
EndSplineSet
EndChar
StartChar: parenleft
Encoding: 10 40 12
Width: 682
Flags: HW
Fore
344 -431 m 1
 246 -260 187 -71 170 135 c 0
 158 268 166 400 194 531 c 0
 245 773 350 999 509 1209 c 0
 573 1294 654 1388 753 1491 c 1
 973 1491 l 1
 846 1332 757 1211 706 1130 c 0
 599 961 522 768 474 549 c 0
 472 539 472 539 470 530 c 0
 401 209 433 -111 564 -431 c 1
 344 -431 l 1
EndSplineSet
EndChar
StartChar: parenright
Encoding: 11 41 13
Width: 682
Flags: HW
Fore
209 -431 m 1
 -13 -431 l 1
 254 -111 422 209 491 530 c 0
 536 742 544 931 514 1097 c 0
 502 1164 463 1296 396 1491 c 1
 618 1491 l 1
 709 1321 766 1165 788 1022 c 0
 813 871 806 707 769 531 c 0
 716 283 595 36 405 -209 c 0
 343 -288 278 -362 209 -431 c 1
EndSplineSet
EndChar
StartChar: asterisk
Encoding: 12 42 14
Width: 797
Flags: HW
Fore
315 1176 m 1
 395 1357 l 1
 551 1301 l 1
 562 1296 573 1290 583 1284 c 1
 587 1327 593 1365 600 1399 c 1
 623 1491 l 1
 800 1491 l 1
 775 1349 l 1
 769 1328 762 1305 754 1282 c 1
 798 1302 865 1326 955 1353 c 0
 967 1357 967 1357 977 1360 c 1
 972 1179 l 1
 888 1153 824 1137 777 1131 c 2
 753 1128 l 1
 778 1101 815 1048 864 967 c 2
 866 962 l 1
 692 858 l 1
 666 909 639 970 613 1041 c 1
 570 982 520 924 468 869 c 2
 460 862 l 1
 332 968 l 1
 425 1059 485 1115 512 1136 c 1
 350 1167 l 2
 339 1170 327 1173 315 1176 c 1
EndSplineSet
EndChar
StartChar: plus
Encoding: 13 43 15
Width: 1196
Flags: HW
Fore
533 237 m 1
 613 611 l 1
 244 611 l 1
 292 837 l 1
 661 837 l 1
 739 1206 l 1
 969 1206 l 1
 891 837 l 1
 1260 837 l 1
 1212 611 l 1
 843 611 l 1
 763 237 l 1
 533 237 l 1
EndSplineSet
EndChar
StartChar: comma
Encoding: 14 44 16
Width: 569
Flags: HW
Fore
117 -22 m 1
 171 231 l 1
 468 231 l 1
 414 -22 l 2
 392 -127 353 -201 297 -246 c 0
 274 -265 243 -283 204 -300 c 1
 67 -207 l 1
 128 -182 176 -143 210 -88 c 0
 224 -67 233 -45 239 -22 c 1
 117 -22 l 1
EndSplineSet
EndChar
StartChar: hyphen
Encoding: 15 45 17
Width: 682
Flags: HW
Fore
147 388 m 1
 204 654 l 1
 757 654 l 1
 700 388 l 1
 147 388 l 1
EndSplineSet
EndChar
StartChar: period
Encoding: 16 46 18
Width: 569
Flags: HW
Fore
154 0 m 1
 201 220 l 1
 477 220 l 1
 430 0 l 1
 154 0 l 1
EndSplineSet
EndChar
StartChar: slash
Encoding: 17 47 19
Width: 595
Flags: HW
Fore
-112 -10 m 1
 789 1470 l 1
 1028 1470 l 1
 128 -10 l 1
 -112 -10 l 1
EndSplineSet
EndChar
StartChar: zero
Encoding: 18 48 20
Width: 1139
Flags: HW
Fore
242 736 m 0
 274 886 314 1012 363 1115 c 0
 479 1360 651 1482 878 1482 c 0
 913 1482 944 1479 974 1473 c 0
 1217 1424 1290 1178 1196 736 c 0
 1162 575 1118 442 1065 337 c 0
 950 114 782 -1 561 -10 c 0
 548 -10 536 -10 524 -9 c 0
 235 10 141 259 242 736 c 0
496 735 m 0
 428 416 468 257 615 257 c 0
 629 258 643 259 657 262 c 0
 783 291 876 449 937 735 c 0
 944 765 949 794 954 821 c 0
 996 1082 950 1213 817 1213 c 0
 771 1213 730 1199 693 1171 c 0
 611 1108 544 962 496 735 c 0
EndSplineSet
EndChar
StartChar: one
Encoding: 19 49 21
Width: 1139
Flags: HW
Fore
763 0 m 1
 525 0 l 1
 747 1045 l 1
 659 964 568 904 473 867 c 0
 448 857 424 849 402 844 c 1
 458 1104 l 1
 558 1147 635 1196 691 1253 c 0
 746 1308 795 1381 838 1472 c 1
 1076 1472 l 1
 763 0 l 1
EndSplineSet
KernsSLIFO: 21 -152 0 0
EndChar
StartChar: two
Encoding: 20 50 22
Width: 1139
Flags: HW
Fore
1078 223 m 1
 1031 0 l 1
 62 0 l 1
 95 112 159 223 256 332 c 0
 293 375 333 415 376 450 c 0
 414 482 518 559 685 682 c 0
 738 721 772 746 786 759 c 0
 896 850 967 932 999 1004 c 0
 1009 1027 1017 1050 1022 1074 c 0
 1023 1076 1023 1076 1023 1079 c 0
 1037 1146 1014 1198 956 1237 c 0
 920 1260 881 1272 839 1273 c 1
 796 1269 l 1
 723 1257 664 1225 618 1172 c 1
 593 1139 l 1
 574 1110 561 1076 552 1039 c 1
 317 1039 l 1
 346 1176 415 1285 525 1367 c 0
 628 1444 748 1482 887 1482 c 0
 1028 1482 1133 1443 1200 1365 c 0
 1264 1292 1283 1195 1257 1075 c 0
 1236 972 1169 861 1059 742 c 0
 1042 724 1042 724 1023 705 c 0
 976 658 895 592 779 509 c 0
 660 423 578 361 533 323 c 0
 492 288 457 255 429 223 c 1
 1078 223 l 1
EndSplineSet
EndChar
StartChar: three
Encoding: 21 51 23
Width: 1139
Flags: HW
Fore
177 427 m 1
 407 427 l 1
 401 356 421 299 465 256 c 0
 501 223 545 206 597 206 c 0
 687 206 761 237 821 298 c 0
 861 339 887 388 900 445 c 0
 914 513 896 569 845 613 c 0
 802 650 747 668 679 668 c 0
 646 668 613 663 580 654 c 1
 628 882 l 1
 704 883 l 1
 821 891 902 935 944 1016 c 0
 957 1041 968 1071 975 1105 c 0
 984 1150 970 1189 931 1224 c 0
 898 1253 861 1268 819 1268 c 0
 744 1268 680 1242 629 1189 c 1
 603 1158 l 1
 585 1133 570 1103 560 1070 c 1
 331 1070 l 1
 354 1177 411 1270 503 1348 c 0
 595 1427 701 1471 818 1480 c 0
 832 1481 846 1482 860 1482 c 0
 979 1482 1072 1448 1139 1381 c 0
 1209 1310 1232 1216 1208 1101 c 0
 1183 984 1142 901 1082 850 c 1
 1050 827 l 1
 1029 814 1006 803 981 794 c 1
 1091 775 1149 712 1157 606 c 1
 1156 548 l 1
 1154 518 1149 485 1141 449 c 0
 1114 321 1047 214 942 129 c 0
 840 46 723 0 590 -9 c 0
 577 -10 563 -10 550 -10 c 0
 430 -10 334 26 261 98 c 0
 187 171 157 265 169 379 c 0
 171 395 173 411 177 427 c 1
EndSplineSet
EndChar
StartChar: four
Encoding: 22 52 24
Width: 1139
Flags: HW
Fore
662 0 m 1
 732 327 l 1
 126 327 l 1
 173 552 l 1
 975 1472 l 1
 1205 1472 l 1
 1009 552 l 1
 1187 552 l 1
 1140 327 l 1
 962 327 l 1
 892 0 l 1
 662 0 l 1
779 552 m 1
 891 1077 l 1
 438 552 l 1
 779 552 l 1
EndSplineSet
EndChar
StartChar: five
Encoding: 23 53 25
Width: 1139
Flags: HW
Fore
173 415 m 1
 418 415 l 1
 403 315 433 250 510 220 c 0
 536 209 566 204 599 204 c 0
 682 204 754 234 813 294 c 0
 865 345 902 412 922 496 c 1
 932 550 l 1
 943 645 915 711 849 748 c 0
 814 767 771 777 718 777 c 1
 668 774 l 1
 609 765 552 736 501 686 c 1
 267 708 l 1
 572 1472 l 1
 1301 1472 l 1
 1252 1244 l 1
 737 1244 l 1
 604 940 l 1
 661 973 707 994 744 1001 c 0
 763 1005 783 1007 805 1007 c 0
 947 1005 1050 957 1115 863 c 0
 1179 772 1196 655 1166 512 c 0
 1135 365 1067 243 961 147 c 0
 851 47 722 -5 573 -10 c 0
 564 -10 564 -10 554 -10 c 0
 390 -10 277 44 215 152 c 0
 175 222 162 310 173 415 c 1
EndSplineSet
EndChar
StartChar: six
Encoding: 24 54 26
Width: 1139
Flags: HW
Fore
1253 1103 m 1
 1042 1104 l 1
 1036 1175 1003 1221 944 1244 c 0
 921 1253 896 1257 867 1257 c 0
 694 1257 574 1133 504 885 c 0
 502 876 500 867 497 858 c 1
 579 937 679 977 797 977 c 0
 799 977 799 977 802 977 c 0
 924 976 1018 932 1085 846 c 1
 1111 806 l 1
 1151 735 1168 652 1160 559 c 0
 1157 532 1154 506 1148 479 c 0
 1118 342 1053 228 955 137 c 0
 853 43 735 -6 600 -10 c 0
 584 -10 l 0
 355 -10 226 103 199 329 c 0
 186 432 195 556 226 701 c 0
 313 1108 474 1356 710 1446 c 0
 774 1470 843 1482 918 1482 c 0
 1032 1482 1121 1449 1186 1383 c 0
 1199 1370 1211 1355 1221 1339 c 0
 1262 1273 1273 1194 1253 1103 c 1
455 489 m 0
 433 388 445 310 489 257 c 0
 521 219 567 200 628 200 c 0
 715 200 787 237 845 310 c 0
 882 357 907 414 921 481 c 0
 943 584 930 661 880 712 c 1
 856 733 l 1
 825 754 787 764 741 764 c 0
 654 764 583 727 527 653 c 0
 492 608 469 553 455 489 c 0
EndSplineSet
EndChar
StartChar: seven
Encoding: 25 55 27
Width: 1139
Flags: HW
Fore
359 1233 m 1
 410 1472 l 1
 1359 1472 l 1
 1308 1233 l 1
 1235 1170 1147 1083 1046 973 c 0
 939 858 864 764 822 692 c 0
 686 460 594 272 546 129 c 0
 532 84 520 41 511 0 c 1
 253 0 l 1
 306 243 426 502 611 776 c 0
 684 884 808 1025 982 1198 c 0
 1001 1217 1001 1217 1017 1233 c 1
 359 1233 l 1
EndSplineSet
EndChar
StartChar: eight
Encoding: 26 56 28
Width: 1139
Flags: HW
Fore
533 805 m 1
 398 859 346 959 377 1104 c 0
 402 1223 465 1318 565 1388 c 0
 655 1451 759 1482 878 1482 c 0
 1005 1482 1100 1446 1165 1374 c 1
 1189 1342 l 1
 1232 1275 1243 1194 1223 1099 c 0
 1199 988 1132 902 1020 841 c 0
 997 828 971 816 944 805 c 1
 1049 768 1115 710 1139 629 c 0
 1154 577 1155 512 1141 434 c 1
 1128 380 l 1
 1095 279 1029 191 928 116 c 0
 828 43 721 1 607 -8 c 0
 592 -9 578 -10 564 -10 c 0
 421 -10 314 31 242 113 c 0
 170 194 148 301 175 434 c 1
 176 439 l 2
 207 584 283 689 405 756 c 0
 444 777 487 794 533 805 c 1
604 1107 m 0
 589 1030 607 975 659 943 c 0
 687 926 721 918 762 918 c 0
 833 918 891 942 937 990 c 0
 967 1021 986 1057 995 1099 c 0
 1009 1166 994 1217 949 1251 c 0
 921 1273 883 1284 838 1284 c 0
 773 1284 716 1262 669 1218 c 0
 635 1187 613 1150 604 1107 c 0
415 437 m 0
 398 358 414 295 462 250 c 0
 499 216 548 199 610 199 c 0
 698 199 770 228 828 287 c 0
 866 326 892 375 904 433 c 0
 923 523 900 586 834 623 c 0
 799 642 755 651 701 651 c 0
 602 651 527 620 472 557 c 1
 450 525 l 1
 433 499 422 470 415 437 c 0
EndSplineSet
EndChar
StartChar: nine
Encoding: 27 57 29
Width: 1139
Flags: HW
Fore
217 369 m 1
 432 369 l 1
 424 294 458 247 532 228 c 0
 556 222 583 219 613 219 c 0
 718 219 797 257 850 332 c 0
 886 383 919 466 948 579 c 1
 902 541 853 517 801 506 c 0
 765 499 721 495 669 495 c 0
 548 495 454 536 388 619 c 0
 321 701 296 806 314 934 c 0
 316 949 318 965 322 981 c 0
 351 1120 415 1236 512 1329 c 0
 614 1424 730 1475 862 1481 c 0
 870 1482 878 1482 887 1482 c 0
 1110 1482 1237 1375 1270 1160 c 0
 1286 1054 1277 924 1245 771 c 0
 1158 364 997 116 761 26 c 0
 696 2 628 -10 553 -10 c 0
 439 -10 350 23 285 89 c 0
 216 160 194 254 217 369 c 1
1009 982 m 0
 1030 1081 1019 1155 974 1205 c 1
 952 1226 l 1
 923 1247 888 1257 846 1257 c 0
 763 1257 695 1222 640 1152 c 0
 605 1107 581 1054 568 991 c 0
 547 892 560 818 608 769 c 0
 639 738 682 722 737 722 c 0
 820 722 889 757 941 828 c 0
 973 871 996 922 1009 982 c 0
EndSplineSet
EndChar
StartChar: colon
Encoding: 28 58 30
Width: 569
Flags: HW
Fore
337 832 m 1
 386 1062 l 1
 641 1062 l 1
 592 832 l 1
 337 832 l 1
160 0 m 1
 209 230 l 1
 464 230 l 1
 415 0 l 1
 160 0 l 1
EndSplineSet
EndChar
StartChar: semicolon
Encoding: 29 59 31
Width: 569
Flags: HW
Fore
334 832 m 1
 383 1062 l 1
 638 1062 l 1
 589 832 l 1
 334 832 l 1
157 0 m 1
 201 205 l 1
 456 205 l 1
 412 0 l 2
 377 -163 309 -262 207 -297 c 1
 100 -213 l 1
 162 -188 208 -140 236 -71 c 0
 244 -50 252 -27 259 0 c 1
 157 0 l 1
EndSplineSet
EndChar
StartChar: less
Encoding: 30 60 32
Width: 1196
Flags: HW
Fore
248 641 m 1
 284 809 l 1
 1342 1219 l 1
 1293 990 l 1
 577 724 l 1
 1180 455 l 1
 1131 226 l 1
 248 641 l 1
EndSplineSet
EndChar
StartChar: equal
Encoding: 31 61 33
Width: 1196
Flags: HW
Fore
1255 812 m 1
 287 812 l 1
 333 1030 l 1
 1301 1030 l 1
 1255 812 l 1
1171 417 m 1
 203 417 l 1
 249 635 l 1
 1217 635 l 1
 1171 417 l 1
EndSplineSet
EndChar
StartChar: greater
Encoding: 32 62 34
Width: 1196
Flags: HW
Fore
1219 641 m 1
 160 226 l 1
 209 455 l 1
 904 724 l 1
 322 990 l 1
 371 1219 l 1
 1255 809 l 1
 1219 641 l 1
EndSplineSet
EndChar
StartChar: question
Encoding: 33 63 35
Width: 1139
Flags: HW
Fore
509 361 m 1
 537 478 576 569 625 635 c 0
 646 664 672 692 702 719 c 0
 709 726 745 754 810 803 c 0
 910 881 978 950 1012 1009 c 0
 1028 1036 1039 1062 1044 1088 c 0
 1062 1170 1036 1229 967 1264 c 0
 931 1282 889 1291 842 1291 c 0
 776 1291 714 1264 655 1211 c 1
 623 1177 l 1
 593 1138 l 1
 574 1110 558 1079 546 1046 c 1
 312 1046 l 1
 349 1183 420 1293 525 1377 c 0
 630 1462 750 1504 885 1504 c 0
 1016 1504 1117 1469 1189 1398 c 0
 1268 1321 1293 1216 1266 1084 c 0
 1263 1066 1258 1048 1251 1030 c 0
 1222 953 1159 870 1061 782 c 1
 939 676 l 1
 849 597 790 506 760 401 c 0
 756 388 753 374 751 361 c 1
 509 361 l 1
421 0 m 1
 471 235 l 1
 745 235 l 1
 695 0 l 1
 421 0 l 1
EndSplineSet
EndChar
StartChar: at
Encoding: 34 64 36
Width: 2079
Flags: HW
Fore
1187 121 m 1
 1098 38 986 -3 853 -3 c 0
 745 -3 668 44 623 138 c 0
 581 225 573 332 600 461 c 0
 629 599 694 726 794 842 c 0
 886 948 987 1020 1097 1058 c 0
 1145 1075 1194 1084 1241 1084 c 0
 1337 1084 1407 1057 1449 1002 c 0
 1462 986 1471 968 1476 949 c 0
 1476 945 1477 941 1477 938 c 1
 1541 1079 l 1
 1755 1079 l 1
 1461 379 l 1
 1413 285 l 1
 1410 268 l 1
 1411 258 1415 248 1423 238 c 0
 1434 225 1450 219 1469 219 c 0
 1552 219 1634 268 1718 367 c 0
 1789 450 1840 543 1875 647 c 1
 1891 711 l 1
 1892 714 1892 714 1892 716 c 0
 1925 885 1889 1020 1784 1122 c 0
 1689 1217 1551 1269 1372 1279 c 0
 1369 1279 1369 1279 1365 1279 c 2
 1287 1279 l 1
 1098 1268 929 1194 779 1056 c 0
 776 1053 773 1051 771 1048 c 0
 590 877 479 690 435 485 c 0
 394 292 414 132 495 7 c 0
 514 -21 534 -46 558 -68 c 0
 646 -151 761 -202 903 -221 c 0
 953 -228 1009 -231 1071 -231 c 0
 1219 -231 1340 -213 1433 -177 c 0
 1515 -146 1613 -87 1727 0 c 0
 1739 9 1739 9 1752 19 c 1
 2009 19 l 1
 1917 -113 1788 -219 1622 -300 c 0
 1443 -387 1245 -431 1031 -431 c 0
 739 -431 519 -361 371 -222 c 0
 237 -97 175 68 184 273 c 0
 187 334 196 399 211 469 c 0
 261 705 365 911 522 1087 c 0
 696 1280 903 1405 1142 1462 c 0
 1231 1483 1324 1493 1419 1493 c 0
 1625 1493 1793 1441 1922 1336 c 0
 1986 1283 2035 1220 2071 1147 c 0
 2130 1022 2142 877 2108 713 c 0
 2078 574 2012 438 1909 305 c 0
 1811 178 1701 86 1582 27 c 0
 1501 -13 1423 -33 1347 -33 c 0
 1301 -33 1265 -26 1239 -12 c 0
 1214 2 1198 22 1190 48 c 0
 1184 67 1183 91 1187 121 c 1
957 238 m 0
 1038 238 1114 279 1187 361 c 0
 1244 426 1284 500 1310 583 c 1
 1325 643 l 1
 1343 738 1325 801 1271 831 c 0
 1250 843 1224 849 1193 849 c 0
 1106 849 1026 801 952 704 c 0
 929 675 908 642 890 607 c 0
 868 564 852 520 842 474 c 0
 823 385 831 319 866 276 c 0
 887 251 918 238 957 238 c 0
EndSplineSet
EndChar
StartChar: A
Encoding: 35 65 37
Width: 1366
Flags: HW
Fore
867 1450 m 1
 1076 1450 l 1
 1368 0 l 1
 1079 0 l 1
 970 433 l 1
 554 433 l 1
 273 0 l 1
 -2 0 l 1
 867 1450 l 1
976 673 m 1
 895 1109 l 1
 648 673 l 1
 976 673 l 1
EndSplineSet
KernsSLIFO: 93 -37 0 0 91 -37 0 0 90 -37 0 0 61 -152 0 0 59 -76 0 0 58 -152 0 0 56 -152 0 0
EndChar
StartChar: B
Encoding: 36 66 38
Width: 1366
Flags: HW
Fore
164 0 m 1
 299 633 l 1
 472 1450 l 1
 1008 1450 l 2
 1120 1450 1207 1435 1269 1406 c 0
 1340 1371 1387 1317 1410 1243 c 0
 1426 1192 1428 1138 1415 1079 c 0
 1385 934 1312 834 1197 778 c 0
 1185 772 l 1
 1332 726 1386 609 1346 421 c 0
 1326 326 1280 240 1207 164 c 0
 1146 101 1068 56 972 29 c 0
 965 28 959 26 951 24 c 0
 883 8 802 0 709 0 c 2
 164 0 l 1
563 842 m 1
 840 842 l 2
 931 842 1000 852 1047 871 c 0
 1057 875 1064 879 1070 884 c 0
 1107 913 1134 943 1151 972 c 0
 1162 995 1172 1023 1179 1056 c 0
 1194 1128 1180 1177 1138 1204 c 0
 1109 1222 1030 1231 899 1231 c 2
 646 1231 l 1
 563 842 l 1
431 220 m 1
 756 220 l 2
 869 220 948 232 994 257 c 0
 1010 267 l 0
 1045 292 1070 321 1085 355 c 0
 1093 374 1100 396 1105 421 c 0
 1120 490 1114 538 1089 567 c 1
 1076 579 l 1
 1041 608 986 624 909 627 c 1
 817 629 l 1
 518 629 l 1
 431 220 l 1
EndSplineSet
EndChar
StartChar: C
Encoding: 37 67 39
Width: 1479
Flags: HW
Fore
1270 480 m 1
 1500 480 l 1
 1401 269 1264 126 1087 49 c 0
 996 10 896 -10 789 -10 c 0
 559 -10 399 67 309 221 c 0
 233 352 216 522 257 731 c 0
 260 745 l 0
 303 944 392 1110 528 1241 c 0
 659 1368 813 1444 991 1469 c 0
 1029 1474 1069 1477 1108 1477 c 0
 1308 1477 1448 1409 1530 1274 c 1
 1555 1226 l 1
 1578 1174 1591 1115 1596 1050 c 1
 1366 1050 l 1
 1357 1134 1312 1193 1229 1228 c 0
 1182 1247 1124 1257 1057 1257 c 0
 910 1257 785 1205 682 1101 c 0
 590 1009 529 891 499 746 c 0
 467 598 481 474 538 373 c 0
 593 280 674 226 784 213 c 0
 800 211 816 210 833 210 c 0
 932 210 1026 239 1114 296 c 0
 1194 348 1246 409 1270 480 c 1
EndSplineSet
EndChar
StartChar: D
Encoding: 38 68 40
Width: 1479
Flags: HW
Fore
168 0 m 1
 476 1450 l 1
 981 1450 l 2
 1307 1450 1496 1340 1548 1120 c 0
 1573 1017 1569 888 1536 733 c 0
 1467 410 1318 193 1088 82 c 0
 976 27 845 0 697 0 c 2
 168 0 l 1
435 213 m 1
 720 213 l 2
 866 213 992 262 1097 359 c 0
 1198 452 1265 578 1299 736 c 1
 1312 816 l 1
 1334 999 1283 1124 1159 1189 c 0
 1099 1221 1023 1237 933 1237 c 2
 653 1237 l 1
 435 213 l 1
EndSplineSet
EndChar
StartChar: E
Encoding: 39 69 41
Width: 1366
Flags: HW
Fore
162 0 m 1
 470 1450 l 1
 1530 1450 l 1
 1481 1218 l 1
 660 1218 l 1
 582 851 l 1
 1202 851 l 1
 1153 621 l 1
 533 621 l 1
 450 229 l 1
 1271 229 l 1
 1222 0 l 1
 162 0 l 1
EndSplineSet
EndChar
StartChar: F
Encoding: 40 70 42
Width: 1251
Flags: HW
Fore
167 0 m 1
 475 1450 l 1
 1466 1450 l 1
 1417 1218 l 1
 665 1218 l 1
 587 851 l 1
 1189 851 l 1
 1140 621 l 1
 538 621 l 1
 406 0 l 1
 167 0 l 1
EndSplineSet
KernsSLIFO: 37 -113 0 0 18 -227 0 0 16 -227 0 0
EndChar
StartChar: G
Encoding: 41 71 43
Width: 1479
Flags: HW
Fore
1549 684 m 1
 1548 671 1545 657 1542 644 c 1
 1520 546 l 1
 1420 175 1177 -10 789 -10 c 0
 777 -10 765 -10 754 -9 c 0
 538 -1 388 80 304 233 c 0
 231 367 216 538 260 745 c 0
 269 785 279 824 292 862 c 0
 354 1045 455 1191 597 1302 c 0
 747 1419 917 1477 1108 1477 c 0
 1224 1477 1321 1454 1398 1407 c 0
 1518 1335 1583 1216 1596 1050 c 1
 1338 1050 l 1
 1334 1074 1326 1097 1314 1118 c 1
 1293 1146 l 1
 1239 1206 1160 1236 1053 1236 c 0
 1039 1236 1025 1235 1010 1234 c 0
 895 1224 791 1177 697 1093 c 0
 594 1001 527 885 498 746 c 0
 495 733 492 720 490 707 c 0
 468 568 486 452 544 360 c 0
 605 260 702 210 833 210 c 0
 922 210 1003 226 1076 259 c 0
 1164 299 1222 354 1250 425 c 1
 1263 464 l 1
 1004 464 l 1
 1050 684 l 1
 1549 684 l 1
EndSplineSet
EndChar
StartChar: H
Encoding: 42 72 44
Width: 1479
Flags: HW
Fore
164 0 m 1
 472 1450 l 1
 712 1450 l 1
 587 863 l 1
 1257 863 l 1
 1382 1450 l 1
 1622 1450 l 1
 1314 0 l 1
 1074 0 l 1
 1206 619 l 1
 536 619 l 1
 404 0 l 1
 164 0 l 1
EndSplineSet
EndChar
StartChar: I
Encoding: 43 73 45
Width: 650
Flags: HW
Fore
670 210 m 1
 625 0 l 1
 25 0 l 1
 70 210 l 1
 250 210 l 1
 471 1250 l 1
 291 1250 l 1
 333 1450 l 1
 933 1450 l 1
 891 1250 l 1
 711 1250 l 1
 490 210 l 1
 670 210 l 1
EndSplineSet
EndChar
StartChar: J
Encoding: 44 74 46
Width: 1024
Flags: HW
Fore
1173 1450 m 1
 962 456 l 2
 935 329 896 233 845 168 c 0
 834 155 822 142 810 129 c 0
 720 36 603 -10 461 -10 c 0
 333 -10 243 24 193 92 c 0
 150 149 134 237 146 358 c 0
 149 390 154 422 161 455 c 1
 398 455 l 1
 380 352 393 280 437 241 c 0
 458 224 483 215 514 215 c 0
 575 215 628 245 674 306 c 0
 708 351 731 406 745 471 c 2
 908 1235 l 1
 671 1235 l 1
 716 1450 l 1
 1173 1450 l 1
EndSplineSet
EndChar
StartChar: K
Encoding: 45 75 47
Width: 1366
Flags: HW
Fore
150 0 m 1
 458 1450 l 1
 684 1450 l 1
 551 825 l 1
 1330 1450 l 1
 1624 1450 l 1
 830 806 l 1
 1346 0 l 1
 1053 -1 l 1
 609 610 l 1
 482 499 l 1
 376 0 l 1
 150 0 l 1
EndSplineSet
EndChar
StartChar: L
Encoding: 46 76 48
Width: 1139
Flags: HW
Fore
150 0 m 1
 458 1450 l 1
 688 1450 l 1
 427 219 l 1
 1107 219 l 1
 1060 0 l 1
 150 0 l 1
EndSplineSet
KernsSLIFO: 93 -76 0 0 61 -152 0 0 59 -152 0 0 58 -152 0 0 56 -152 0 0
EndChar
StartChar: M
Encoding: 47 77 49
Width: 1706
Flags: HW
Fore
152 0 m 1
 460 1450 l 1
 668 1450 l 1
 894 202 l 1
 1648 1450 l 1
 1858 1450 l 1
 1550 0 l 1
 1330 0 l 1
 1492 762 l 1
 1026 0 l 1
 676 0 l 1
 534 762 l 1
 372 0 l 1
 152 0 l 1
EndSplineSet
EndChar
StartChar: N
Encoding: 48 78 50
Width: 1479
Flags: HW
Fore
156 0 m 1
 464 1450 l 1
 703 1450 l 1
 1171 471 l 1
 1379 1450 l 1
 1619 1450 l 1
 1311 0 l 1
 1071 0 l 1
 602 975 l 1
 395 0 l 1
 156 0 l 1
EndSplineSet
EndChar
StartChar: O
Encoding: 49 79 51
Width: 1593
Flags: HW
Fore
256 714 m 0
 307 955 411 1144 567 1280 c 0
 718 1410 900 1476 1115 1478 c 1
 1320 1478 1471 1415 1568 1290 c 0
 1665 1166 1696 999 1662 788 c 0
 1659 769 1655 750 1651 731 c 0
 1607 522 1516 351 1378 218 c 0
 1236 82 1064 7 864 -8 c 0
 842 -9 820 -10 798 -10 c 0
 608 -10 463 46 362 159 c 0
 262 269 221 416 239 601 c 0
 242 638 247 675 256 714 c 0
501 712 m 0
 465 541 486 412 564 325 c 0
 626 255 721 220 847 220 c 0
 1022 220 1160 284 1265 413 c 0
 1333 497 1380 603 1407 731 c 0
 1446 914 1425 1051 1346 1142 c 0
 1283 1211 1191 1246 1068 1246 c 0
 843 1246 679 1145 578 942 c 0
 545 875 520 799 501 712 c 0
EndSplineSet
EndChar
StartChar: P
Encoding: 50 80 52
Width: 1366
Flags: HW
Fore
158 0 m 1
 466 1450 l 1
 1019 1450 l 2
 1264 1450 1418 1395 1477 1285 c 0
 1489 1263 1497 1239 1503 1212 c 0
 1513 1160 1510 1098 1495 1026 c 0
 1447 799 1308 658 1078 604 c 0
 1010 588 934 580 851 580 c 2
 525 580 l 1
 402 0 l 1
 158 0 l 1
570 792 m 1
 845 792 l 2
 1011 792 1124 828 1184 900 c 0
 1211 931 1229 971 1240 1020 c 0
 1259 1109 1234 1170 1164 1202 c 0
 1115 1225 1039 1236 936 1236 c 2
 665 1236 l 1
 570 792 l 1
EndSplineSet
KernsSLIFO: 37 -152 0 0 18 -264 0 0 16 -264 0 0
EndChar
StartChar: Q
Encoding: 51 81 53
Width: 1659
Flags: HW
Fore
1250 392 m 1
 1322 461 1376 564 1411 699 c 0
 1414 717 1414 717 1418 736 c 0
 1457 919 1435 1055 1354 1146 c 0
 1290 1216 1195 1251 1068 1251 c 0
 837 1251 670 1150 568 947 c 0
 534 881 508 804 489 717 c 0
 452 541 477 409 565 322 c 0
 581 306 599 292 620 280 c 1
 655 355 715 413 798 454 c 0
 839 475 881 489 925 496 c 0
 951 501 976 503 1001 503 c 0
 1091 503 1164 477 1220 425 c 1
 1232 415 1242 404 1250 392 c 1
1360 204 m 1
 1373 185 1396 176 1429 175 c 0
 1443 175 1458 177 1473 181 c 0
 1514 190 1550 206 1581 228 c 1
 1678 90 l 1
 1589 21 1495 -14 1396 -14 c 0
 1317 -14 1253 7 1206 50 c 0
 1193 62 1183 75 1175 88 c 1
 1085 36 994 5 903 -5 c 0
 871 -8 837 -10 798 -10 c 0
 608 -10 463 46 362 159 c 0
 262 269 221 416 239 601 c 0
 242 638 247 675 256 714 c 0
 307 955 411 1144 567 1280 c 0
 718 1410 900 1476 1115 1478 c 1
 1317 1478 1467 1416 1565 1292 c 0
 1660 1171 1693 1009 1664 806 c 0
 1661 781 1657 756 1651 731 c 0
 1597 474 1500 299 1360 204 c 1
1098 226 m 1
 1068 273 1028 297 977 298 c 0
 965 298 952 297 938 294 c 0
 866 281 811 241 775 174 c 1
 797 167 825 164 856 164 c 0
 929 164 997 178 1061 206 c 0
 1075 213 1088 219 1098 226 c 1
EndSplineSet
EndChar
StartChar: R
Encoding: 52 82 54
Width: 1400
Flags: HW
Fore
786 580 m 1
 507 580 l 1
 384 0 l 1
 158 0 l 1
 466 1450 l 1
 1019 1450 l 2
 1278 1450 1434 1387 1486 1262 c 0
 1512 1201 1515 1122 1495 1026 c 0
 1464 879 1391 766 1276 687 c 0
 1210 642 1135 611 1051 596 c 1
 1387 0 l 1
 1072 0 l 1
 786 580 l 1
551 786 m 1
 832 786 l 2
 1006 786 1123 828 1183 912 c 0
 1204 942 1219 978 1228 1020 c 0
 1249 1118 1216 1182 1130 1213 c 0
 1081 1230 1013 1239 924 1239 c 2
 647 1239 l 1
 551 786 l 1
EndSplineSet
KernsSLIFO: 61 -37 0 0 59 -37 0 0 58 -37 0 0 56 -37 0 0
EndChar
StartChar: S
Encoding: 53 83 55
Width: 1366
Flags: HW
Fore
199 502 m 1
 432 502 l 1
 422 385 461 302 551 255 c 0
 603 228 670 214 753 214 c 0
 868 214 961 241 1031 295 c 0
 1074 328 1100 367 1110 413 c 0
 1120 468 1108 510 1072 539 c 0
 1058 550 1040 561 1018 572 c 0
 972 593 880 625 740 667 c 0
 605 708 517 742 474 771 c 0
 394 825 359 906 367 1013 c 0
 368 1030 371 1048 375 1067 c 0
 402 1195 475 1296 595 1370 c 0
 704 1437 832 1471 977 1471 c 0
 1225 1471 1372 1379 1418 1195 c 0
 1431 1143 1435 1084 1432 1019 c 1
 1198 1019 l 1
 1200 1163 1125 1240 970 1249 c 0
 960 1250 949 1250 938 1250 c 0
 827 1250 741 1226 680 1179 c 1
 655 1157 l 1
 634 1134 621 1109 615 1080 c 0
 606 1033 616 997 645 971 c 0
 656 962 671 953 689 943 c 0
 726 923 845 881 1046 816 c 0
 1114 795 1156 780 1173 773 c 0
 1275 730 1336 669 1354 590 c 0
 1365 545 1363 491 1350 429 c 0
 1323 302 1251 198 1134 116 c 0
 1025 40 898 -2 753 -9 c 0
 740 -10 728 -10 715 -10 c 0
 472 -10 312 56 235 188 c 0
 187 270 175 375 199 502 c 1
EndSplineSet
EndChar
StartChar: T
Encoding: 54 84 56
Width: 1251
Flags: HW
Fore
508 0 m 1
 770 1231 l 1
 310 1231 l 1
 356 1450 l 1
 1518 1450 l 1
 1472 1231 l 1
 1010 1231 l 1
 748 0 l 1
 508 0 l 1
EndSplineSet
KernsSLIFO: 93 -113 0 0 91 -113 0 0 89 -76 0 0 87 -227 0 0 86 -76 0 0 83 -227 0 0 77 -76 0 0 73 -227 0 0 71 -227 0 0 69 -227 0 0 51 -37 0 0 37 -152 0 0 31 -227 0 0 30 -227 0 0 18 -227 0 0 17 -113 0 0 16 -227 0 0
EndChar
StartChar: U
Encoding: 55 85 57
Width: 1479
Flags: HW
Fore
1373 1450 m 1
 1622 1450 l 1
 1435 567 l 2
 1353 182 1121 -10 739 -10 c 0
 435 -10 276 107 260 341 c 0
 256 406 263 482 282 567 c 2
 469 1450 l 1
 719 1450 l 1
 532 568 l 2
 505 442 528 351 599 294 c 0
 645 258 708 240 788 240 c 0
 922 240 1026 286 1101 379 c 0
 1141 430 1170 493 1186 568 c 2
 1373 1450 l 1
EndSplineSet
EndChar
StartChar: V
Encoding: 56 86 58
Width: 1366
Flags: HW
Fore
577 0 m 1
 317 1450 l 1
 652 1450 l 1
 777 471 l 1
 1331 1450 l 1
 1658 1450 l 1
 776 0 l 1
 577 0 l 1
EndSplineSet
KernsSLIFO: 93 -76 0 0 89 -76 0 0 86 -76 0 0 83 -113 0 0 77 -37 0 0 73 -113 0 0 69 -152 0 0 37 -152 0 0 31 -76 0 0 30 -76 0 0 18 -188 0 0 17 -113 0 0 16 -188 0 0
EndChar
StartChar: W
Encoding: 57 87 59
Width: 1933
Flags: HW
Fore
366 0 m 1
 333 1450 l 1
 587 1450 l 1
 623 519 l 1
 1130 1450 l 1
 1400 1450 l 1
 1519 519 l 1
 1934 1450 l 1
 2205 1450 l 1
 1566 0 l 1
 1299 0 l 1
 1173 999 l 1
 618 0 l 1
 366 0 l 1
EndSplineSet
KernsSLIFO: 93 -18 0 0 89 -37 0 0 86 -37 0 0 83 -37 0 0 73 -37 0 0 69 -76 0 0 37 -76 0 0 31 -37 0 0 30 -37 0 0 18 -113 0 0 17 -37 0 0 16 -113 0 0
EndChar
StartChar: X
Encoding: 58 88 60
Width: 1366
Flags: HW
Fore
9 0 m 1
 655 756 l 1
 384 1450 l 1
 694 1450 l 1
 888 972 l 1
 1311 1450 l 1
 1621 1450 l 1
 1029 756 l 1
 1353 0 l 1
 1043 0 l 1
 797 544 l 1
 319 0 l 1
 9 0 l 1
EndSplineSet
EndChar
StartChar: Y
Encoding: 59 89 61
Width: 1366
Flags: HW
Fore
526 0 m 1
 658 621 l 1
 314 1451 l 1
 634 1451 l 1
 857 887 l 1
 1338 1451 l 1
 1658 1451 l 1
 942 621 l 1
 810 0 l 1
 526 0 l 1
EndSplineSet
KernsSLIFO: 90 -113 0 0 89 -113 0 0 85 -188 0 0 84 -152 0 0 83 -188 0 0 77 -76 0 0 73 -188 0 0 69 -152 0 0 37 -152 0 0 31 -133 0 0 30 -113 0 0 18 -264 0 0 17 -188 0 0 16 -264 0 0
EndChar
StartChar: Z
Encoding: 60 90 62
Width: 1251
Flags: HW
Fore
41 0 m 1
 91 237 l 1
 1144 1220 l 1
 304 1220 l 1
 353 1450 l 1
 1521 1450 l 1
 1472 1220 l 1
 424 230 l 1
 1249 230 l 1
 1200 0 l 1
 41 0 l 1
EndSplineSet
EndChar
StartChar: bracketleft
Encoding: 61 91 63
Width: 569
Flags: HW
Fore
52 -407 m 1
 451 1466 l 1
 848 1466 l 1
 808 1278 l 1
 631 1278 l 1
 312 -219 l 1
 489 -219 l 1
 449 -407 l 1
 52 -407 l 1
EndSplineSet
EndChar
StartChar: backslash
Encoding: 62 92 64
Width: 569
Flags: HW
Fore
381 -25 m 1
 278 1491 l 1
 502 1491 l 1
 604 -25 l 1
 381 -25 l 1
EndSplineSet
EndChar
StartChar: bracketright
Encoding: 63 93 65
Width: 569
Flags: HW
Fore
349 -407 m 1
 -48 -407 l 1
 -8 -219 l 1
 171 -219 l 1
 489 1277 l 1
 310 1277 l 1
 351 1466 l 1
 748 1466 l 1
 349 -407 l 1
EndSplineSet
EndChar
StartChar: asciicircum
Encoding: 64 94 66
Width: 961
Flags: HW
Fore
435 690 m 1
 201 690 l 1
 704 1491 l 1
 889 1491 l 1
 1054 690 l 1
 823 690 l 1
 736 1209 l 1
 435 690 l 1
EndSplineSet
EndChar
StartChar: underscore
Encoding: 65 95 67
Width: 1139
Flags: HW
Fore
-122 -427 m 1
 -81 -237 l 1
 1112 -237 l 1
 1071 -427 l 1
 -122 -427 l 1
EndSplineSet
EndChar
StartChar: grave
Encoding: 66 96 68
Width: 682
Flags: HW
Fore
749 1194 m 1
 545 1194 l 1
 373 1474 l 1
 673 1474 l 1
 749 1194 l 1
EndSplineSet
EndChar
StartChar: a
Encoding: 67 97 69
Width: 1139
Flags: HW
Fore
812 96 m 1
 726 35 638 -3 548 -16 c 0
 514 -21 475 -24 432 -24 c 0
 315 -24 232 5 181 62 c 0
 130 119 115 191 134 280 c 0
 164 424 263 522 430 573 c 0
 484 590 549 603 622 612 c 0
 733 625 832 645 919 674 c 1
 927 721 l 1
 935 804 897 854 811 870 c 0
 791 874 769 876 744 876 c 0
 667 876 601 855 545 814 c 0
 514 791 490 762 473 729 c 1
 266 759 l 1
 337 926 459 1028 630 1067 c 0
 686 1080 747 1086 815 1086 c 0
 999 1086 1110 1039 1149 946 c 1
 1161 908 l 1
 1164 891 1166 872 1167 851 c 0
 1166 820 1158 765 1141 685 c 2
 1090 445 l 2
 1054 278 1036 172 1033 128 c 0
 1032 83 1038 41 1052 0 c 1
 814 0 l 1
 810 31 808 63 812 96 c 1
879 487 m 1
 817 466 729 448 613 433 c 0
 517 420 452 401 418 376 c 0
 389 355 371 326 363 289 c 0
 351 231 374 191 430 170 c 0
 455 160 485 155 520 155 c 0
 616 155 697 183 764 240 c 0
 782 255 798 272 812 291 c 0
 836 323 854 371 867 434 c 2
 879 487 l 1
EndSplineSet
EndChar
StartChar: b
Encoding: 68 98 70
Width: 1139
Flags: HW
Fore
345 0 m 1
 134 0 l 1
 446 1466 l 1
 670 1466 l 1
 568 990 l 1
 660 1054 749 1086 836 1086 c 0
 978 1086 1079 1033 1139 926 c 1
 1159 881 l 1
 1195 789 1199 678 1171 547 c 0
 1134 374 1062 237 956 136 c 0
 853 39 733 -10 594 -10 c 0
 504 -10 433 15 381 66 c 0
 375 71 368 77 363 84 c 1
 345 0 l 1
460 538 m 0
 433 411 443 317 490 257 c 0
 520 218 565 198 624 198 c 0
 727 199 812 244 877 333 c 0
 916 387 944 453 961 531 c 0
 989 665 975 761 917 819 c 0
 897 840 870 854 838 863 c 1
 794 869 l 2
 788 870 781 870 774 870 c 0
 698 870 629 833 566 759 c 0
 514 696 478 623 460 538 c 0
EndSplineSet
EndChar
StartChar: c
Encoding: 69 99 71
Width: 1024
Flags: HW
Fore
874 403 m 1
 1091 403 l 1
 1052 244 970 130 845 59 c 0
 796 31 741 12 681 1 c 0
 643 -6 603 -10 561 -10 c 0
 418 -10 313 38 245 135 c 0
 176 232 159 360 190 518 c 0
 191 523 191 523 192 527 c 0
 233 719 315 864 437 963 c 0
 537 1045 657 1086 795 1086 c 0
 932 1086 1032 1046 1098 967 c 0
 1156 896 1174 805 1151 696 c 1
 936 696 l 1
 948 757 929 806 880 842 c 0
 846 867 805 879 758 879 c 0
 653 879 568 831 501 734 c 0
 470 689 446 637 430 577 c 0
 425 562 421 547 418 532 c 0
 394 421 403 336 443 275 c 0
 477 225 531 200 604 200 c 0
 703 200 776 232 826 297 c 0
 848 326 864 362 874 403 c 1
EndSplineSet
EndChar
StartChar: d
Encoding: 70 100 72
Width: 1139
Flags: HW
Fore
796 84 m 1
 787 77 778 71 770 66 c 0
 696 15 615 -10 525 -10 c 0
 386 -10 286 39 225 136 c 0
 161 237 147 374 184 547 c 0
 217 702 282 828 378 926 c 0
 484 1033 607 1086 749 1086 c 0
 836 1086 911 1054 975 990 c 1
 1077 1466 l 1
 1301 1466 l 1
 989 0 l 1
 778 0 l 1
 796 84 l 1
891 538 m 0
 909 623 905 696 879 759 c 0
 848 833 795 870 719 870 c 0
 658 870 602 853 554 819 c 0
 472 761 416 665 388 531 c 0
 371 453 371 387 388 333 c 0
 415 244 480 199 583 198 c 0
 642 198 695 218 743 257 c 0
 814 317 864 411 891 538 c 0
EndSplineSet
EndChar
StartChar: e
Encoding: 71 101 73
Width: 1139
Flags: HW
Fore
878 333 m 1
 1119 333 l 1
 1067 206 981 113 861 53 c 0
 777 11 683 -10 579 -10 c 0
 386 -10 261 55 202 185 c 0
 162 272 157 385 186 522 c 0
 225 707 305 850 424 951 c 0
 530 1041 657 1086 802 1086 c 0
 962 1086 1074 1029 1137 916 c 0
 1191 819 1201 693 1170 539 c 0
 1166 521 1161 503 1156 485 c 1
 415 485 l 1
 401 386 421 311 473 260 c 0
 510 223 561 204 625 204 c 0
 720 204 793 232 845 287 c 0
 859 302 869 317 878 333 c 1
461 675 m 1
 959 675 l 1
 972 797 916 863 792 874 c 0
 781 875 770 875 758 875 c 0
 672 875 599 849 540 797 c 1
 512 769 l 1
 491 744 475 717 465 688 c 0
 463 684 463 680 461 675 c 1
EndSplineSet
EndChar
StartChar: f
Encoding: 72 102 74
Width: 569
Flags: HW
Fore
153 0 m 1
 314 757 l 1
 180 757 l 1
 222 955 l 1
 356 955 l 1
 403 1175 l 2
 433 1318 502 1418 610 1474 c 0
 663 1501 721 1515 784 1515 c 0
 851 1515 909 1506 956 1488 c 1
 911 1277 l 1
 864 1294 832 1303 813 1304 c 0
 801 1304 l 0
 778 1305 758 1302 739 1295 c 0
 679 1273 638 1215 618 1121 c 2
 583 955 l 1
 739 955 l 1
 697 757 l 1
 541 757 l 1
 380 0 l 1
 153 0 l 1
EndSplineSet
KernsSLIFO: 74 -37 0 0
EndChar
StartChar: g
Encoding: 73 103 75
Width: 1139
Flags: HW
Fore
86 -74 m 1
 299 -74 l 1
 292 -109 302 -141 331 -169 c 0
 363 -200 412 -216 475 -216 c 0
 632 -216 732 -139 776 16 c 1
 790 75 l 1
 716 25 628 0 525 0 c 0
 380 0 276 53 216 159 c 0
 159 256 147 382 180 537 c 0
 215 702 284 834 389 934 c 0
 493 1035 616 1086 757 1086 c 0
 898 1086 993 1049 1043 974 c 1
 1062 1062 l 1
 1228 1062 l 1
 1033 144 l 2
 979 -107 892 -274 770 -356 c 0
 700 -404 606 -430 486 -434 c 2
 430 -435 l 2
 257 -435 146 -388 98 -293 c 0
 70 -240 65 -173 82 -92 c 0
 86 -74 l 1
431 546 m 0
 389 347 443 247 593 247 c 0
 738 247 830 345 872 541 c 0
 903 688 881 781 806 820 c 0
 782 833 751 839 716 839 c 0
 621 839 546 794 490 703 c 0
 464 659 444 607 431 546 c 0
EndSplineSet
EndChar
StartChar: h
Encoding: 74 104 76
Width: 1139
Flags: HW
Fore
135 0 m 1
 447 1466 l 1
 677 1466 l 1
 579 1008 l 1
 643 1066 728 1095 833 1095 c 0
 982 1095 1081 1044 1128 941 c 0
 1161 870 1166 781 1143 673 c 2
 1000 0 l 1
 770 0 l 1
 903 624 l 2
 925 727 909 791 856 817 c 0
 835 827 807 832 773 832 c 0
 696 832 628 794 568 719 c 0
 523 663 493 601 478 532 c 2
 365 0 l 1
 135 0 l 1
EndSplineSet
EndChar
StartChar: i
Encoding: 75 105 77
Width: 455
Flags: HW
Fore
370 1218 m 1
 423 1466 l 1
 654 1466 l 1
 601 1218 l 1
 370 1218 l 1
106 0 m 1
 332 1062 l 1
 572 1062 l 1
 346 0 l 1
 106 0 l 1
EndSplineSet
EndChar
StartChar: j
Encoding: 76 106 78
Width: 455
Flags: HW
Fore
371 1220 m 1
 424 1466 l 1
 652 1466 l 1
 599 1220 l 1
 371 1220 l 1
-182 -412 m 1
 -138 -205 l 1
 -104 -210 -83 -213 -74 -213 c 0
 -15 -213 29 -193 57 -152 c 0
 78 -120 96 -76 108 -20 c 2
 338 1062 l 1
 566 1062 l 1
 328 -58 l 2
 288 -246 212 -362 100 -406 c 0
 62 -421 20 -428 -26 -428 c 0
 -83 -428 -135 -423 -182 -412 c 1
EndSplineSet
EndChar
StartChar: k
Encoding: 77 107 79
Width: 1024
Flags: HW
Fore
136 0 m 1
 448 1466 l 1
 668 1466 l 1
 501 684 l 1
 922 1062 l 1
 1201 1062 l 1
 727 636 l 1
 1016 0 l 1
 740 0 l 1
 546 484 l 1
 439 390 l 1
 356 0 l 1
 136 0 l 1
EndSplineSet
EndChar
StartChar: l
Encoding: 78 108 80
Width: 455
Flags: HW
Fore
104 0 m 1
 416 1466 l 1
 652 1466 l 1
 340 0 l 1
 104 0 l 1
EndSplineSet
EndChar
StartChar: m
Encoding: 79 109 81
Width: 1706
Flags: HW
Fore
135 0 m 1
 361 1062 l 1
 569 1062 l 1
 551 978 l 1
 634 1050 734 1086 849 1086 c 0
 962 1086 1043 1057 1091 999 c 0
 1105 984 1115 967 1120 948 c 1
 1167 1005 1238 1045 1336 1069 c 0
 1384 1080 1430 1086 1477 1086 c 0
 1671 1086 1759 992 1741 803 c 0
 1739 780 1734 755 1729 729 c 2
 1574 0 l 1
 1356 0 l 1
 1498 669 l 1
 1517 782 1479 839 1385 842 c 1
 1257 842 1173 784 1131 668 c 0
 1126 652 1121 635 1117 617 c 2
 986 0 l 1
 742 0 l 1
 889 690 l 2
 904 761 883 807 824 830 c 0
 805 838 782 842 757 842 c 0
 636 842 551 773 503 636 c 0
 494 610 486 582 479 551 c 2
 362 0 l 1
 135 0 l 1
EndSplineSet
EndChar
StartChar: n
Encoding: 80 110 82
Width: 1139
Flags: HW
Fore
135 0 m 1
 361 1064 l 1
 594 1064 l 1
 583 1012 l 1
 632 1050 681 1074 731 1085 c 0
 761 1092 796 1095 833 1095 c 0
 982 1095 1081 1044 1128 941 c 0
 1161 870 1166 781 1143 673 c 2
 1000 0 l 1
 776 0 l 1
 909 624 l 2
 933 737 907 803 832 822 c 0
 815 826 795 828 772 828 c 0
 677 828 602 786 547 701 c 0
 517 655 495 599 481 532 c 2
 368 0 l 1
 135 0 l 1
EndSplineSet
EndChar
StartChar: o
Encoding: 81 111 83
Width: 1139
Flags: HW
Fore
181 531 m 0
 221 722 304 866 429 964 c 0
 532 1045 655 1086 797 1086 c 0
 959 1086 1073 1032 1140 924 c 0
 1199 828 1212 702 1179 546 c 0
 1128 306 1020 143 855 56 c 0
 770 11 673 -11 564 -11 c 0
 375 -11 252 55 195 187 c 0
 156 276 151 391 181 531 c 0
421 529 m 0
 388 372 415 271 501 228 c 0
 531 213 567 206 610 206 c 0
 733 206 825 266 885 387 c 0
 906 430 923 479 935 534 c 0
 962 665 947 759 889 815 c 0
 855 848 809 864 750 864 c 0
 639 864 552 812 488 708 c 0
 459 658 436 598 421 529 c 0
EndSplineSet
EndChar
StartChar: p
Encoding: 82 112 84
Width: 1139
Flags: HW
Fore
542 992 m 1
 556 1002 556 1002 568 1010 c 0
 642 1061 723 1086 813 1086 c 0
 952 1086 1052 1037 1113 940 c 0
 1176 839 1190 702 1153 529 c 0
 1120 374 1056 248 960 150 c 0
 855 43 732 -10 589 -10 c 0
 502 -10 427 22 362 86 c 1
 261 -390 l 1
 37 -390 l 1
 349 1076 l 1
 560 1076 l 1
 542 992 l 1
446 538 m 0
 428 453 433 380 458 317 c 0
 490 243 543 206 620 206 c 0
 681 206 735 223 784 257 c 0
 866 315 921 411 950 545 c 0
 966 623 966 689 950 743 c 0
 923 832 858 877 756 878 c 0
 697 878 643 858 596 819 c 0
 523 759 473 665 446 538 c 0
EndSplineSet
EndChar
StartChar: q
Encoding: 83 113 85
Width: 1139
Flags: HW
Fore
1026 1076 m 1
 1237 1076 l 1
 925 -390 l 1
 701 -390 l 1
 802 86 l 1
 711 22 622 -10 535 -10 c 0
 393 -10 292 43 232 150 c 0
 178 248 166 374 199 529 c 0
 236 702 308 839 415 940 c 0
 517 1037 638 1086 777 1086 c 0
 867 1086 938 1061 990 1010 c 0
 996 1005 1002 999 1008 992 c 1
 1026 1076 l 1
910 538 m 0
 937 665 927 759 881 819 c 0
 850 858 806 878 747 878 c 0
 643 877 559 832 494 743 c 0
 454 689 426 623 410 545 c 0
 381 411 396 315 454 257 c 0
 487 223 536 206 597 206 c 0
 673 206 742 243 804 317 c 0
 857 380 892 453 910 538 c 0
EndSplineSet
EndChar
StartChar: r
Encoding: 84 114 86
Width: 682
Flags: HW
Fore
133 0 m 1
 359 1062 l 1
 588 1062 l 1
 563 947 l 1
 593 986 619 1014 643 1030 c 0
 656 1038 670 1045 687 1052 c 0
 694 1055 704 1058 714 1062 c 0
 742 1072 774 1077 809 1077 c 0
 843 1077 870 1070 892 1055 c 2
 929 1028 l 1
 816 789 l 1
 773 823 l 1
 754 828 l 1
 741 828 l 2
 718 828 696 824 675 817 c 0
 658 811 642 803 625 792 c 0
 578 761 540 699 512 604 c 0
 503 572 493 532 483 484 c 2
 380 0 l 1
 133 0 l 1
EndSplineSet
KernsSLIFO: 18 -113 0 0 16 -113 0 0
EndChar
StartChar: s
Encoding: 85 115 87
Width: 1024
Flags: HW
Fore
139 358 m 1
 367 358 l 1
 362 297 386 253 437 226 c 0
 468 209 509 201 559 201 c 0
 630 201 690 219 736 255 c 0
 759 272 771 289 775 306 c 0
 786 356 776 390 746 408 c 0
 728 419 685 430 617 443 c 0
 482 469 389 498 339 531 c 0
 269 576 240 646 252 739 c 0
 254 752 256 766 259 780 c 0
 282 884 343 964 444 1020 c 0
 522 1064 613 1086 715 1086 c 0
 886 1086 996 1042 1048 953 c 0
 1076 902 1082 839 1067 764 c 1
 841 764 l 1
 848 817 821 852 761 867 c 0
 740 872 714 875 683 875 c 0
 608 874 552 856 518 821 c 0
 506 810 498 797 495 783 c 0
 495 781 495 781 494 778 c 0
 488 733 501 702 536 685 c 0
 551 677 592 667 656 654 c 0
 786 629 876 601 926 570 c 0
 973 541 1003 503 1016 456 c 0
 1025 419 1025 376 1014 325 c 0
 991 218 928 133 825 71 c 0
 734 16 632 -11 515 -11 c 0
 338 -11 222 41 167 145 c 0
 136 202 127 273 139 358 c 1
EndSplineSet
EndChar
StartChar: t
Encoding: 86 116 88
Width: 569
Flags: HW
Fore
570 199 m 1
 554 2 l 1
 504 -8 455 -13 408 -13 c 0
 328 -13 274 -4 245 15 c 0
 242 17 l 0
 206 44 186 82 184 130 c 0
 181 170 189 230 206 311 c 2
 330 892 l 1
 208 892 l 1
 249 1088 l 1
 371 1088 l 1
 445 1433 l 1
 677 1433 l 1
 603 1088 l 1
 728 1088 l 1
 687 892 l 1
 562 892 l 1
 436 301 l 2
 429 269 428 248 432 238 c 0
 433 234 433 234 433 232 c 0
 437 222 445 213 457 205 c 0
 470 196 489 191 515 191 c 0
 516 191 534 194 570 199 c 1
EndSplineSet
EndChar
StartChar: u
Encoding: 87 117 89
Width: 1139
Flags: HW
Fore
1200 1085 m 1
 969 0 l 1
 789 0 l 1
 803 64 l 1
 763 29 699 6 611 -5 c 0
 585 -8 560 -10 535 -10 c 0
 366 -10 256 42 206 147 c 0
 174 215 168 303 192 412 c 2
 335 1085 l 1
 561 1085 l 1
 428 461 l 2
 407 361 429 294 497 261 c 0
 522 249 552 243 586 243 c 0
 693 243 766 292 804 390 c 0
 811 410 818 432 823 456 c 2
 957 1085 l 1
 1200 1085 l 1
EndSplineSet
EndChar
StartChar: v
Encoding: 88 118 90
Width: 1024
Flags: HW
Fore
429 0 m 1
 252 1062 l 1
 494 1062 l 1
 597 360 l 1
 986 1062 l 1
 1226 1062 l 1
 599 0 l 1
 429 0 l 1
EndSplineSet
KernsSLIFO: 18 -152 0 0 16 -152 0 0
EndChar
StartChar: w
Encoding: 89 119 91
Width: 1479
Flags: HW
Fore
296 0 m 1
 232 1062 l 1
 482 1062 l 1
 501 364 l 1
 874 1062 l 1
 1058 1062 l 1
 1146 364 l 1
 1462 1062 l 1
 1689 1062 l 1
 1200 0 l 1
 956 0 l 1
 947 149 922 374 884 676 c 1
 544 0 l 1
 296 0 l 1
EndSplineSet
KernsSLIFO: 18 -113 0 0 16 -113 0 0
EndChar
StartChar: x
Encoding: 90 120 92
Width: 1024
Flags: HW
Fore
15 0 m 1
 463 552 l 1
 270 1062 l 1
 550 1062 l 1
 657 744 l 1
 926 1062 l 1
 1207 1062 l 1
 776 562 l 1
 1009 0 l 1
 732 0 l 1
 583 369 l 1
 284 0 l 1
 15 0 l 1
EndSplineSet
EndChar
StartChar: y
Encoding: 91 121 93
Width: 1024
Flags: HW
Fore
40 -409 m 1
 66 -192 l 1
 98 -201 133 -206 170 -206 c 0
 217 -206 257 -198 288 -183 c 1
 354 -153 394 -110 406 -54 c 0
 409 -37 410 -19 408 0 c 1
 259 1062 l 1
 518 1062 l 1
 604 372 l 1
 970 1062 l 1
 1232 1062 l 1
 624 0 l 1
 585 -123 526 -223 447 -302 c 0
 418 -331 383 -355 340 -375 c 0
 282 -402 218 -418 149 -422 c 1
 96 -421 l 1
 75 -419 56 -415 40 -409 c 1
EndSplineSet
KernsSLIFO: 18 -152 0 0 16 -152 0 0
EndChar
StartChar: z
Encoding: 92 122 94
Width: 1024
Flags: HW
Fore
40 0 m 1
 85 212 l 1
 848 864 l 1
 244 864 l 1
 286 1062 l 1
 1174 1062 l 1
 1132 864 l 1
 389 212 l 1
 1025 212 l 1
 980 0 l 1
 40 0 l 1
EndSplineSet
EndChar
StartChar: braceleft
Encoding: 93 123 95
Width: 684
Flags: HW
Fore
187 612 m 1
 238 613 283 627 322 654 c 0
 360 681 388 717 409 762 c 0
 430 808 452 891 479 1011 c 0
 505 1131 528 1217 547 1270 c 0
 567 1323 594 1366 630 1401 c 0
 665 1436 705 1460 752 1475 c 0
 783 1486 832 1491 897 1491 c 2
 953 1491 l 1
 908 1280 l 1
 877 1280 l 2
 849 1280 831 1278 821 1273 c 1
 795 1254 l 2
 770 1236 750 1205 736 1160 c 0
 727 1135 712 1075 693 981 c 0
 662 838 624 736 581 676 c 0
 550 634 550 634 541 623 c 0
 508 582 468 551 421 530 c 1
 443 519 461 505 473 486 c 1
 502 426 l 1
 524 382 533 323 528 249 c 0
 524 204 509 119 483 -6 c 0
 464 -93 463 -149 481 -174 c 1
 494 -196 l 1
 502 -207 524 -212 560 -212 c 2
 591 -212 l 1
 544 -431 l 1
 488 -431 l 2
 431 -431 390 -427 367 -420 c 0
 332 -409 304 -394 285 -374 c 0
 265 -353 251 -326 241 -292 c 0
 232 -259 231 -214 237 -157 c 0
 241 -121 255 -48 277 63 c 0
 300 174 312 253 310 298 c 0
 309 344 296 380 270 407 c 0
 242 434 203 448 152 449 c 1
 187 612 l 1
EndSplineSet
EndChar
StartChar: bar
Encoding: 94 124 96
Width: 532
Flags: HW
Fore
48 -431 m 1
 457 1491 l 1
 707 1491 l 1
 298 -431 l 1
 48 -431 l 1
EndSplineSet
EndChar
StartChar: braceright
Encoding: 95 125 97
Width: 684
Flags: HW
Fore
756 612 m 1
 721 449 l 1
 670 448 625 434 587 407 c 0
 549 380 520 344 499 298 c 0
 479 253 457 174 432 63 c 0
 408 -48 390 -122 380 -157 c 0
 362 -214 341 -259 318 -292 c 0
 294 -326 268 -353 240 -374 c 0
 211 -394 177 -409 138 -420 c 0
 111 -427 68 -431 11 -431 c 2
 -45 -431 l 1
 2 -212 l 1
 33 -212 l 2
 69 -212 93 -207 105 -196 c 1
 128 -174 l 1
 156 -149 179 -93 198 -6 c 0
 224 119 245 204 261 249 c 0
 288 323 321 382 363 426 c 1
 416 486 l 1
 436 505 460 519 488 530 c 1
 449 551 422 581 407 622 c 0
 404 629 399 647 390 676 c 0
 371 736 377 838 408 981 c 0
 427 1075 438 1135 441 1160 c 0
 445 1205 439 1236 422 1254 c 2
 404 1273 l 1
 385 1278 l 2
 377 1279 365 1280 350 1280 c 2
 319 1280 l 1
 364 1491 l 1
 420 1491 l 2
 485 1491 532 1486 559 1475 c 0
 598 1460 628 1436 649 1401 c 0
 669 1366 678 1323 676 1270 c 0
 673 1217 658 1131 634 1011 c 0
 609 891 597 808 598 762 c 0
 599 717 613 681 639 654 c 0
 666 627 705 613 756 612 c 1
EndSplineSet
EndChar
StartChar: asciitilde
Encoding: 96 126 98
Width: 1196
Flags: HW
Fore
199 529 m 1
 253 782 l 1
 341 862 442 902 557 902 c 0
 597 902 637 896 679 884 c 0
 721 873 779 850 852 815 c 0
 894 796 925 783 947 777 c 0
 969 771 992 768 1015 768 c 0
 1058 768 1106 781 1158 807 c 0
 1210 833 1258 866 1302 905 c 1
 1247 645 l 1
 1196 605 1146 576 1099 558 c 0
 1052 540 1001 531 946 531 c 0
 906 531 869 536 834 545 c 0
 800 554 748 577 676 612 c 0
 605 647 542 665 489 665 c 0
 446 665 404 656 364 638 c 0
 322 619 267 583 199 529 c 1
EndSplineSet
EndChar
StartChar: exclamdown
Encoding: 98 161 100
Width: 680
Flags: HW
Fore
714 1278 m 1
 510 1278 l 1
 554 1489 l 1
 758 1489 l 1
 714 1278 l 1
452 0 m 1
 228 0 l 1
 485 1079 l 1
 651 1079 l 1
 452 0 l 1
EndSplineSet
EndChar
StartChar: cent
Encoding: 99 162 101
Width: 1118
Flags: HW
Fore
557 2 m 1
 418 19 320 75 264 171 c 128
 209 267 198 396 232 557 c 0
 266 716 332 844 432 943 c 128
 532 1042 653 1099 794 1115 c 1
 871 1475 l 1
 985 1475 l 1
 908 1116 l 1
 966 1114 1020 1105 1070 1090 c 128
 1120 1074 1162 1056 1195 1037 c 1
 1153 837 l 1
 1143 837 l 1
 1109 871 1072 901 1030 926 c 128
 988 951 938 968 879 977 c 1
 701 141 l 1
 735 144 768 152 805 164 c 128
 839 176 870 189 896 202 c 0
 923 216 947 230 969 244 c 128
 991 257 1009 270 1025 281 c 1
 1035 281 l 1
 993 83 l 1
 945 63 896 45 846 30 c 128
 795 14 737 4 671 1 c 1
 594 -361 l 1
 480 -361 l 1
 557 2 l 1
588 146 m 1
 763 971 l 1
 683 957 613 915 554 846 c 128
 494 776 452 680 425 557 c 0
 399 432 401 335 433 268 c 128
 464 200 516 159 588 146 c 1
EndSplineSet
EndChar
StartChar: sterling
Encoding: 100 163 102
Width: 1118
Flags: HW
Fore
1031 0 m 1
 89 0 l 1
 133 207 l 1
 212 229 273 272 317 335 c 128
 361 398 395 491 421 613 c 1
 260 613 l 1
 290 751 l 1
 451 751 l 1
 519 1071 l 2
 547 1205 609 1313 704 1395 c 128
 798 1477 908 1518 1031 1518 c 0
 1096 1518 1150 1513 1193 1502 c 128
 1237 1492 1277 1481 1313 1470 c 1
 1270 1264 l 1
 1260 1264 l 1
 1226 1291 1188 1313 1144 1328 c 128
 1100 1343 1057 1351 1014 1351 c 0
 932 1351 866 1325 815 1274 c 128
 763 1223 727 1149 707 1052 c 2
 643 751 l 1
 1007 751 l 1
 977 613 l 1
 613 613 l 1
 600 552 l 2
 584 474 550 403 496 340 c 128
 445 276 378 223 300 182 c 1
 297 171 l 1
 1067 171 l 1
 1031 0 l 1
EndSplineSet
EndChar
StartChar: currency
Encoding: 101 164 103
Width: 1118
Flags: HW
Fore
1115 272 m 1
 986 166 l 1
 817 378 l 1
 784 360 753 347 725 338 c 128
 697 330 665 326 629 326 c 0
 598 326 568 331 540 341 c 128
 511 351 486 364 466 379 c 1
 205 164 l 1
 123 273 l 1
 380 486 l 1
 369 513 363 542 360 572 c 128
 358 604 360 633 366 661 c 0
 372 690 383 720 397 750 c 128
 414 779 433 808 455 835 c 1
 288 1051 l 1
 418 1157 l 1
 587 944 l 1
 615 960 645 973 678 982 c 128
 711 991 742 996 772 996 c 0
 807 996 838 991 866 980 c 128
 894 970 918 958 937 945 c 1
 1194 1157 l 1
 1281 1052 l 1
 1021 836 l 1
 1033 807 1040 780 1043 753 c 128
 1046 726 1044 696 1036 661 c 0
 1030 631 1019 600 1003 570 c 128
 986 538 968 511 946 486 c 1
 1115 272 l 1
892 661 m 0
 904 714 895 760 866 800 c 128
 836 838 795 858 742 858 c 0
 691 858 642 839 596 800 c 128
 549 762 520 716 508 661 c 0
 497 608 506 562 535 522 c 128
 565 484 606 464 659 464 c 0
 710 464 759 483 805 522 c 128
 852 560 881 606 892 661 c 0
EndSplineSet
EndChar
StartChar: yen
Encoding: 102 165 104
Width: 1118
Flags: HW
Fore
1375 1489 m 1
 795 678 l 1
 774 578 l 1
 1116 578 l 1
 1087 440 l 1
 747 440 l 1
 653 0 l 1
 465 0 l 1
 559 440 l 1
 219 440 l 1
 248 578 l 1
 590 578 l 1
 607 657 l 1
 372 1489 l 1
 582 1489 l 1
 741 850 l 1
 1174 1489 l 1
 1375 1489 l 1
EndSplineSet
EndChar
StartChar: brokenbar
Encoding: 103 166 105
Width: 783
Flags: HW
Fore
636 758 m 1
 469 758 l 1
 639 1556 l 1
 806 1556 l 1
 636 758 l 1
392 -392 m 1
 225 -392 l 1
 394 406 l 1
 561 406 l 1
 392 -392 l 1
EndSplineSet
EndChar
StartChar: section
Encoding: 104 167 106
Width: 1118
Flags: HW
Fore
844 401 m 0
 865 424 883 447 895 468 c 128
 910 490 920 519 928 555 c 0
 935 588 936 616 932 640 c 128
 927 664 918 684 905 699 c 0
 892 714 876 727 857 738 c 128
 838 748 815 757 789 766 c 0
 758 776 758 776 716 788 c 128
 689 797 659 807 624 819 c 1
 609 811 593 801 576 789 c 128
 559 777 540 760 518 738 c 0
 501 721 484 697 466 668 c 128
 450 639 437 609 431 579 c 0
 420 525 423 482 442 450 c 128
 460 418 503 391 570 369 c 0
 602 359 602 359 644 346 c 128
 684 332 684 332 734 315 c 1
 749 323 765 334 785 348 c 128
 805 362 825 380 844 401 c 0
154 -133 m 1
 169 -142 189 -151 212 -162 c 128
 235 -173 258 -182 281 -190 c 0
 309 -200 337 -208 363 -212 c 128
 389 -218 421 -220 462 -220 c 0
 538 -220 605 -204 663 -174 c 128
 720 -142 755 -97 768 -36 c 0
 776 0 776 29 769 52 c 128
 761 74 745 94 722 111 c 0
 697 128 666 142 627 154 c 128
 569 171 569 171 501 192 c 0
 445 209 400 226 366 243 c 128
 329 260 299 283 274 312 c 0
 250 339 235 371 228 407 c 128
 220 443 222 485 232 533 c 0
 246 596 274 655 319 712 c 128
 364 768 425 817 500 858 c 1
 502 865 l 1
 448 898 414 939 398 986 c 128
 381 1033 379 1087 392 1147 c 0
 416 1259 478 1349 577 1417 c 128
 677 1485 802 1519 951 1519 c 0
 1008 1519 1059 1515 1105 1506 c 128
 1151 1497 1202 1483 1257 1462 c 1
 1216 1268 l 1
 1206 1268 l 1
 1152 1298 1101 1320 1052 1334 c 128
 1004 1348 951 1355 895 1355 c 0
 820 1355 754 1340 696 1310 c 128
 638 1279 603 1235 590 1176 c 0
 582 1138 582 1107 590 1083 c 128
 599 1059 615 1039 638 1024 c 0
 660 1008 690 994 729 981 c 128
 766 968 809 955 857 942 c 0
 973 909 1051 866 1093 814 c 128
 1134 761 1145 690 1126 601 c 0
 1110 529 1079 466 1032 412 c 128
 983 358 926 313 858 277 c 1
 856 270 l 1
 908 239 943 201 961 154 c 128
 978 107 980 53 967 -10 c 0
 956 -59 935 -108 905 -155 c 128
 873 -202 836 -242 790 -274 c 0
 741 -309 685 -337 624 -356 c 128
 562 -375 490 -385 408 -385 c 0
 355 -385 304 -380 254 -371 c 128
 204 -362 153 -347 102 -327 c 1
 144 -133 l 1
 154 -133 l 1
EndSplineSet
EndChar
StartChar: dieresis
Encoding: 105 168 107
Width: 1118
Flags: HW
Fore
1144 1304 m 1
 943 1304 l 1
 985 1499 l 1
 1186 1499 l 1
 1144 1304 l 1
731 1304 m 1
 530 1304 l 1
 572 1499 l 1
 773 1499 l 1
 731 1304 l 1
EndSplineSet
EndChar
StartChar: copyright
Encoding: 106 169 108
Width: 1902
Flags: HW
Fore
1955 655 m 0
 1904 416 1777 212 1571 44 c 128
 1367 -126 1145 -210 906 -210 c 128
 667 -210 481 -126 349 44 c 128
 215 212 174 416 225 655 c 128
 276 894 403 1097 609 1266 c 128
 813 1435 1035 1519 1274 1519 c 128
 1513 1519 1699 1435 1831 1266 c 128
 1965 1097 2006 894 1955 655 c 0
1840 655 m 0
 1885 864 1849 1042 1735 1188 c 128
 1619 1336 1458 1409 1251 1409 c 128
 1044 1409 853 1336 675 1188 c 128
 497 1042 387 864 342 655 c 128
 298 446 333 268 448 121 c 128
 563 -26 724 -100 931 -100 c 128
 1138 -100 1329 -26 1508 121 c 128
 1685 268 1796 446 1840 655 c 0
1328 255 m 1
 1279 235 1231 218 1183 202 c 128
 1135 188 1081 180 1020 180 c 0
 881 180 780 221 717 304 c 128
 653 386 638 505 671 660 c 0
 704 813 771 932 872 1016 c 128
 973 1101 1091 1143 1225 1143 c 0
 1280 1143 1331 1136 1379 1121 c 128
 1427 1106 1467 1089 1501 1070 c 1
 1463 889 l 1
 1447 889 l 1
 1423 914 1389 938 1343 962 c 128
 1297 984 1249 996 1198 996 c 0
 1116 996 1044 969 984 914 c 128
 923 859 881 775 856 660 c 0
 833 552 839 470 874 412 c 128
 909 356 969 327 1056 327 c 0
 1112 327 1167 339 1222 364 c 128
 1277 388 1320 411 1350 434 c 1
 1366 434 l 1
 1328 255 l 1
EndSplineSet
EndChar
StartChar: ordfeminine
Encoding: 107 170 109
Width: 1010
Flags: HW
Fore
994 566 m 1
 828 566 l 1
 848 657 l 1
 825 642 825 642 788 618 c 128
 764 603 740 590 717 581 c 0
 688 568 659 558 631 552 c 128
 603 544 566 541 519 541 c 0
 436 541 373 569 330 624 c 128
 287 680 274 752 292 839 c 0
 307 908 333 965 371 1008 c 128
 410 1052 458 1087 516 1112 c 0
 571 1136 638 1153 716 1163 c 128
 794 1173 876 1180 960 1184 c 1
 964 1203 l 2
 971 1238 971 1266 966 1287 c 128
 958 1308 946 1325 927 1337 c 0
 911 1348 888 1356 860 1360 c 128
 832 1363 803 1365 772 1365 c 0
 720 1365 665 1357 609 1342 c 128
 552 1326 509 1313 481 1304 c 1
 466 1304 l 1
 502 1474 l 1
 533 1483 579 1492 639 1503 c 128
 701 1514 756 1519 806 1519 c 0
 934 1519 1026 1494 1081 1442 c 128
 1137 1392 1152 1309 1128 1194 c 2
 994 566 l 1
878 802 m 1
 930 1045 l 1
 886 1042 835 1038 777 1033 c 128
 719 1028 671 1020 635 1010 c 0
 592 999 556 980 526 954 c 128
 495 929 476 894 466 849 c 0
 456 799 463 761 486 735 c 128
 510 709 551 696 609 696 c 0
 660 696 707 707 753 729 c 128
 798 751 840 775 878 802 c 1
EndSplineSet
EndChar
StartChar: guillemotleft
Encoding: 108 171 110
Width: 1174
Flags: HW
Fore
1084 191 m 1
 685 610 l 1
 703 695 l 1
 1280 1113 l 1
 1240 925 l 1
 865 652 l 1
 1124 379 l 1
 1084 191 l 1
647 162 m 1
 232 608 l 1
 251 697 l 1
 856 1142 l 1
 814 946 l 1
 421 652 l 1
 689 358 l 1
 647 162 l 1
EndSplineSet
EndChar
StartChar: logicalnot
Encoding: 109 172 111
Width: 1490
Flags: HW
Fore
1335 57 m 1
 1164 57 l 1
 1280 602 l 1
 285 602 l 1
 319 762 l 1
 1485 762 l 1
 1335 57 l 1
EndSplineSet
EndChar
StartChar: registered
Encoding: 111 174 113
Width: 1902
Flags: HW
Fore
1955 655 m 0
 1904 416 1777 212 1571 44 c 128
 1367 -126 1145 -210 906 -210 c 128
 667 -210 481 -126 349 44 c 128
 215 212 174 416 225 655 c 128
 276 894 403 1097 609 1266 c 128
 813 1435 1035 1519 1274 1519 c 128
 1513 1519 1699 1435 1831 1266 c 128
 1965 1097 2006 894 1955 655 c 0
1840 655 m 0
 1885 864 1849 1042 1735 1188 c 128
 1619 1336 1458 1409 1251 1409 c 128
 1044 1409 853 1336 675 1188 c 128
 497 1042 387 864 342 655 c 128
 298 446 333 268 448 121 c 128
 563 -26 724 -100 931 -100 c 128
 1138 -100 1329 -26 1508 121 c 128
 1685 268 1796 446 1840 655 c 0
1494 215 m 1
 1267 215 l 1
 1059 570 l 1
 936 570 l 1
 861 215 l 1
 696 215 l 1
 890 1130 l 1
 1169 1130 l 2
 1232 1130 1281 1128 1317 1123 c 128
 1352 1118 1386 1105 1418 1084 c 0
 1454 1061 1477 1034 1488 1002 c 128
 1499 970 1499 929 1489 879 c 0
 1475 812 1445 758 1398 715 c 128
 1353 672 1297 639 1233 615 c 1
 1494 215 l 1
1304 868 m 0
 1310 893 1310 914 1306 932 c 128
 1302 950 1291 965 1274 978 c 0
 1259 989 1243 996 1223 1000 c 128
 1202 1003 1177 1005 1144 1005 c 2
 1029 1005 l 1
 963 696 l 1
 1061 696 l 2
 1093 696 1124 699 1153 706 c 128
 1182 712 1208 723 1228 738 c 128
 1248 753 1265 771 1276 791 c 128
 1288 811 1298 837 1304 868 c 0
EndSplineSet
EndChar
StartChar: macron
Encoding: 112 175 114
Width: 1118
Flags: HW
Fore
1487 1659 m 1
 337 1659 l 1
 364 1789 l 1
 1514 1789 l 1
 1487 1659 l 1
EndSplineSet
EndChar
StartChar: degree
Encoding: 113 176 115
Width: 964
Flags: HW
Fore
1104 1135 m 0
 1082 1028 1025 938 937 865 c 128
 848 792 749 755 642 755 c 0
 536 755 454 791 396 864 c 128
 337 937 319 1027 342 1135 c 0
 365 1242 421 1332 510 1405 c 128
 598 1478 697 1515 804 1515 c 128
 911 1515 994 1478 1052 1405 c 128
 1109 1332 1127 1242 1104 1135 c 0
947 1135 m 0
 961 1199 951 1253 918 1297 c 128
 884 1341 836 1363 772 1363 c 128
 708 1363 650 1341 598 1297 c 128
 545 1253 513 1199 499 1135 c 0
 485 1070 496 1015 531 972 c 128
 564 929 613 907 675 907 c 0
 739 907 796 929 849 974 c 128
 901 1018 934 1072 947 1135 c 0
EndSplineSet
EndChar
StartChar: plusminus
Encoding: 114 177 116
Width: 1490
Flags: HW
Fore
1362 159 m 1
 196 159 l 1
 229 317 l 1
 729 317 l 1
 819 739 l 1
 319 739 l 1
 353 897 l 1
 853 897 l 1
 960 1402 l 1
 1126 1402 l 1
 1019 897 l 1
 1519 897 l 1
 1485 739 l 1
 985 739 l 1
 895 317 l 1
 1395 317 l 1
 1362 159 l 1
EndSplineSet
EndChar
StartChar: uni00B2
Encoding: 115 178 117
Width: 1010
Flags: HW
Fore
986 566 m 1
 305 566 l 1
 338 718 l 1
 427 777 427 777 509 832 c 128
 564 868 609 900 644 929 c 0
 730 997 787 1050 817 1088 c 128
 848 1127 868 1173 880 1227 c 0
 890 1273 883 1308 860 1334 c 128
 836 1358 799 1371 748 1371 c 0
 702 1371 653 1361 603 1341 c 128
 551 1321 509 1300 478 1279 c 1
 463 1279 l 1
 501 1458 l 1
 547 1476 597 1491 649 1502 c 128
 704 1513 755 1519 804 1519 c 0
 908 1519 982 1493 1026 1440 c 128
 1071 1388 1085 1321 1067 1239 c 0
 1055 1182 1031 1128 993 1076 c 128
 955 1023 894 965 808 900 c 0
 767 869 720 837 666 802 c 128
 587 751 587 751 524 710 c 1
 1017 710 l 1
 986 566 l 1
EndSplineSet
EndChar
StartChar: uni00B3
Encoding: 116 179 118
Width: 1010
Flags: HW
Fore
1013 828 m 0
 1003 781 984 738 956 700 c 128
 928 663 896 633 859 611 c 0
 819 586 777 569 733 558 c 128
 690 547 642 542 589 542 c 0
 534 542 484 547 438 557 c 128
 394 567 350 581 312 600 c 1
 349 775 l 1
 366 775 l 1
 386 752 419 730 466 710 c 128
 513 691 563 681 616 681 c 0
 672 681 720 693 763 718 c 128
 805 742 830 778 841 826 c 0
 851 874 843 910 820 933 c 128
 795 956 749 968 680 968 c 2
 540 968 l 1
 569 1107 l 1
 694 1107 l 2
 752 1107 800 1120 837 1145 c 128
 874 1170 897 1205 906 1249 c 0
 915 1289 908 1321 886 1344 c 128
 864 1368 823 1380 765 1380 c 0
 721 1380 671 1370 617 1349 c 128
 560 1328 519 1306 489 1283 c 1
 472 1283 l 1
 509 1458 l 1
 556 1476 605 1491 657 1502 c 128
 710 1513 762 1519 815 1519 c 0
 916 1519 990 1496 1037 1449 c 128
 1084 1402 1100 1346 1086 1281 c 0
 1074 1223 1048 1175 1008 1138 c 128
 967 1100 919 1072 864 1055 c 1
 863 1047 l 1
 913 1036 955 1013 985 976 c 128
 1018 940 1026 891 1013 828 c 0
EndSplineSet
EndChar
StartChar: acute
Encoding: 117 180 119
Width: 1118
Flags: HW
Fore
1227 1676 m 1
 875 1302 l 1
 726 1302 l 1
 984 1676 l 1
 1227 1676 l 1
EndSplineSet
EndChar
StartChar: mu
Encoding: 118 181 120
Width: 1163
Flags: HW
Fore
1027 0 m 1
 855 0 l 1
 880 116 l 1
 874 116 l 1
 825 74 778 41 732 18 c 128
 687 -5 634 -17 574 -17 c 0
 513 -17 467 -5 437 18 c 128
 407 41 377 74 348 115 c 1
 236 -412 l 1
 48 -412 l 1
 373 1117 l 1
 561 1117 l 1
 382 275 l 1
 403 242 433 215 470 194 c 128
 508 174 556 164 613 164 c 0
 673 164 725 174 771 193 c 128
 815 212 858 240 897 275 c 1
 1076 1117 l 1
 1264 1117 l 1
 1027 0 l 1
EndSplineSet
EndChar
StartChar: paragraph
Encoding: 119 182 121
Width: 1118
Flags: HW
Fore
905 -363 m 1
 765 -363 l 1
 1131 1359 l 1
 944 1359 l 1
 578 -363 l 1
 438 -363 l 1
 641 593 l 1
 505 596 403 639 336 722 c 128
 270 805 251 914 280 1050 c 0
 310 1188 375 1296 479 1373 c 128
 582 1450 714 1489 876 1489 c 2
 1298 1489 l 1
 905 -363 l 1
EndSplineSet
EndChar
StartChar: periodcentered
Encoding: 120 183 122
Width: 724
Flags: HW
Fore
659 832 m 1
 420 832 l 1
 480 1117 l 1
 719 1117 l 1
 659 832 l 1
EndSplineSet
EndChar
StartChar: cedilla
Encoding: 121 184 123
Width: 1118
Flags: HW
Fore
771 20 m 1
 770 8 768 -7 764 -26 c 128
 763 -44 759 -65 754 -89 c 0
 731 -197 684 -280 614 -337 c 128
 544 -394 465 -423 376 -423 c 0
 351 -423 323 -421 290 -417 c 128
 258 -413 229 -407 204 -399 c 1
 238 -239 l 1
 247 -239 l 1
 262 -246 281 -254 305 -262 c 128
 330 -269 355 -273 382 -273 c 0
 445 -273 492 -260 524 -234 c 128
 557 -207 579 -165 591 -107 c 0
 595 -90 599 -71 602 -50 c 128
 606 -29 610 -6 614 20 c 1
 771 20 l 1
EndSplineSet
EndChar
StartChar: uni0E01
Encoding: 122 3585 124
Width: 1240
Flags: HW
Fore
1225 673 m 2
 1082 0 l 5
 862 0 l 1
 1002 657 l 2
 1040 838 980 929 821 929 c 0
 715 929 630 896 567 831 c 1
 633 795 673 739 687 663 c 1
 682 661 645 628 576 563 c 0
 536 526 506 459 485 363 c 2
 408 0 l 1
 188 0 l 1
 265 363 l 2
 283 448 305 509 332 546 c 0
 353 576 396 618 459 671 c 1
 424 727 366 767 286 792 c 1
 313 855 362 917 434 979 c 1
 563 1092 708 1149 868 1149 c 0
 1018 1149 1125 1102 1188 1008 c 0
 1243 927 1255 815 1225 673 c 2
EndSplineSet
EndChar
StartChar: uni0E02
Encoding: 123 3586 125
Width: 1400
Flags: HW
Fore
443 662 m 1
 461 660 l 1
 485 662 507 676 527 702 c 0
 534 711 540 719 542 726 c 1
 552 765 l 1
 555 793 545 813 522 824 c 0
 517 827 511 828 506 828 c 1
 489 825 l 1
 479 820 470 812 460 801 c 0
 451 789 441 774 431 755 c 0
 425 740 421 727 418 716 c 1
 417 694 l 1
 418 678 427 667 443 662 c 1
1048 771 m 1
 945 688 889 623 879 575 c 2
 820 298 l 2
 814 269 826 246 856 227 c 0
 875 216 897 210 921 210 c 0
 973 210 1012 225 1039 256 c 0
 1050 269 1057 283 1060 298 c 2
 1239 1139 l 1
 1459 1139 l 1
 1280 298 l 2
 1254 173 1187 84 1081 33 c 0
 1021 4 952 -10 874 -10 c 0
 771 -10 694 21 643 83 c 0
 596 140 582 212 600 298 c 2
 659 575 l 2
 669 623 723 686 818 763 c 0
 828 771 l 1
 835 823 828 866 808 899 c 0
 787 935 751 953 702 953 c 0
 696 953 690 953 682 952 c 0
 648 949 622 939 603 923 c 0
 602 922 602 921 601 920 c 1
 650 914 678 881 684 820 c 0
 686 797 684 773 679 748 c 0
 666 685 633 632 582 590 c 1
 552 568 l 1
 511 543 468 531 420 531 c 0
 412 531 404 531 395 532 c 0
 316 539 268 582 253 660 c 0
 246 697 248 740 259 789 c 0
 261 798 262 806 265 815 c 0
 296 912 348 988 421 1043 c 0
 505 1107 593 1142 685 1148 c 0
 696 1149 708 1149 720 1149 c 0
 812 1149 888 1128 947 1086 c 0
 963 1075 977 1062 987 1049 c 0
 1018 1011 1038 959 1049 894 c 0
 1057 850 1056 809 1048 771 c 1
EndSplineSet
EndChar
StartChar: uni0E03
Encoding: 124 3587 126
Width: 1450
Flags: HW
Fore
405 588 m 1
 424 586 l 1
 447 588 469 602 489 628 c 0
 496 637 502 645 505 652 c 1
 514 691 l 1
 517 719 507 739 484 750 c 0
 479 753 473 754 468 754 c 1
 452 751 l 1
 442 746 432 738 423 727 c 0
 413 715 403 700 394 681 c 0
 388 666 383 653 380 642 c 0
 375 614 383 596 405 588 c 1
860 929 m 1
 749 857 648 857 557 929 c 1
 533 903 517 882 509 866 c 0
 508 865 507 863 507 862 c 1
 586 862 632 827 644 756 c 0
 648 729 647 702 641 674 c 0
 628 611 596 558 545 516 c 0
 497 477 444 457 383 457 c 0
 374 457 366 457 357 458 c 0
 291 464 247 500 227 567 c 0
 214 608 213 654 223 703 c 0
 226 716 230 729 234 741 c 0
 262 821 289 882 317 923 c 0
 335 948 356 974 380 999 c 0
 429 1048 485 1090 548 1124 c 0
 569 1135 588 1144 604 1149 c 1
 740 1041 l 1
 907 1149 l 1
 950 1137 987 1112 1021 1073 c 0
 1028 1065 1035 1057 1040 1049 c 1
 1071 1011 1091 959 1102 894 c 0
 1110 850 1109 809 1101 771 c 1
 998 688 942 623 932 575 c 2
 873 298 l 2
 867 269 879 246 909 227 c 0
 928 216 950 210 974 210 c 0
 1026 210 1065 225 1092 256 c 0
 1103 269 1110 283 1113 298 c 2
 1292 1139 l 1
 1512 1139 l 1
 1333 298 l 2
 1307 173 1240 84 1134 33 c 0
 1074 4 1005 -10 927 -10 c 0
 824 -10 747 21 696 83 c 0
 649 140 635 212 653 298 c 2
 712 575 l 2
 722 623 772 680 859 745 c 0
 870 754 882 762 895 771 c 1
 899 806 895 845 881 887 c 0
 875 904 868 918 860 929 c 1
EndSplineSet
EndChar
StartChar: uni0E04
Encoding: 125 3588 127
Width: 1370
Flags: HW
Fore
895 565 m 1
 886 571 878 574 869 574 c 0
 848 574 824 559 796 528 c 0
 774 503 760 482 757 464 c 0
 753 448 757 435 769 425 c 0
 777 418 786 415 798 415 c 0
 825 415 852 429 879 457 c 0
 893 472 902 488 905 505 c 0
 910 527 906 547 895 565 c 1
503 384 m 1
 556 476 591 533 608 555 c 0
 617 567 626 579 635 590 c 0
 681 643 735 680 796 702 c 0
 823 711 848 716 872 716 c 0
 886 716 900 714 912 711 c 0
 950 701 981 676 1005 637 c 0
 1018 616 1026 596 1027 577 c 1
 1031 556 1031 535 1026 514 c 0
 1017 471 991 429 949 388 c 0
 901 341 856 315 813 308 c 1
 772 305 l 2
 770 305 770 305 767 305 c 0
 735 306 711 315 694 331 c 0
 692 334 690 336 690 338 c 1
 669 319 627 254 562 141 c 0
 519 66 496 19 491 0 c 1
 251 0 l 1
 274 108 l 2
 282 145 287 225 288 346 c 0
 289 492 297 603 314 680 c 0
 323 723 335 763 350 798 c 0
 396 909 470 995 572 1056 c 0
 657 1107 750 1137 850 1146 c 0
 873 1148 898 1149 925 1149 c 1
 995 1146 l 1
 1078 1137 1151 1113 1213 1074 c 0
 1264 1043 1301 1005 1324 958 c 0
 1355 898 1366 828 1356 749 c 0
 1354 727 1349 703 1344 677 c 2
 1200 0 l 1
 980 0 l 1
 1121 664 l 2
 1132 715 1132 755 1123 782 c 0
 1103 839 1060 881 994 908 c 0
 958 922 921 929 882 929 c 0
 807 929 734 905 663 857 c 0
 625 832 597 804 578 774 c 0
 554 738 537 696 527 647 c 0
 519 613 513 550 509 459 c 0
 507 428 506 403 503 384 c 1
EndSplineSet
EndChar
StartChar: uni0E05
Encoding: 126 3589 128
Width: 1370
Flags: HW
Fore
882 565 m 1
 873 571 864 574 855 574 c 0
 834 574 810 559 782 528 c 0
 760 503 747 482 744 464 c 0
 740 448 744 435 756 425 c 0
 764 418 773 415 784 415 c 0
 812 415 839 429 866 457 c 0
 880 472 889 488 891 505 c 0
 896 527 893 547 882 565 c 1
569 802 m 0
 547 766 529 721 518 668 c 0
 510 630 503 559 496 456 c 0
 494 426 491 402 490 384 c 1
 543 476 578 533 594 555 c 0
 604 567 613 579 622 590 c 0
 668 643 721 680 782 702 c 0
 809 711 834 716 858 716 c 0
 873 716 887 714 899 711 c 0
 936 701 968 676 992 637 c 0
 1005 616 1012 596 1013 577 c 1
 1017 556 1018 535 1013 514 c 0
 1004 471 978 429 935 388 c 0
 887 341 842 315 799 308 c 1
 759 305 l 2
 756 305 756 305 754 305 c 0
 721 306 697 315 681 331 c 0
 679 334 677 336 677 338 c 1
 656 319 613 254 549 141 c 0
 506 66 482 19 478 0 c 1
 238 0 l 1
 261 108 l 2
 269 145 273 228 276 356 c 0
 278 510 288 627 305 706 c 0
 315 751 327 791 343 826 c 0
 389 937 463 1023 565 1084 c 0
 626 1121 690 1142 757 1149 c 1
 897 1033 l 1
 1094 1149 l 1
 1200 1124 1274 1070 1317 986 c 1
 1354 913 1359 810 1331 677 c 2
 1187 0 l 1
 967 0 l 1
 1108 664 l 2
 1123 734 1125 783 1116 810 c 0
 1102 849 1078 882 1043 909 c 1
 846 795 l 1
 706 909 l 1
 647 886 602 851 569 802 c 0
EndSplineSet
EndChar
StartChar: uni0E06
Encoding: 127 3590 129
Width: 1520
Flags: HW
Fore
395 588 m 1
 414 586 l 1
 437 588 459 602 479 628 c 0
 486 637 492 645 495 652 c 1
 504 691 l 1
 507 719 497 739 474 750 c 0
 469 753 463 754 458 754 c 1
 442 751 l 1
 432 746 422 738 413 727 c 0
 403 715 393 700 384 681 c 0
 378 666 373 653 370 642 c 0
 365 614 373 596 395 588 c 1
891 430 m 1
 947 363 1004 312 1062 277 c 1
 1093 260 1119 251 1140 250 c 0
 1147 250 1156 252 1164 255 c 0
 1183 263 1195 278 1202 299 c 0
 1204 306 1210 332 1219 377 c 2
 1381 1139 l 1
 1601 1139 l 1
 1405 218 l 2
 1385 121 1344 55 1283 21 c 0
 1244 -2 1203 -13 1160 -13 c 0
 1129 -13 1099 -7 1070 6 c 0
 1029 24 973 57 905 106 c 0
 874 128 850 147 834 164 c 1
 824 116 797 75 755 42 c 0
 713 10 667 -7 614 -10 c 2
 598 -10 l 2
 531 -8 483 12 449 49 c 0
 444 55 439 61 434 68 c 0
 415 95 408 138 412 198 c 1
 419 249 l 1
 420 255 421 261 424 267 c 0
 447 345 491 407 553 453 c 0
 593 482 638 500 688 507 c 1
 702 575 l 2
 712 623 762 680 849 745 c 0
 860 754 872 762 885 771 c 1
 889 806 885 845 871 887 c 0
 865 904 858 918 850 929 c 1
 739 857 638 857 547 929 c 1
 523 903 507 882 499 866 c 0
 498 865 497 863 497 862 c 1
 576 862 622 827 634 756 c 0
 638 729 637 702 631 674 c 0
 618 611 586 558 535 516 c 0
 487 477 434 457 373 457 c 0
 364 457 356 457 347 458 c 0
 281 464 237 500 217 567 c 0
 204 608 203 654 213 703 c 0
 216 716 220 729 224 741 c 0
 252 821 279 882 307 923 c 0
 325 948 346 974 370 999 c 0
 419 1048 475 1090 538 1124 c 0
 559 1135 578 1144 594 1149 c 1
 730 1041 l 1
 897 1149 l 1
 940 1137 977 1112 1011 1073 c 1
 1030 1049 l 2
 1061 1011 1081 959 1092 894 c 0
 1100 850 1099 809 1091 771 c 1
 989 689 934 624 922 575 c 1
 891 430 l 1
662 317 m 1
 648 317 636 313 623 304 c 0
 596 285 578 257 569 219 c 0
 560 177 566 156 588 156 c 0
 609 156 624 167 633 190 c 0
 636 198 639 209 642 222 c 2
 662 317 l 1
EndSplineSet
EndChar
StartChar: uni0E07
Encoding: 128 3591 130
Width: 1000
Flags: HW
Fore
913 272 m 2
 888 157 828 77 733 30 c 0
 681 3 620 -10 551 -10 c 0
 389 -10 300 68 286 223 c 0
 285 238 284 255 285 272 c 1
 298 719 l 1
 522 640 l 1
 514 312 l 1
 511 255 531 221 574 212 c 0
 581 211 588 210 595 210 c 0
 650 210 686 244 701 312 c 1
 796 759 l 1
 787 754 770 752 745 752 c 0
 738 752 738 752 734 752 c 0
 706 755 681 768 659 792 c 0
 631 823 622 867 634 922 c 0
 639 947 649 974 662 1004 c 0
 683 1047 717 1084 767 1114 c 0
 805 1137 848 1149 895 1149 c 0
 950 1148 991 1130 1020 1095 c 0
 1056 1052 1063 980 1042 881 c 2
 913 272 l 2
837 1026 m 0
 818 1026 799 1015 779 994 c 1
 767 977 758 960 754 941 c 0
 750 920 752 902 759 886 c 0
 768 867 783 857 802 857 c 0
 819 857 836 865 850 882 c 1
 860 895 869 916 875 945 c 0
 881 975 881 996 873 1008 c 128
 866 1020 854 1026 837 1026 c 0
EndSplineSet
EndChar
StartChar: uni0E08
Encoding: 129 3592 131
Width: 1200
Flags: HW
Fore
528 283 m 2
 547 373 l 1
 535 362 520 355 504 350 c 0
 490 346 475 344 462 344 c 0
 423 345 392 361 367 392 c 0
 340 425 333 469 344 524 c 0
 365 621 416 687 497 723 c 0
 522 734 549 741 576 745 c 0
 662 756 726 739 770 694 c 1
 805 653 814 594 798 517 c 2
 748 283 l 2
 738 234 753 210 793 210 c 0
 833 210 858 233 867 279 c 2
 956 695 l 2
 970 763 966 812 943 842 c 1
 904 890 856 918 797 926 c 0
 780 928 762 929 743 929 c 0
 655 929 571 901 488 846 c 0
 456 825 429 801 407 775 c 1
 301 929 l 1
 356 998 435 1054 539 1097 c 0
 624 1132 706 1149 788 1149 c 0
 973 1149 1098 1095 1162 987 c 0
 1199 924 1207 841 1185 740 c 2
 1087 279 l 2
 1046 86 933 -10 746 -10 c 0
 559 -10 487 88 528 283 c 2
547 625 m 0
 525 625 504 613 484 590 c 0
 474 577 467 565 464 552 c 0
 463 548 463 544 463 540 c 0
 463 498 470 472 484 463 c 0
 491 458 500 456 511 456 c 0
 548 459 571 484 581 532 c 0
 582 538 582 538 584 545 c 0
 595 598 583 625 547 625 c 0
EndSplineSet
EndChar
StartChar: uni0E09
Encoding: 130 3593 132
Width: 1395
Flags: HW
Fore
1045 714 m 2
 1065 807 1037 871 962 907 c 1
 921 922 l 1
 893 930 862 934 828 934 c 0
 739 934 652 907 569 853 c 0
 538 834 512 812 489 788 c 1
 380 942 l 1
 433 1006 510 1058 611 1098 c 0
 698 1132 784 1149 869 1149 c 0
 1044 1149 1165 1101 1229 1004 c 1
 1249 966 l 1
 1281 898 1286 814 1265 713 c 2
 1221 507 l 1
 1267 500 1304 482 1332 453 c 0
 1362 421 1377 371 1376 304 c 0
 1375 284 1373 264 1369 244 c 0
 1354 176 1331 123 1298 84 c 0
 1294 78 1289 73 1282 68 c 0
 1232 25 1180 0 1126 -7 c 0
 1114 -8 1103 -9 1091 -10 c 1
 1051 -8 l 1
 1010 -1 978 15 956 42 c 0
 928 75 919 116 929 164 c 1
 864 119 787 74 698 30 c 1
 645 6 l 1
 612 -7 578 -13 547 -13 c 0
 504 -13 469 -2 438 21 c 0
 393 55 380 121 400 218 c 2
 438 393 l 1
 414 374 387 365 354 365 c 0
 299 365 262 389 243 438 c 0
 231 470 229 507 238 550 c 0
 243 574 251 598 262 623 c 0
 281 663 314 698 362 727 c 0
 404 753 446 766 488 766 c 0
 565 766 622 746 658 706 c 0
 693 667 703 613 689 544 c 2
 653 377 l 2
 641 322 636 290 636 282 c 0
 636 269 643 260 656 255 c 1
 675 253 l 1
 719 256 795 295 901 368 c 0
 931 389 959 409 984 430 c 1
 1045 714 l 2
435 645 m 0
 411 645 389 631 370 604 c 0
 360 590 354 575 351 560 c 1
 346 523 354 498 374 484 c 0
 382 479 390 476 400 476 c 0
 436 479 459 504 470 553 c 0
 471 558 471 558 472 564 c 0
 483 618 471 645 435 645 c 0
1163 317 m 1
 1143 222 l 2
 1136 187 1138 166 1151 160 c 0
 1155 157 1161 156 1169 156 c 0
 1191 156 1207 177 1216 219 c 0
 1223 257 1217 285 1198 304 c 0
 1189 313 1177 317 1163 317 c 1
EndSplineSet
EndChar
StartChar: uni0E0A
Encoding: 131 3594 133
Width: 1390
Flags: HW
Fore
437 662 m 1
 455 660 l 1
 479 662 501 676 521 702 c 0
 528 711 534 719 536 726 c 1
 546 765 l 1
 549 793 539 813 516 824 c 0
 511 827 505 828 500 828 c 1
 483 825 l 1
 473 820 464 812 454 801 c 0
 445 789 435 774 425 755 c 0
 419 740 415 727 412 716 c 0
 406 688 414 670 437 662 c 1
1031 719 m 1
 980 690 937 655 903 613 c 0
 883 588 871 566 867 545 c 2
 814 298 l 2
 808 269 820 246 850 227 c 0
 869 216 891 210 915 210 c 0
 967 210 1006 225 1033 256 c 0
 1044 269 1051 283 1054 298 c 2
 1107 546 l 2
 1117 593 1117 626 1108 646 c 0
 1102 659 1093 671 1078 684 c 1
 1037 715 l 2
 1035 716 1034 718 1031 719 c 1
1037 924 m 1
 1127 936 1200 970 1257 1025 c 0
 1296 1064 1322 1110 1333 1163 c 2
 1339 1188 l 1
 1574 1188 l 1
 1568 1164 l 2
 1552 1087 1511 1014 1444 945 c 0
 1386 885 1325 845 1259 825 c 1
 1320 782 1350 731 1350 673 c 0
 1350 659 1348 644 1345 629 c 2
 1274 298 l 2
 1248 173 1181 84 1075 33 c 0
 1015 4 946 -10 868 -10 c 0
 765 -10 688 21 637 83 c 0
 590 140 576 212 594 298 c 2
 653 575 l 2
 663 623 717 686 812 763 c 0
 822 771 l 1
 829 823 822 866 802 899 c 0
 781 935 745 953 696 953 c 0
 690 953 684 953 676 952 c 0
 642 949 616 939 597 923 c 0
 596 922 596 921 595 920 c 1
 644 914 672 881 678 820 c 0
 680 797 678 773 673 748 c 0
 660 685 627 632 576 590 c 0
 529 551 475 531 415 531 c 0
 406 531 398 531 389 532 c 0
 310 539 262 582 247 660 c 0
 240 697 242 740 253 789 c 0
 255 798 256 806 259 815 c 0
 290 912 342 988 415 1043 c 0
 499 1107 587 1142 679 1148 c 0
 690 1149 702 1149 714 1149 c 0
 806 1149 882 1128 941 1086 c 0
 957 1075 971 1062 981 1049 c 0
 1005 1018 1025 977 1037 924 c 1
EndSplineSet
EndChar
StartChar: uni0E0B
Encoding: 132 3595 134
Width: 1450
Flags: HW
Fore
405 588 m 1
 424 586 l 1
 447 588 469 602 489 628 c 0
 496 637 502 645 505 652 c 1
 514 691 l 1
 517 719 507 739 484 750 c 0
 479 753 473 754 468 754 c 1
 452 751 l 1
 442 746 432 738 423 727 c 0
 413 715 403 700 394 681 c 0
 388 666 383 653 380 642 c 0
 375 614 383 596 405 588 c 1
1044 1050 m 0
 1072 1017 1093 975 1109 924 c 1
 1199 936 1272 970 1329 1025 c 0
 1368 1064 1394 1110 1405 1163 c 2
 1411 1188 l 1
 1646 1188 l 1
 1640 1164 l 2
 1624 1087 1583 1014 1516 945 c 0
 1490 918 1463 894 1434 875 c 0
 1407 856 1379 842 1351 832 c 0
 1344 829 1338 827 1331 825 c 1
 1392 782 1422 731 1422 673 c 0
 1422 659 1420 644 1417 629 c 2
 1346 298 l 2
 1320 173 1253 84 1147 33 c 0
 1087 4 1018 -10 940 -10 c 0
 837 -10 760 21 709 83 c 0
 662 140 648 212 666 298 c 2
 725 575 l 2
 735 623 789 686 884 763 c 0
 894 771 l 1
 899 807 894 846 881 887 c 0
 875 904 868 918 860 929 c 1
 749 857 648 857 557 929 c 1
 533 903 517 882 509 866 c 0
 508 865 507 863 507 862 c 1
 586 862 632 827 644 756 c 0
 648 729 647 702 641 674 c 0
 628 611 596 558 545 516 c 0
 497 477 444 457 383 457 c 0
 374 457 366 457 357 458 c 0
 291 464 247 500 227 567 c 0
 214 608 213 654 223 703 c 0
 226 716 230 729 234 741 c 0
 262 821 289 882 317 923 c 0
 335 948 356 974 380 999 c 0
 429 1048 485 1090 548 1124 c 0
 569 1135 588 1144 604 1149 c 1
 740 1041 l 1
 907 1149 l 1
 942 1139 982 1112 1026 1068 c 0
 1034 1061 1039 1055 1044 1050 c 0
1103 719 m 1
 1052 690 1009 655 975 613 c 0
 955 588 943 566 939 545 c 2
 886 298 l 2
 880 269 892 246 922 227 c 0
 941 216 963 210 987 210 c 0
 1039 210 1078 225 1105 256 c 0
 1116 269 1123 283 1126 298 c 2
 1179 546 l 2
 1189 593 1189 626 1180 646 c 0
 1174 659 1165 671 1150 684 c 1
 1109 715 l 2
 1107 716 1106 718 1103 719 c 1
EndSplineSet
EndChar
StartChar: uni0E0C
Encoding: 133 3596 135
Width: 1750
Flags: HW
Fore
1000 657 m 2
 1038 838 978 929 819 929 c 0
 713 929 628 896 565 831 c 1
 631 795 671 739 685 663 c 1
 680 661 643 628 574 563 c 0
 534 526 504 463 486 376 c 2
 483 363 l 1
 504 382 530 391 560 391 c 0
 579 392 597 388 615 380 c 0
 634 371 649 359 661 344 c 0
 689 310 696 264 684 206 c 0
 680 182 671 158 658 133 c 0
 629 76 585 35 527 10 c 0
 495 -3 462 -10 427 -10 c 0
 378 -9 342 -3 318 9 c 0
 297 20 278 35 260 56 c 0
 230 90 223 156 241 254 c 0
 243 269 247 285 250 303 c 2
 264 366 l 2
 281 449 303 509 330 546 c 0
 351 576 394 618 457 671 c 1
 422 727 364 767 284 792 c 1
 311 855 360 917 432 979 c 1
 561 1092 706 1149 866 1149 c 0
 1016 1149 1123 1102 1186 1008 c 0
 1240 928 1252 816 1222 673 c 2
 1170 430 l 1
 1228 359 1270 314 1293 293 c 0
 1325 264 1353 250 1377 250 c 0
 1384 250 1392 252 1399 255 c 0
 1418 263 1430 278 1437 299 c 0
 1439 306 1445 332 1454 377 c 2
 1616 1139 l 1
 1835 1139 l 1
 1639 218 l 2
 1619 121 1578 55 1517 21 c 0
 1478 -2 1437 -13 1394 -13 c 0
 1363 -13 1333 -7 1304 6 c 0
 1268 22 1204 75 1114 164 c 1
 1104 116 1077 75 1035 42 c 0
 993 10 947 -7 894 -10 c 2
 878 -10 l 2
 811 -8 763 12 729 49 c 0
 724 55 719 61 714 68 c 0
 695 95 688 138 692 198 c 1
 699 249 l 1
 700 255 701 261 704 267 c 0
 727 345 771 407 833 453 c 0
 873 482 918 500 968 507 c 1
 1000 657 l 2
942 317 m 1
 928 317 916 313 903 304 c 0
 876 285 858 257 849 219 c 0
 840 177 846 156 868 156 c 0
 889 156 904 167 913 190 c 0
 916 198 919 209 922 222 c 2
 942 317 l 1
472 110 m 0
 497 110 519 124 538 152 c 0
 547 165 553 179 556 195 c 1
 563 238 554 265 530 276 c 0
 523 279 517 280 509 280 c 0
 478 280 456 260 444 220 c 0
 442 215 441 210 439 204 c 0
 426 141 437 110 472 110 c 0
EndSplineSet
EndChar
StartChar: uni0E0D
Encoding: 134 3597 136
Width: 1745
Flags: HW
Fore
1201 310 m 2
 1193 275 1202 248 1226 229 c 0
 1242 216 1263 210 1289 210 c 0
 1366 210 1412 243 1426 310 c 2
 1602 1139 l 1
 1822 1139 l 1
 1631 241 l 2
 1613 157 1559 91 1470 44 c 0
 1402 8 1328 -10 1248 -10 c 0
 1242 -10 l 0
 1148 -9 1075 17 1022 66 c 0
 970 114 952 175 968 249 c 2
 1055 657 l 2
 1093 838 1033 929 874 929 c 0
 768 929 683 896 620 831 c 1
 686 795 726 739 740 663 c 1
 736 661 698 628 629 563 c 0
 589 526 559 463 541 376 c 2
 538 363 l 1
 559 382 585 391 615 391 c 0
 634 392 652 388 670 380 c 0
 689 371 704 359 716 344 c 0
 744 310 751 264 739 206 c 0
 735 182 726 158 713 133 c 0
 684 76 640 35 582 10 c 0
 550 -3 517 -10 482 -10 c 0
 433 -9 397 -3 373 9 c 0
 352 20 333 35 315 56 c 0
 285 90 278 156 296 254 c 0
 298 269 302 285 305 303 c 2
 319 366 l 2
 336 449 358 509 385 546 c 0
 406 576 449 618 512 671 c 1
 477 727 419 767 339 792 c 1
 366 855 415 917 487 979 c 1
 616 1092 761 1149 921 1149 c 0
 1071 1149 1178 1102 1241 1008 c 0
 1296 927 1308 815 1278 673 c 2
 1201 310 l 2
527 110 m 0
 552 110 574 124 593 152 c 0
 602 165 608 179 611 195 c 1
 618 238 609 265 585 276 c 0
 578 279 572 280 564 280 c 0
 533 280 511 260 499 220 c 0
 497 215 496 210 494 204 c 0
 481 141 492 110 527 110 c 0
1099 -22 m 0
 1159 -25 1197 -48 1214 -92 c 0
 1224 -116 1225 -145 1218 -178 c 0
 1217 -185 1215 -191 1213 -198 c 0
 1206 -223 1190 -245 1165 -265 c 1
 1267 -246 1344 -196 1399 -113 c 0
 1415 -88 1428 -62 1437 -34 c 1
 1604 -48 l 1
 1582 -137 1533 -217 1456 -286 c 1
 1416 -319 l 1
 1356 -364 1289 -393 1218 -408 c 0
 1188 -414 1156 -417 1125 -417 c 0
 997 -417 919 -378 890 -300 c 0
 885 -282 l 0
 880 -256 880 -228 886 -199 c 0
 900 -138 930 -91 977 -58 c 0
 1010 -34 1047 -22 1089 -22 c 0
 1099 -22 l 0
1021 -235 m 1
 1040 -237 l 1
 1063 -235 1080 -224 1093 -204 c 0
 1094 -201 1096 -199 1097 -196 c 1
 1102 -176 l 1
 1103 -154 1094 -140 1076 -133 c 0
 1075 -133 1073 -133 1072 -132 c 2
 1050 -130 l 1
 1031 -136 l 2
 1021 -140 1014 -146 1007 -155 c 1
 998 -171 l 1
 992 -191 l 1
 990 -212 1000 -227 1021 -235 c 1
EndSplineSet
Substitution: 0 65534 'nds0' uni0E0D.descless
Substitution: 0 65534 'ndsc' uni0E0D.descless
EndChar
StartChar: uni0E0E
Encoding: 135 3598 137
Width: 1375
Flags: HW
AnchorPoint: "BelowBase" 1129.71 -453 basechar 0
Fore
1146 657 m 2
 1184 838 1124 929 965 929 c 0
 859 929 774 896 711 831 c 1
 777 795 817 739 831 663 c 1
 826 661 789 628 720 563 c 0
 680 526 650 463 632 376 c 2
 616 303 l 2
 593 194 563 119 526 78 c 0
 519 70 510 63 502 56 c 0
 449 15 396 -6 340 -9 c 0
 333 -10 322 -10 307 -10 c 0
 233 -10 182 18 154 73 c 0
 144 91 139 111 136 133 c 0
 135 158 136 182 142 206 c 0
 154 264 181 310 223 344 c 0
 261 375 301 391 343 391 c 0
 356 392 368 390 379 386 c 0
 392 381 402 373 409 363 c 1
 414 384 l 2
 429 455 449 509 476 546 c 0
 497 576 540 618 603 671 c 1
 568 727 510 767 430 792 c 1
 457 855 506 917 578 979 c 1
 707 1092 852 1149 1012 1149 c 0
 1162 1149 1269 1102 1332 1008 c 0
 1387 927 1399 815 1369 673 c 2
 1139 -410 l 1
 919 -410 l 1
 877 -321 825 -258 765 -220 c 1
 705 -303 637 -361 565 -395 c 1
 562 -396 560 -397 557 -398 c 0
 509 -419 457 -430 401 -430 c 0
 315 -430 256 -405 225 -355 c 0
 224 -354 222 -352 222 -350 c 0
 206 -323 202 -291 210 -255 c 0
 214 -235 222 -214 233 -193 c 0
 265 -134 310 -85 371 -47 c 0
 393 -34 415 -23 437 -16 c 0
 486 1 538 10 591 10 c 0
 640 10 688 3 735 -12 c 1
 850 142 l 1
 975 88 l 1
 864 -67 l 1
 894 -80 926 -103 959 -137 c 0
 964 -144 969 -150 973 -155 c 1
 1146 657 l 2
312 110 m 0
 347 110 372 141 385 204 c 0
 395 249 386 274 358 279 c 0
 356 280 352 280 349 280 c 0
 320 280 296 262 277 226 c 0
 272 217 268 206 264 195 c 0
 257 159 263 133 285 118 c 0
 293 113 302 110 312 110 c 0
401 -252 m 0
 407 -266 421 -273 441 -273 c 0
 465 -273 496 -263 535 -243 c 0
 550 -236 571 -218 600 -187 c 0
 613 -174 622 -163 628 -154 c 1
 614 -139 591 -132 558 -132 c 0
 555 -132 555 -132 551 -132 c 0
 514 -134 479 -145 447 -164 c 1
 427 -178 412 -196 403 -218 c 1
 399 -237 l 1
 399 -242 399 -247 401 -252 c 0
EndSplineSet
EndChar
StartChar: uni0E0F
Encoding: 136 3599 138
Width: 1375
Flags: HW
AnchorPoint: "BelowBase" 1128.71 -453 basechar 0
Fore
311 110 m 0
 346 110 371 141 384 204 c 0
 394 249 385 274 357 279 c 0
 355 280 351 280 348 280 c 0
 319 280 295 262 276 226 c 0
 271 217 267 206 263 195 c 0
 256 159 262 133 284 118 c 0
 292 113 301 110 311 110 c 0
1145 657 m 1
 1182 838 1122 929 964 929 c 0
 858 929 773 896 710 831 c 1
 776 795 816 739 830 663 c 1
 826 661 788 628 719 563 c 0
 679 526 649 463 631 376 c 2
 615 303 l 2
 592 194 562 119 525 78 c 0
 518 70 509 63 501 56 c 0
 448 15 395 -6 339 -9 c 0
 332 -10 321 -10 306 -10 c 0
 232 -10 181 18 153 73 c 0
 143 91 138 111 135 133 c 0
 134 158 135 182 141 206 c 0
 153 264 180 310 222 344 c 0
 260 375 300 391 342 391 c 0
 355 392 367 390 378 386 c 0
 391 381 401 373 408 363 c 1
 413 384 l 2
 428 455 448 509 475 546 c 0
 496 576 539 618 602 671 c 1
 567 727 509 767 429 792 c 1
 456 855 505 917 577 979 c 1
 706 1092 851 1149 1011 1149 c 0
 1161 1149 1268 1102 1331 1008 c 0
 1386 927 1398 815 1368 673 c 2
 1138 -410 l 5
 921 -410 l 1
 922 -314 901 -260 858 -247 c 1
 841 -245 l 1
 810 -245 767 -283 711 -360 c 0
 702 -374 692 -388 682 -403 c 1
 660 -343 641 -303 624 -284 c 0
 615 -276 l 1
 573 -323 533 -359 492 -384 c 0
 443 -414 386 -429 319 -429 c 0
 303 -429 287 -428 271 -426 c 0
 211 -419 170 -390 149 -341 c 0
 134 -310 132 -274 140 -234 c 0
 156 -162 201 -103 278 -57 c 0
 342 -19 410 0 482 1 c 1
 532 -3 l 1
 564 -8 594 -17 623 -32 c 1
 741 119 l 1
 859 73 l 1
 741 -90 l 1
 747 -97 753 -107 758 -122 c 1
 793 -77 827 -44 859 -23 c 0
 872 -14 883 -10 891 -10 c 0
 920 -10 954 -27 992 -61 c 1
 1145 657 l 1
301 -268 m 0
 310 -285 327 -293 349 -293 c 0
 372 -293 404 -283 444 -263 c 1
 459 -254 480 -235 506 -205 c 0
 518 -192 527 -181 531 -173 c 1
 519 -159 491 -152 446 -152 c 0
 411 -152 378 -160 350 -176 c 0
 331 -187 316 -203 304 -224 c 1
 297 -245 l 1
 296 -252 297 -258 299 -263 c 0
 300 -265 300 -267 301 -268 c 0
EndSplineSet
EndChar
StartChar: uni0E10
Encoding: 137 3600 139
Width: 1130
Flags: HW
Fore
921 529 m 2
 928 562 919 587 892 603 c 1
 820 636 l 1
 719 672 551 707 318 742 c 1
 354 829 397 901 444 957 c 0
 494 1016 556 1063 630 1099 c 0
 698 1132 778 1149 873 1149 c 0
 950 1149 1018 1134 1078 1103 c 0
 1130 1077 1186 1064 1248 1064 c 0
 1275 1064 1301 1067 1325 1072 c 1
 1241 862 l 1
 1223 858 1204 856 1181 856 c 0
 1160 855 1137 857 1115 861 c 0
 1075 867 1044 876 1020 889 c 0
 965 918 904 935 838 940 c 2
 818 941 l 2
 745 941 696 925 670 892 c 1
 864 853 992 815 1053 778 c 0
 1137 728 1169 660 1151 573 c 2
 1088 279 l 2
 1047 86 934 -10 747 -10 c 0
 560 -10 488 88 529 283 c 2
 530 289 l 1
 518 278 504 271 488 266 c 0
 473 262 458 260 445 260 c 0
 406 261 375 277 350 308 c 0
 323 341 316 385 328 440 c 0
 348 537 399 603 480 639 c 0
 505 650 532 657 560 661 c 0
 645 672 709 655 753 610 c 1
 788 569 797 510 781 433 c 2
 749 283 l 2
 739 234 754 210 794 210 c 0
 834 210 859 233 868 279 c 2
 921 529 l 2
530 541 m 0
 506 541 484 528 466 502 c 0
 456 489 450 475 447 460 c 0
 446 456 l 0
 437 405 450 377 485 373 c 0
 488 372 491 372 494 372 c 0
 531 375 554 400 564 448 c 0
 566 454 566 454 567 461 c 0
 578 514 566 541 530 541 c 0
679 -319 m 1
 689 -273 l 1
 661 -276 l 1
 628 -275 602 -265 583 -246 c 0
 561 -226 553 -200 560 -168 c 0
 563 -153 569 -139 579 -124 c 1
 593 -95 620 -72 661 -53 c 0
 687 -40 714 -34 739 -34 c 0
 795 -34 836 -45 864 -66 c 0
 892 -88 903 -128 894 -187 c 0
 893 -198 890 -210 888 -223 c 2
 822 -530 l 1
 639 -530 l 1
 630 -480 607 -453 569 -450 c 1
 539 -450 501 -473 456 -520 c 0
 453 -524 453 -524 448 -529 c 1
 432 -496 405 -459 368 -418 c 1
 334 -453 294 -483 248 -508 c 1
 202 -530 158 -541 114 -541 c 0
 72 -541 38 -531 13 -510 c 0
 2 -501 -7 -491 -15 -478 c 0
 -24 -463 -26 -441 -20 -414 c 0
 -13 -383 1 -353 22 -326 c 0
 31 -313 41 -303 52 -294 c 1
 103 -255 162 -235 230 -234 c 0
 271 -234 303 -239 326 -249 c 0
 343 -256 343 -256 347 -258 c 1
 387 -217 l 2
 393 -210 400 -202 407 -192 c 1
 517 -239 l 1
 460 -306 l 1
 466 -309 477 -319 493 -336 c 1
 524 -300 562 -282 605 -282 c 0
 636 -282 662 -294 679 -319 c 1
709 -106 m 1
 686 -106 668 -116 655 -136 c 0
 651 -142 649 -148 647 -155 c 0
 646 -162 645 -168 646 -174 c 0
 650 -193 663 -204 683 -205 c 0
 687 -205 l 0
 709 -205 726 -195 737 -176 c 1
 743 -158 l 1
 748 -131 741 -114 720 -108 c 2
 709 -106 l 1
111 -418 m 0
 120 -429 131 -435 146 -435 c 0
 155 -435 164 -433 175 -430 c 0
 184 -427 195 -423 207 -418 c 0
 220 -412 240 -397 264 -374 c 1
 270 -369 273 -365 277 -360 c 1
 266 -351 247 -346 220 -346 c 0
 193 -346 168 -351 145 -362 c 1
 124 -374 112 -387 109 -402 c 0
 107 -408 108 -413 111 -418 c 0
EndSplineSet
Substitution: 0 65534 'nds0' uni0E10.descless
Substitution: 0 65534 'ndsc' uni0E10.descless
EndChar
StartChar: uni0E11
Encoding: 138 3601 140
Width: 1700
Flags: HW
Fore
460 588 m 1
 479 586 l 1
 502 588 524 602 544 628 c 0
 551 637 557 645 560 652 c 1
 569 691 l 1
 572 719 562 739 539 750 c 0
 534 753 528 754 523 754 c 1
 507 751 l 1
 497 746 487 738 478 727 c 0
 468 715 458 700 449 681 c 0
 443 666 438 653 435 642 c 0
 430 614 438 596 460 588 c 1
645 0 m 1
 767 575 l 2
 777 623 827 680 914 745 c 0
 925 754 937 762 950 771 c 1
 954 806 950 845 936 887 c 0
 930 904 923 918 915 929 c 1
 804 857 703 857 612 929 c 1
 588 903 572 882 564 866 c 0
 563 865 562 863 562 862 c 1
 641 862 687 827 699 756 c 0
 703 729 702 702 696 674 c 0
 683 611 651 558 600 516 c 0
 552 477 499 457 438 457 c 0
 429 457 421 457 412 458 c 0
 346 464 302 500 282 567 c 0
 269 608 268 654 278 703 c 0
 281 716 285 729 289 741 c 0
 317 821 344 882 372 923 c 0
 390 948 411 974 435 999 c 0
 484 1048 540 1090 603 1124 c 0
 624 1135 643 1144 659 1149 c 1
 795 1041 l 1
 962 1149 l 1
 1005 1137 1042 1112 1076 1073 c 1
 1095 1049 l 2
 1126 1011 1146 959 1157 894 c 0
 1165 850 1164 809 1156 771 c 1
 1053 688 997 623 987 575 c 2
 952 410 l 1
 1351 990 l 1
 1402 1068 1466 1115 1542 1131 c 0
 1558 1134 1573 1136 1588 1136 c 0
 1607 1135 1626 1133 1642 1128 c 0
 1702 1110 1736 1067 1743 1000 c 0
 1746 973 1743 943 1736 910 c 2
 1543 0 l 1
 1323 0 l 1
 1463 659 l 2
 1474 710 1478 740 1475 749 c 0
 1474 753 1471 757 1466 761 c 0
 1462 764 1459 765 1455 765 c 1
 1440 761 l 1
 1426 753 l 1
 1422 750 1420 746 1418 742 c 1
 919 0 l 1
 645 0 l 1
EndSplineSet
EndChar
StartChar: uni0E12
Encoding: 139 3602 141
Width: 1850
Flags: HW
Fore
1317 677 m 2
 1264 430 l 1
 1322 359 1364 314 1387 293 c 0
 1419 264 1447 250 1471 250 c 0
 1478 250 1486 252 1493 255 c 0
 1512 263 1524 278 1531 299 c 0
 1533 306 1539 332 1548 377 c 2
 1710 1139 l 1
 1929 1139 l 1
 1733 218 l 2
 1713 121 1672 55 1611 21 c 0
 1572 -2 1531 -13 1488 -13 c 0
 1457 -13 1427 -7 1398 6 c 0
 1362 22 1298 75 1208 164 c 1
 1198 116 1171 75 1129 42 c 0
 1087 9 1040 -9 990 -10 c 2
 972 -10 l 1
 927 -7 891 7 867 32 c 1
 840 63 l 1
 840 65 838 67 837 68 c 0
 818 95 811 138 815 198 c 1
 822 249 l 1
 823 255 824 261 827 267 c 0
 850 344 890 404 947 447 c 0
 956 453 l 0
 988 474 1023 492 1061 507 c 1
 1094 664 l 2
 1109 734 1111 783 1102 810 c 0
 1089 849 1064 882 1029 909 c 1
 832 793 l 1
 692 909 l 1
 634 886 589 851 556 802 c 0
 529 761 509 711 496 650 c 0
 476 554 474 421 492 252 c 1
 493 234 l 1
 526 246 563 272 600 312 c 0
 613 326 623 338 629 349 c 1
 609 349 l 1
 587 353 567 363 550 378 c 0
 516 409 501 450 505 500 c 1
 513 547 l 1
 532 629 575 685 642 716 c 1
 672 735 710 744 757 744 c 0
 791 744 819 738 840 727 c 0
 903 693 924 622 901 515 c 0
 899 503 896 490 892 477 c 0
 854 339 774 220 652 120 c 1
 642 111 631 103 620 95 c 0
 563 52 511 21 464 0 c 1
 224 0 l 1
 247 108 l 2
 255 145 260 228 263 356 c 0
 265 510 275 627 292 706 c 0
 302 751 314 791 329 826 c 0
 375 937 449 1023 551 1084 c 0
 612 1121 676 1142 743 1149 c 1
 883 1033 l 1
 1080 1149 l 1
 1186 1124 1260 1070 1303 986 c 1
 1340 913 1345 810 1317 677 c 2
1036 317 m 1
 1022 317 1010 313 997 304 c 0
 970 285 952 257 943 219 c 0
 934 177 940 156 962 156 c 0
 983 156 998 167 1007 190 c 0
 1010 198 1013 209 1016 222 c 2
 1036 317 l 1
701 624 m 1
 682 620 l 1
 661 613 648 605 641 597 c 0
 625 580 615 563 610 546 c 0
 604 525 604 506 609 489 c 0
 616 468 629 456 648 455 c 0
 667 454 683 461 698 476 c 0
 710 488 719 508 728 537 c 0
 738 567 739 589 733 602 c 1
 726 615 715 622 701 624 c 1
EndSplineSet
EndChar
StartChar: uni0E13
Encoding: 140 3603 142
Width: 1900
Flags: HW
Fore
1235 673 m 2
 1172 377 l 2
 1160 322 1156 290 1157 281 c 0
 1157 270 1163 261 1175 255 c 0
 1182 252 1188 250 1196 250 c 0
 1233 251 1304 292 1407 373 c 0
 1410 375 1410 375 1478 430 c 1
 1629 1139 l 1
 1848 1139 l 1
 1714 507 l 1
 1760 500 1797 482 1825 453 c 0
 1869 407 1885 345 1876 267 c 1
 1866 220 l 1
 1848 161 1823 114 1792 79 c 0
 1786 73 1786 73 1780 68 c 0
 1730 23 1675 -2 1612 -8 c 2
 1584 -10 l 1
 1545 -7 l 1
 1503 0 1471 16 1449 42 c 0
 1421 75 1412 116 1422 164 c 1
 1294 75 1208 22 1164 6 c 0
 1131 -7 1097 -13 1066 -13 c 0
 1023 -13 988 -2 957 21 c 0
 912 55 899 121 919 218 c 2
 1013 657 l 2
 1051 838 991 929 832 929 c 0
 726 929 641 896 578 831 c 1
 644 795 684 739 698 663 c 1
 694 661 656 628 587 563 c 0
 547 526 517 463 499 376 c 2
 496 363 l 1
 517 382 543 391 573 391 c 0
 592 392 610 388 628 380 c 0
 647 371 662 359 674 344 c 0
 702 310 709 264 697 206 c 0
 693 182 684 158 671 133 c 0
 642 76 598 35 540 10 c 0
 508 -3 475 -10 440 -10 c 0
 391 -9 355 -3 331 9 c 0
 310 20 291 35 273 56 c 0
 243 90 236 156 254 254 c 0
 256 269 260 285 263 303 c 2
 277 366 l 2
 294 449 316 509 343 546 c 0
 364 576 407 618 470 671 c 1
 435 727 377 767 297 792 c 1
 324 855 373 917 445 979 c 1
 574 1092 719 1149 879 1149 c 0
 1029 1149 1136 1102 1199 1008 c 0
 1253 928 1265 816 1235 673 c 2
1658 317 m 1
 1638 222 l 2
 1631 187 1633 166 1646 160 c 0
 1650 157 1656 156 1664 156 c 0
 1686 156 1702 177 1711 219 c 0
 1718 257 1712 285 1693 304 c 0
 1684 313 1672 317 1658 317 c 1
485 110 m 0
 510 110 532 124 551 152 c 0
 560 165 566 179 569 195 c 1
 576 238 567 265 543 276 c 0
 536 279 530 280 522 280 c 0
 491 280 469 260 457 220 c 0
 455 215 454 210 452 204 c 0
 439 141 450 110 485 110 c 0
EndSplineSet
EndChar
StartChar: uni0E14
Encoding: 141 3604 143
Width: 1330
Flags: HW
Fore
712 624 m 1
 674 618 647 599 630 568 c 0
 625 561 623 553 620 546 c 1
 616 517 l 1
 615 485 626 465 647 457 c 0
 651 456 655 455 659 455 c 2
 679 457 l 1
 706 464 725 491 739 537 c 1
 747 573 l 1
 749 603 738 620 712 624 c 1
462 0 m 1
 222 0 l 1
 245 108 l 2
 253 145 258 225 259 346 c 0
 260 492 268 603 285 680 c 0
 294 723 306 763 321 798 c 0
 367 909 441 995 543 1056 c 0
 628 1107 721 1137 821 1146 c 0
 844 1148 869 1149 896 1149 c 1
 966 1146 l 1
 1049 1137 1122 1113 1184 1074 c 0
 1235 1043 1272 1005 1295 958 c 0
 1326 898 1337 828 1327 749 c 0
 1325 727 1320 703 1315 677 c 2
 1171 0 l 1
 951 0 l 1
 1092 664 l 2
 1103 715 1103 755 1094 782 c 0
 1074 839 1031 881 965 908 c 0
 929 922 892 929 853 929 c 0
 778 929 704 905 633 856 c 0
 595 830 568 803 549 774 c 0
 521 733 501 684 489 627 c 0
 471 543 471 426 487 277 c 1
 491 234 l 1
 524 246 561 272 598 312 c 0
 611 326 621 338 627 349 c 1
 607 349 l 1
 585 353 565 363 548 378 c 0
 514 409 499 450 503 500 c 1
 511 547 l 1
 530 629 573 685 640 716 c 1
 670 735 708 744 755 744 c 0
 789 744 817 738 838 727 c 0
 901 693 922 623 900 516 c 0
 897 503 894 490 890 477 c 0
 852 339 772 220 650 120 c 1
 640 111 629 103 618 95 c 0
 561 52 509 21 462 0 c 1
EndSplineSet
EndChar
StartChar: uni0E15
Encoding: 142 3605 144
Width: 1330
Flags: HW
Fore
712 624 m 1
 674 618 647 599 630 568 c 0
 625 561 623 553 620 546 c 1
 616 517 l 1
 615 485 626 465 647 457 c 0
 651 456 655 455 659 455 c 2
 679 457 l 1
 706 464 725 491 739 537 c 1
 747 573 l 1
 749 603 738 620 712 624 c 1
462 0 m 1
 222 0 l 1
 245 108 l 2
 253 145 258 228 261 356 c 0
 263 510 273 627 290 706 c 0
 300 751 312 791 327 826 c 0
 373 937 447 1023 549 1084 c 0
 610 1121 674 1142 741 1149 c 1
 881 1033 l 1
 1078 1149 l 1
 1184 1124 1258 1070 1301 986 c 1
 1338 913 1343 810 1315 677 c 2
 1171 0 l 1
 951 0 l 1
 1092 664 l 2
 1107 734 1109 783 1100 810 c 0
 1087 849 1062 882 1027 909 c 1
 830 793 l 1
 690 909 l 1
 632 886 587 851 554 802 c 0
 527 761 507 711 494 650 c 0
 474 554 472 421 490 252 c 1
 491 234 l 1
 524 246 561 272 598 312 c 0
 611 326 621 338 627 349 c 1
 607 349 l 1
 585 353 565 363 548 378 c 0
 514 409 499 450 503 500 c 1
 511 547 l 1
 530 629 573 685 640 716 c 1
 670 735 708 744 755 744 c 0
 789 744 817 738 838 727 c 0
 901 693 922 623 900 516 c 0
 897 503 894 490 890 477 c 0
 852 339 772 220 650 120 c 1
 640 111 629 103 618 95 c 0
 561 52 509 21 462 0 c 1
EndSplineSet
EndChar
StartChar: uni0E16
Encoding: 143 3606 145
Width: 1240
Flags: HW
Fore
488 376 m 2
 485 363 l 1
 506 382 532 391 562 391 c 0
 581 392 599 388 617 380 c 0
 636 371 651 359 663 344 c 0
 691 310 698 264 686 206 c 0
 682 182 673 158 660 133 c 0
 631 76 587 35 529 10 c 0
 497 -3 464 -10 429 -10 c 0
 380 -9 344 -3 320 9 c 0
 299 20 280 35 262 56 c 0
 232 90 225 156 243 254 c 0
 245 269 249 285 252 303 c 2
 266 366 l 2
 283 449 305 509 332 546 c 0
 353 576 396 618 459 671 c 1
 424 727 366 767 286 792 c 1
 313 855 362 917 434 979 c 1
 563 1092 708 1149 868 1149 c 0
 1018 1149 1125 1102 1188 1008 c 0
 1243 927 1255 815 1225 673 c 2
 1082 0 l 1
 862 0 l 1
 1002 657 l 2
 1040 838 980 929 821 929 c 0
 715 929 630 896 567 831 c 1
 633 795 673 739 687 663 c 1
 682 661 645 628 576 563 c 0
 536 526 506 463 488 376 c 2
474 110 m 0
 499 110 521 124 540 152 c 0
 549 165 555 179 558 195 c 1
 565 238 556 265 532 276 c 0
 525 279 519 280 511 280 c 0
 480 280 458 260 446 220 c 1
 441 204 l 1
 428 141 439 110 474 110 c 0
EndSplineSet
EndChar
StartChar: uni0E17
Encoding: 144 3607 146
Width: 1350
Flags: HW
Fore
625 410 m 1
 1024 990 l 1
 1075 1068 1139 1115 1215 1131 c 0
 1231 1134 1246 1136 1261 1136 c 0
 1280 1135 1299 1133 1315 1128 c 0
 1375 1110 1409 1067 1416 1000 c 0
 1419 973 1416 943 1409 910 c 2
 1216 0 l 1
 996 0 l 1
 1136 659 l 2
 1147 710 1151 740 1148 749 c 0
 1147 753 1144 757 1139 761 c 0
 1135 764 1132 765 1128 765 c 1
 1113 761 l 2
 1104 758 1097 751 1091 742 c 2
 592 0 l 1
 318 0 l 1
 479 759 l 1
 470 754 453 752 428 752 c 2
 417 752 l 2
 389 755 364 768 342 792 c 0
 314 823 305 867 317 922 c 0
 322 947 332 974 345 1004 c 0
 366 1047 400 1084 450 1114 c 0
 488 1137 531 1149 578 1149 c 0
 633 1148 674 1130 703 1095 c 0
 739 1052 746 980 725 881 c 2
 625 410 l 1
520 1026 m 0
 501 1026 482 1015 462 994 c 1
 450 977 441 960 437 941 c 0
 433 920 435 902 442 886 c 0
 451 867 466 857 485 857 c 0
 502 857 519 865 533 882 c 1
 543 895 552 916 558 945 c 0
 564 975 564 996 556 1008 c 128
 549 1020 537 1026 520 1026 c 0
EndSplineSet
EndChar
StartChar: uni0E18
Encoding: 145 3608 147
Width: 1250
Flags: HW
Fore
916 529 m 2
 923 562 914 587 887 603 c 1
 815 636 l 1
 714 672 546 707 313 742 c 1
 349 829 392 901 439 957 c 0
 489 1016 551 1063 625 1099 c 0
 693 1132 773 1149 868 1149 c 0
 945 1149 1013 1134 1073 1103 c 0
 1125 1077 1181 1064 1243 1064 c 0
 1270 1064 1296 1067 1320 1072 c 1
 1236 862 l 1
 1218 858 1199 856 1176 856 c 0
 1155 855 1132 857 1110 861 c 0
 1070 867 1039 876 1015 889 c 0
 960 918 899 935 833 940 c 2
 813 941 l 2
 740 941 691 925 665 892 c 1
 859 853 987 815 1048 778 c 0
 1132 728 1164 660 1146 573 c 2
 1088 303 l 2
 1060 168 992 77 886 32 c 0
 819 4 731 -10 622 -10 c 0
 409 -10 303 68 305 223 c 0
 306 250 310 281 317 314 c 2
 388 650 l 1
 608 650 l 1
 537 314 l 2
 527 270 549 239 602 221 c 0
 621 214 644 211 669 210 c 1
 713 212 l 1
 772 220 817 240 847 271 c 0
 859 284 868 299 871 314 c 2
 916 529 l 2
EndSplineSet
EndChar
StartChar: uni0E19
Encoding: 146 3609 148
Width: 1400
Flags: HW
Fore
525 776 m 1
 502 757 474 748 441 748 c 0
 386 748 349 772 331 821 c 0
 318 853 316 890 325 933 c 0
 330 957 339 981 350 1006 c 0
 368 1046 402 1081 449 1110 c 0
 491 1136 533 1149 575 1149 c 0
 652 1149 709 1129 745 1089 c 0
 780 1050 791 996 776 927 c 2
 659 377 l 2
 647 322 643 290 644 281 c 1
 649 267 l 1
 652 262 656 258 662 255 c 0
 669 252 675 250 684 250 c 0
 732 251 813 290 925 367 c 0
 955 388 984 409 1010 430 c 1
 1161 1139 l 1
 1381 1139 l 1
 1247 507 l 1
 1293 500 1330 482 1358 453 c 0
 1396 414 1409 355 1400 278 c 0
 1399 267 1397 255 1395 244 c 0
 1376 154 1349 95 1316 66 c 0
 1265 22 1207 -3 1143 -9 c 0
 1134 -10 1126 -10 1117 -10 c 2
 1077 -7 l 1
 1035 0 1003 16 982 42 c 0
 954 75 945 116 955 164 c 1
 897 123 814 78 704 28 c 1
 651 6 l 1
 618 -7 584 -13 553 -13 c 0
 510 -13 475 -2 444 21 c 0
 399 55 386 121 406 218 c 2
 525 776 l 1
525 1028 m 0
 501 1028 479 1014 460 987 c 1
 446 962 l 1
 444 956 442 950 440 943 c 0
 436 906 443 881 463 867 c 0
 471 862 480 859 490 859 c 0
 525 862 549 887 559 936 c 0
 560 941 560 941 561 947 c 0
 573 1001 561 1028 525 1028 c 0
1191 317 m 1
 1171 222 l 2
 1164 187 1166 166 1179 160 c 0
 1183 157 1189 156 1197 156 c 0
 1219 156 1235 177 1244 219 c 0
 1251 257 1245 285 1226 304 c 0
 1217 313 1205 317 1191 317 c 1
EndSplineSet
EndChar
StartChar: uni0E1A
Encoding: 147 3610 149
Width: 1300
Flags: HW
Fore
628 379 m 2
 608 288 641 233 726 215 c 0
 744 212 764 210 787 210 c 0
 894 211 964 250 998 327 c 0
 1004 342 1010 360 1014 379 c 2
 1175 1139 l 1
 1395 1139 l 1
 1211 273 l 2
 1184 147 1111 64 991 24 c 0
 924 1 839 -10 735 -10 c 0
 486 -10 366 67 377 222 c 0
 378 237 381 252 384 268 c 2
 488 759 l 1
 472 753 453 750 432 749 c 0
 400 749 372 756 348 770 c 0
 336 777 326 785 318 795 c 0
 290 830 283 874 294 929 c 0
 299 952 308 978 321 1005 c 0
 341 1050 376 1088 425 1117 c 0
 453 1134 480 1144 507 1148 c 1
 556 1151 l 1
 624 1151 674 1135 708 1104 c 0
 710 1102 713 1100 715 1097 c 0
 745 1062 753 1000 738 909 c 1
 724 835 l 1
 628 379 l 2
497 1028 m 0
 472 1028 451 1015 432 988 c 0
 422 974 416 959 412 943 c 1
 408 906 415 880 435 866 c 0
 442 861 451 859 461 859 c 0
 497 862 521 887 531 935 c 0
 532 941 532 941 534 948 c 0
 545 1001 533 1028 497 1028 c 0
EndSplineSet
EndChar
StartChar: uni0E1B
Encoding: 148 3611 150
Width: 1300
Flags: HW
AnchorPoint: "AboveBase" 1121.81 1227 basechar 0
Fore
628 379 m 2
 608 288 641 233 726 215 c 0
 744 212 764 210 787 210 c 0
 894 211 964 250 998 327 c 0
 1004 342 1010 360 1014 379 c 2
 1248 1480 l 5
 1468 1480 l 1
 1211 273 l 2
 1184 147 1111 64 991 24 c 0
 924 1 839 -10 735 -10 c 0
 486 -10 366 67 377 222 c 0
 378 237 381 252 384 268 c 2
 488 759 l 1
 472 753 453 750 432 749 c 0
 400 749 372 756 348 770 c 0
 336 777 326 785 318 795 c 0
 290 830 283 874 294 929 c 0
 299 952 308 978 321 1005 c 0
 341 1050 376 1088 425 1117 c 0
 453 1134 480 1144 507 1148 c 1
 556 1151 l 1
 624 1151 674 1135 708 1104 c 0
 710 1102 713 1100 715 1097 c 0
 745 1062 753 1000 738 909 c 1
 724 835 l 1
 628 379 l 2
497 1028 m 0
 472 1028 451 1015 432 988 c 0
 422 974 416 959 412 943 c 1
 408 906 415 880 435 866 c 0
 442 861 451 859 461 859 c 0
 497 862 521 887 531 935 c 0
 532 941 532 941 534 948 c 0
 545 1001 533 1028 497 1028 c 0
EndSplineSet
EndChar
StartChar: uni0E1C
Encoding: 149 3612 151
Width: 1200
Flags: HW
Fore
310 835 m 2
 333 942 361 1017 393 1059 c 0
 405 1074 418 1086 431 1097 c 0
 474 1130 531 1148 601 1151 c 1
 650 1150 l 2
 653 1149 657 1149 661 1148 c 0
 709 1141 745 1114 769 1069 c 0
 780 1048 786 1027 787 1005 c 0
 788 978 786 953 781 930 c 1
 768 888 l 1
 753 851 730 820 700 795 c 0
 664 765 619 750 567 749 c 0
 548 749 533 752 519 757 c 2
 514 759 l 1
 410 268 l 2
 403 235 413 214 442 205 c 0
 448 203 454 202 460 202 c 0
 491 202 514 215 527 242 c 0
 532 250 535 259 537 268 c 2
 628 698 l 1
 848 698 l 1
 757 268 l 2
 750 236 761 215 788 205 c 0
 794 203 801 202 807 202 c 0
 833 202 853 213 867 236 c 0
 873 245 877 256 880 268 c 2
 1065 1139 l 1
 1285 1139 l 1
 1100 268 l 2
 1076 156 1030 77 962 30 c 0
 923 3 877 -10 826 -10 c 0
 755 -10 711 -9 696 -6 c 0
 648 1 619 21 608 54 c 1
 573 16 527 -5 468 -9 c 0
 459 -10 430 -10 379 -10 c 0
 247 -10 181 51 180 173 c 0
 179 202 183 233 190 268 c 2
 310 835 l 2
621 1028 m 0
 585 1028 561 1001 550 948 c 1
 544 911 l 1
 546 888 l 1
 551 870 564 860 585 859 c 1
 614 859 637 876 656 911 c 0
 661 922 665 932 668 943 c 0
 676 978 669 1004 648 1019 c 0
 640 1025 631 1028 621 1028 c 0
EndSplineSet
EndChar
StartChar: uni0E1D
Encoding: 150 3613 152
Width: 1200
Flags: HW
AnchorPoint: "AboveBase" 1011.81 1227 basechar 0
Fore
310 835 m 2
 333 942 361 1017 393 1059 c 0
 405 1074 418 1086 431 1097 c 0
 474 1130 531 1148 601 1151 c 1
 650 1150 l 2
 653 1149 657 1149 661 1148 c 0
 709 1141 745 1114 769 1069 c 0
 780 1048 786 1027 787 1005 c 0
 788 978 786 953 781 930 c 1
 768 888 l 1
 753 851 730 820 700 795 c 0
 664 765 619 750 567 749 c 0
 548 749 533 752 519 757 c 2
 514 759 l 1
 410 268 l 2
 403 235 413 214 442 205 c 0
 448 203 454 202 460 202 c 0
 491 202 514 215 527 242 c 0
 532 250 535 259 537 268 c 2
 628 698 l 1
 848 698 l 1
 757 268 l 2
 750 236 761 215 788 205 c 0
 794 203 801 202 807 202 c 0
 833 202 853 213 867 236 c 0
 873 245 877 256 880 268 c 2
 1138 1480 l 1
 1358 1480 l 1
 1100 268 l 2
 1076 156 1030 77 962 30 c 0
 923 3 877 -10 826 -10 c 0
 755 -10 711 -9 696 -6 c 0
 648 1 619 21 608 54 c 1
 573 16 527 -5 468 -9 c 0
 459 -10 430 -10 379 -10 c 0
 247 -10 181 51 180 173 c 0
 179 202 183 233 190 268 c 2
 310 835 l 2
621 1028 m 0
 585 1028 561 1001 550 948 c 1
 544 911 l 1
 546 888 l 1
 551 870 564 860 585 859 c 1
 614 859 637 876 656 911 c 0
 661 922 665 932 668 943 c 0
 676 978 669 1004 648 1019 c 0
 640 1025 631 1028 621 1028 c 0
EndSplineSet
EndChar
StartChar: uni0E1E
Encoding: 151 3614 153
Width: 1350
Flags: HW
Fore
354 268 m 2
 458 759 l 1
 442 753 423 750 402 749 c 0
 370 749 342 756 318 770 c 0
 306 777 296 785 288 795 c 0
 260 830 253 874 264 929 c 0
 269 952 278 978 291 1005 c 0
 311 1050 346 1088 395 1117 c 0
 423 1134 450 1144 477 1148 c 1
 526 1151 l 1
 594 1151 644 1135 678 1104 c 0
 680 1102 683 1100 685 1097 c 0
 715 1062 723 1000 708 909 c 1
 694 835 l 1
 574 268 l 2
 567 235 577 214 606 205 c 0
 612 203 618 202 624 202 c 0
 655 202 678 215 691 242 c 0
 696 250 699 259 701 268 c 2
 865 1039 l 1
 1085 1039 l 1
 921 268 l 2
 914 236 925 215 952 205 c 0
 958 203 965 202 971 202 c 0
 997 202 1017 213 1031 236 c 0
 1037 245 1041 256 1044 268 c 2
 1229 1139 l 1
 1449 1139 l 1
 1264 268 l 2
 1240 156 1194 77 1126 30 c 0
 1087 3 1041 -10 990 -10 c 0
 919 -10 875 -9 860 -6 c 0
 812 1 783 21 772 54 c 1
 737 16 691 -5 632 -9 c 0
 623 -10 594 -10 543 -10 c 0
 411 -10 345 51 344 173 c 0
 343 202 347 233 354 268 c 2
467 1028 m 0
 442 1028 421 1015 402 988 c 0
 392 974 386 959 382 943 c 1
 378 906 385 880 405 866 c 0
 412 861 421 859 431 859 c 0
 467 862 491 887 501 935 c 0
 502 941 502 941 504 948 c 0
 515 1001 503 1028 467 1028 c 0
EndSplineSet
EndChar
StartChar: uni0E1F
Encoding: 152 3615 154
Width: 1450
Flags: HW
AnchorPoint: "AboveBase" 1226.81 1227 basechar 0
Fore
405 268 m 2
 509 759 l 1
 493 753 474 750 453 749 c 0
 421 749 393 756 369 770 c 0
 357 777 347 785 339 795 c 0
 311 830 304 874 315 929 c 0
 320 952 329 978 342 1005 c 0
 362 1050 397 1088 446 1117 c 0
 474 1134 501 1144 528 1148 c 1
 577 1151 l 1
 645 1151 695 1135 729 1104 c 0
 731 1102 734 1100 736 1097 c 0
 766 1062 774 1000 759 909 c 1
 745 835 l 1
 625 268 l 2
 618 235 628 214 657 205 c 0
 663 203 669 202 675 202 c 0
 706 202 729 215 742 242 c 0
 747 250 750 259 752 268 c 2
 916 1039 l 1
 1136 1039 l 1
 972 268 l 2
 965 236 976 215 1003 205 c 0
 1009 203 1016 202 1022 202 c 0
 1048 202 1068 213 1082 236 c 0
 1088 245 1092 256 1095 268 c 2
 1353 1480 l 1
 1573 1480 l 1
 1315 268 l 2
 1291 156 1245 77 1177 30 c 0
 1138 3 1092 -10 1041 -10 c 0
 970 -10 926 -9 911 -6 c 0
 863 1 834 21 823 54 c 1
 788 16 742 -5 683 -9 c 0
 674 -10 645 -10 594 -10 c 0
 462 -10 396 51 395 173 c 0
 394 202 398 233 405 268 c 2
518 1028 m 0
 493 1028 472 1015 453 988 c 0
 443 974 437 959 433 943 c 1
 429 906 436 880 456 866 c 0
 463 861 472 859 482 859 c 0
 518 862 542 887 552 935 c 0
 553 941 553 941 555 948 c 0
 566 1001 554 1028 518 1028 c 0
EndSplineSet
EndChar
StartChar: uni0E20
Encoding: 153 3616 155
Width: 1350
Flags: HW
Fore
618 376 m 2
 602 303 l 2
 579 194 549 119 512 78 c 0
 505 70 496 63 488 56 c 0
 435 15 382 -6 326 -9 c 0
 319 -10 308 -10 293 -10 c 0
 219 -10 168 18 140 73 c 0
 130 91 125 111 122 133 c 0
 121 158 122 182 128 206 c 0
 140 264 167 310 209 344 c 0
 247 375 287 391 329 391 c 0
 342 392 354 390 365 386 c 0
 378 381 388 373 395 363 c 1
 400 384 l 2
 415 455 435 509 462 546 c 0
 483 576 526 618 589 671 c 1
 554 727 496 767 416 792 c 1
 443 855 492 917 564 979 c 1
 693 1092 838 1149 998 1149 c 0
 1148 1149 1255 1102 1318 1008 c 0
 1373 927 1385 815 1355 673 c 2
 1212 0 l 1
 992 0 l 1
 1132 657 l 2
 1170 838 1110 929 951 929 c 0
 845 929 760 896 697 831 c 1
 763 795 803 739 817 663 c 1
 812 661 775 628 706 563 c 0
 666 526 636 463 618 376 c 2
298 110 m 0
 333 110 358 141 371 204 c 0
 381 249 372 274 344 279 c 2
 335 280 l 2
 306 280 282 262 263 226 c 0
 258 217 254 206 250 195 c 0
 243 159 249 133 271 118 c 0
 279 113 288 110 298 110 c 0
EndSplineSet
EndChar
StartChar: uni0E21
Encoding: 154 3617 156
Width: 1350
Flags: HW
Fore
1395 1139 m 1
 1199 218 l 2
 1179 121 1138 55 1077 21 c 0
 1038 -2 997 -13 954 -13 c 0
 923 -13 893 -7 864 6 c 0
 854 10 840 17 821 28 c 0
 733 78 668 123 628 164 c 1
 618 116 591 75 549 42 c 0
 515 16 477 0 433 -7 c 1
 392 -10 l 2
 382 -10 373 -9 364 -8 c 0
 305 -2 260 23 228 68 c 0
 226 73 226 73 222 79 c 0
 205 114 200 161 208 220 c 1
 218 267 l 1
 241 345 285 407 347 453 c 0
 387 482 432 500 482 507 c 1
 539 776 l 1
 516 757 488 748 455 748 c 0
 421 748 393 758 372 779 c 0
 336 814 325 865 339 932 c 0
 344 956 353 981 364 1006 c 0
 376 1031 395 1056 423 1080 c 0
 475 1126 530 1149 589 1149 c 0
 666 1149 723 1129 759 1089 c 0
 794 1050 805 996 790 927 c 2
 684 430 l 1
 689 424 l 2
 706 404 725 384 745 365 c 0
 823 289 887 251 935 250 c 0
 944 250 952 252 959 255 c 0
 967 258 973 262 978 267 c 1
 989 281 l 1
 994 290 1002 322 1014 377 c 2
 1176 1139 l 1
 1395 1139 l 1
539 1028 m 0
 528 1028 516 1024 504 1017 c 0
 478 1000 461 976 454 943 c 0
 453 930 452 919 454 908 c 0
 460 875 477 859 504 859 c 1
 533 862 554 879 565 910 c 1
 575 947 l 1
 587 1001 575 1028 539 1028 c 0
456 317 m 1
 442 317 430 313 417 304 c 0
 390 285 372 257 363 219 c 0
 354 177 360 156 382 156 c 0
 390 156 396 157 402 160 c 0
 417 166 429 187 436 222 c 2
 456 317 l 1
EndSplineSet
EndChar
StartChar: uni0E22
Encoding: 155 3618 157
Width: 1200
Flags: HW
Fore
654 1028 m 1
 634 1025 l 1
 622 1021 611 1012 602 999 c 1
 590 974 l 1
 587 966 584 957 582 947 c 0
 570 888 582 859 618 859 c 1
 636 861 l 1
 663 870 683 895 699 936 c 0
 701 939 701 941 701 943 c 1
 705 966 l 1
 706 992 696 1011 675 1022 c 0
 669 1026 662 1028 654 1028 c 1
325 477 m 0
 347 502 373 525 403 544 c 2
 429 562 l 1
 398 581 377 602 363 624 c 0
 340 661 339 730 361 831 c 0
 376 905 390 956 403 983 c 0
 423 1025 454 1062 493 1093 c 0
 528 1120 567 1138 608 1146 c 0
 617 1148 626 1149 635 1149 c 0
 716 1149 771 1131 802 1094 c 0
 828 1061 841 1021 840 972 c 0
 839 960 838 948 835 936 c 0
 822 873 787 823 731 786 c 1
 709 773 l 1
 681 759 646 752 605 752 c 0
 589 752 578 753 574 756 c 1
 567 725 577 696 603 669 c 0
 604 668 608 664 616 657 c 0
 631 641 664 632 713 629 c 0
 725 628 740 628 757 628 c 1
 729 495 l 1
 657 494 l 1
 595 487 550 453 526 390 c 0
 520 377 516 362 513 347 c 0
 497 271 530 227 613 214 c 0
 629 211 646 210 663 210 c 0
 789 210 861 254 879 341 c 2
 1049 1139 l 1
 1269 1139 l 1
 1084 269 l 2
 1056 136 974 51 838 14 c 0
 785 -1 721 -9 648 -10 c 2
 624 -10 l 2
 450 -10 338 22 287 86 c 0
 253 129 243 189 257 264 c 1
 275 349 l 1
 289 410 l 1
 297 435 309 458 325 477 c 0
EndSplineSet
EndChar
StartChar: uni0E23
Encoding: 156 3619 158
Width: 1100
Flags: HW
Fore
1007 303 m 2
 987 207 967 142 947 109 c 0
 920 62 879 28 825 7 c 0
 796 -4 767 -10 736 -10 c 0
 609 -10 540 32 527 117 c 0
 523 144 524 173 530 202 c 0
 542 259 568 306 608 342 c 0
 646 378 692 398 742 401 c 1
 785 399 l 2
 796 398 803 396 808 393 c 1
 836 529 l 2
 843 562 834 589 808 609 c 1
 769 634 l 2
 767 635 765 635 764 636 c 0
 663 672 495 707 262 742 c 1
 298 829 341 901 388 957 c 0
 438 1016 500 1063 574 1099 c 0
 642 1132 722 1149 817 1149 c 0
 894 1149 962 1134 1022 1103 c 0
 1074 1077 1130 1064 1192 1064 c 0
 1219 1064 1245 1067 1269 1072 c 1
 1185 862 l 1
 1167 858 1148 856 1125 856 c 0
 1104 855 1081 857 1059 861 c 0
 1027 866 1000 873 976 883 c 0
 971 885 968 887 964 889 c 0
 909 918 848 935 782 940 c 2
 762 941 l 2
 689 941 640 925 614 892 c 1
 766 861 867 837 918 818 c 0
 952 805 978 792 997 778 c 0
 1054 737 1077 678 1069 601 c 0
 1068 592 1067 582 1065 573 c 2
 1007 303 l 2
765 192 m 1
 777 251 766 280 730 280 c 0
 701 280 677 263 659 229 c 1
 646 197 l 1
 645 195 l 0
 640 156 649 130 669 116 c 0
 675 112 680 110 687 110 c 1
 707 113 l 1
 735 126 755 153 765 192 c 1
EndSplineSet
EndChar
StartChar: uni0E24
Encoding: 157 3620 159
Width: 1240
Flags: HW
Fore
488 376 m 2
 485 363 l 1
 506 382 532 391 562 391 c 0
 581 392 599 388 617 380 c 0
 636 371 651 359 663 344 c 0
 691 310 698 264 686 206 c 0
 682 182 673 158 660 133 c 0
 631 76 587 35 529 10 c 0
 497 -3 464 -10 429 -10 c 0
 380 -9 344 -3 320 9 c 0
 299 20 280 35 262 56 c 0
 232 90 225 156 243 254 c 0
 245 269 249 285 252 303 c 2
 266 366 l 2
 283 449 305 509 332 546 c 0
 353 576 396 618 459 671 c 1
 424 727 366 767 286 792 c 1
 313 855 362 917 434 979 c 1
 563 1092 708 1149 868 1149 c 0
 1018 1149 1125 1102 1188 1008 c 0
 1243 927 1255 815 1225 673 c 2
 1001 -380 l 1
 781 -380 l 1
 1002 657 l 2
 1040 838 980 929 821 929 c 0
 715 929 630 896 567 831 c 1
 633 795 673 739 687 663 c 1
 682 661 645 628 576 563 c 0
 536 526 506 463 488 376 c 2
474 110 m 0
 499 110 521 124 540 152 c 0
 549 165 555 179 558 195 c 1
 565 238 556 265 532 276 c 0
 525 279 519 280 511 280 c 0
 480 280 458 260 446 220 c 1
 441 204 l 1
 428 141 439 110 474 110 c 0
EndSplineSet
EndChar
StartChar: uni0E25
Encoding: 158 3621 160
Width: 1250
Flags: HW
Fore
1214 915 m 2
 1226 868 1223 801 1205 713 c 2
 1053 0 l 1
 833 0 l 1
 889 263 l 2
 909 356 900 424 863 468 c 0
 835 503 779 520 696 520 c 0
 689 520 689 520 681 520 c 0
 613 519 563 498 527 457 c 1
 509 434 498 410 491 383 c 1
 487 363 l 1
 508 382 534 391 564 391 c 0
 583 392 601 388 619 380 c 0
 638 371 653 359 665 344 c 0
 693 310 700 264 688 206 c 0
 684 182 675 158 662 133 c 0
 633 76 589 35 531 10 c 0
 499 -3 466 -10 431 -10 c 0
 382 -9 346 -3 322 9 c 0
 301 20 282 35 264 56 c 0
 234 90 227 156 245 254 c 0
 247 269 251 285 254 303 c 2
 283 438 l 2
 307 551 375 635 485 688 c 0
 557 723 636 740 723 740 c 0
 816 740 888 724 939 691 c 0
 954 682 965 671 972 658 c 1
 984 714 l 2
 996 771 991 816 970 848 c 0
 967 852 l 0
 946 882 909 904 857 918 c 0
 829 925 798 929 767 929 c 0
 676 929 592 902 512 849 c 0
 481 827 453 802 431 775 c 1
 323 929 l 1
 377 996 453 1050 551 1092 c 0
 639 1130 726 1149 811 1149 c 0
 922 1149 1018 1124 1098 1074 c 0
 1106 1069 1114 1063 1121 1058 c 0
 1148 1037 1174 1005 1196 960 c 1
 1213 922 l 1
 1214 915 l 2
486 110 m 0
 511 110 533 124 552 152 c 0
 561 165 567 179 570 195 c 1
 577 238 568 265 544 276 c 0
 537 279 531 280 523 280 c 0
 492 280 470 260 458 220 c 1
 453 204 l 1
 440 141 451 110 486 110 c 0
EndSplineSet
EndChar
StartChar: uni0E26
Encoding: 159 3622 161
Width: 1350
Flags: HW
Fore
618 376 m 2
 602 303 l 2
 579 194 549 119 512 78 c 0
 505 70 496 63 488 56 c 0
 435 15 382 -6 326 -9 c 0
 319 -10 308 -10 293 -10 c 0
 219 -10 168 18 140 73 c 0
 130 91 125 111 122 133 c 0
 121 158 122 182 128 206 c 0
 140 264 167 310 209 344 c 0
 247 375 287 391 329 391 c 0
 342 392 354 390 365 386 c 0
 378 381 388 373 395 363 c 1
 400 384 l 2
 415 455 435 509 462 546 c 0
 483 576 526 618 589 671 c 1
 554 727 496 767 416 792 c 1
 443 855 492 917 564 979 c 1
 693 1092 838 1149 998 1149 c 0
 1148 1149 1255 1102 1318 1008 c 0
 1373 927 1385 815 1355 673 c 2
 1131 -380 l 1
 911 -380 l 1
 1132 657 l 2
 1170 838 1110 929 951 929 c 0
 845 929 760 896 697 831 c 1
 763 795 803 739 817 663 c 1
 812 661 775 628 706 563 c 0
 666 526 636 463 618 376 c 2
298 110 m 0
 333 110 358 141 371 204 c 0
 381 249 372 274 344 279 c 2
 335 280 l 2
 306 280 282 262 263 226 c 0
 258 217 254 206 250 195 c 0
 243 159 249 133 271 118 c 0
 279 113 288 110 298 110 c 0
EndSplineSet
EndChar
StartChar: uni0E27
Encoding: 160 3623 162
Width: 1150
Flags: HW
Fore
1184 714 m 2
 1096 303 l 2
 1076 205 1056 140 1036 108 c 0
 1022 85 1002 63 975 42 c 0
 937 12 886 -5 822 -10 c 0
 815 -11 808 -11 801 -11 c 0
 721 -11 666 18 636 75 c 1
 617 113 614 158 624 211 c 1
 637 269 666 317 713 354 c 0
 748 381 783 395 820 395 c 0
 854 395 877 390 890 381 c 0
 891 380 892 378 894 377 c 1
 957 675 l 2
 970 736 974 777 969 800 c 0
 965 815 959 829 949 842 c 0
 906 900 826 929 709 929 c 0
 620 929 536 903 458 852 c 0
 424 829 396 804 373 775 c 1
 265 929 l 1
 306 971 359 1012 424 1053 c 0
 450 1070 474 1083 495 1093 c 0
 576 1130 663 1149 754 1149 c 0
 862 1149 957 1129 1038 1090 c 0
 1058 1081 1075 1070 1091 1059 c 0
 1144 1021 1177 974 1190 918 c 0
 1203 863 1201 795 1184 714 c 2
855 192 m 0
 867 251 856 280 820 280 c 0
 794 280 771 264 752 233 c 0
 744 221 739 209 736 196 c 0
 729 163 736 139 756 122 c 0
 762 117 769 113 778 111 c 1
 802 113 l 1
 825 119 842 142 853 182 c 0
 855 192 l 0
EndSplineSet
EndChar
StartChar: uni0E28
Encoding: 161 3624 163
Width: 1300
Flags: HW
Fore
1164 1061 m 1
 1219 1094 1271 1148 1322 1224 c 1
 1540 1224 l 1
 1479 1109 1388 1013 1268 937 c 1
 1297 870 1299 774 1272 651 c 2
 1134 0 l 1
 954 0 l 1
 1103 702 l 2
 1117 767 1103 827 1060 880 c 0
 1045 899 1026 915 1006 928 c 0
 962 955 903 969 830 969 c 2
 823 969 l 2
 758 968 697 955 641 930 c 1
 576 903 524 862 486 808 c 0
 458 768 437 714 422 646 c 0
 413 603 408 562 410 525 c 1
 418 316 l 1
 461 421 517 511 582 587 c 0
 630 644 680 683 732 705 c 0
 769 721 809 724 850 714 c 0
 888 704 919 679 944 640 c 0
 957 620 964 601 965 582 c 0
 967 558 965 536 961 517 c 0
 953 480 929 439 889 395 c 2
 884 389 l 2
 835 338 785 313 733 313 c 0
 722 313 710 314 698 317 c 0
 677 321 657 333 637 353 c 0
 631 358 627 364 625 369 c 1
 576 302 520 206 457 81 c 0
 443 52 430 25 419 0 c 1
 186 0 l 1
 209 108 l 2
 220 161 226 266 225 424 c 1
 223 515 230 599 247 676 c 0
 256 721 269 763 285 800 c 0
 333 907 413 992 528 1057 c 1
 633 1114 736 1145 839 1149 c 2
 861 1149 l 2
 959 1148 1039 1131 1102 1098 c 0
 1108 1095 l 0
 1125 1086 1143 1075 1164 1061 c 1
792 574 m 1
 777 570 758 555 735 530 c 0
 713 507 701 487 697 472 c 0
 692 453 696 438 710 427 c 0
 717 420 726 417 737 417 c 0
 746 417 755 419 765 423 c 0
 783 430 801 443 818 460 c 0
 831 473 840 491 846 512 c 0
 851 533 848 551 836 565 c 0
 831 572 820 576 806 576 c 1
 792 574 l 1
EndSplineSet
EndChar
StartChar: uni0E29
Encoding: 162 3625 164
Width: 1350
Flags: HW
Fore
466 1028 m 0
 441 1028 420 1015 401 988 c 0
 391 974 385 959 381 943 c 1
 377 906 384 880 404 866 c 0
 411 861 420 859 430 859 c 0
 466 862 490 887 500 935 c 0
 501 941 501 941 503 948 c 0
 514 1001 502 1028 466 1028 c 0
1220 463 m 1
 1180 273 l 2
 1153 147 1080 64 960 24 c 0
 893 1 808 -10 704 -10 c 0
 455 -10 335 67 346 222 c 0
 347 237 350 252 353 268 c 2
 457 759 l 1
 441 753 422 750 401 749 c 0
 369 749 341 756 317 770 c 0
 305 777 295 785 287 795 c 0
 259 830 252 874 263 929 c 0
 268 952 277 978 290 1005 c 0
 310 1050 345 1088 394 1117 c 0
 422 1134 449 1144 476 1148 c 1
 525 1151 l 1
 593 1151 643 1135 677 1104 c 0
 679 1102 682 1100 684 1097 c 0
 714 1062 722 1000 707 909 c 1
 693 835 l 1
 597 379 l 2
 577 288 610 233 695 215 c 0
 713 212 733 210 756 210 c 0
 863 211 933 250 967 327 c 0
 973 342 979 360 983 379 c 2
 991 421 l 1
 976 418 957 417 933 417 c 0
 929 417 l 0
 878 418 835 432 797 457 c 0
 765 480 744 513 736 556 c 0
 733 577 733 597 737 618 c 0
 738 621 738 621 739 625 c 0
 762 714 812 766 888 781 c 0
 895 782 903 783 912 784 c 1
 945 783 l 1
 982 777 1008 757 1022 723 c 0
 1029 706 1029 683 1023 655 c 0
 1021 644 1018 634 1014 625 c 0
 1006 608 992 592 969 575 c 1
 971 568 982 564 1003 564 c 0
 1012 563 1018 564 1022 566 c 1
 1144 1139 l 1
 1364 1139 l 1
 1258 642 l 1
 1290 668 1312 711 1325 771 c 1
 1458 771 l 1
 1442 698 1421 642 1394 603 c 0
 1386 590 1377 578 1366 566 c 0
 1333 527 1285 493 1220 463 c 1
932 651 m 1
 933 678 922 694 897 697 c 1
 882 696 l 1
 868 692 857 683 849 669 c 1
 842 653 l 1
 838 634 844 620 859 611 c 0
 865 608 871 607 878 607 c 0
 897 607 912 616 925 635 c 0
 929 640 931 646 932 651 c 1
EndSplineSet
EndChar
StartChar: uni0E2A
Encoding: 163 3626 165
Width: 1250
Flags: HW
Fore
1214 915 m 1
 1225 862 1222 795 1205 713 c 2
 1053 0 l 1
 833 0 l 1
 889 263 l 2
 909 356 900 424 863 468 c 0
 835 503 779 520 696 520 c 0
 689 520 689 520 681 520 c 0
 613 519 563 498 527 457 c 1
 509 434 498 410 491 383 c 1
 487 363 l 1
 508 382 534 391 564 391 c 0
 583 392 601 388 619 380 c 0
 638 371 653 359 665 344 c 0
 693 310 700 264 688 206 c 0
 684 182 675 158 662 133 c 0
 633 76 589 35 531 10 c 0
 499 -3 466 -10 431 -10 c 0
 382 -9 346 -3 322 9 c 0
 301 20 282 35 264 56 c 0
 234 90 227 156 245 254 c 0
 247 269 251 285 254 303 c 2
 283 438 l 2
 307 551 375 635 485 688 c 0
 557 723 636 740 723 740 c 0
 816 740 888 724 939 691 c 0
 954 682 965 671 972 658 c 1
 984 714 l 2
 996 771 991 816 970 848 c 0
 967 852 l 0
 946 882 909 904 857 918 c 0
 829 925 798 929 767 929 c 0
 676 929 592 902 512 849 c 0
 481 827 453 802 431 775 c 1
 323 929 l 1
 377 996 453 1050 551 1092 c 0
 639 1130 726 1149 811 1149 c 0
 946 1149 1045 1119 1105 1059 c 1
 1164 1094 1215 1144 1259 1209 c 1
 1527 1209 l 1
 1500 1138 1431 1063 1320 985 c 1
 1217 916 l 1
 1214 915 l 1
486 110 m 0
 511 110 533 124 552 152 c 0
 561 165 567 179 570 195 c 1
 577 238 568 265 544 276 c 0
 537 279 531 280 523 280 c 0
 492 280 470 260 458 220 c 1
 453 204 l 1
 440 141 451 110 486 110 c 0
EndSplineSet
EndChar
StartChar: uni0E2B
Encoding: 164 3627 166
Width: 1350
Flags: HW
Fore
635 385 m 1
 731 510 l 1
 760 544 789 578 821 611 c 0
 887 681 948 736 1004 776 c 1
 966 828 954 885 968 948 c 0
 980 1006 1013 1055 1067 1095 c 0
 1114 1131 1166 1149 1223 1149 c 0
 1300 1149 1353 1122 1382 1068 c 1
 1394 1038 l 1
 1400 1002 l 1
 1401 984 1399 965 1395 946 c 0
 1377 863 1335 802 1269 764 c 1
 1297 747 1316 719 1327 680 c 0
 1332 656 1333 633 1328 610 c 2
 1198 0 l 1
 978 0 l 1
 1092 538 l 2
 1099 567 1095 589 1084 606 c 1
 1022 571 946 495 854 376 c 0
 757 251 675 126 606 0 c 1
 332 0 l 1
 493 759 l 1
 476 750 450 745 413 745 c 0
 358 745 321 769 302 818 c 0
 290 851 288 889 297 932 c 0
 302 955 310 979 321 1003 c 0
 345 1055 388 1095 446 1122 c 0
 484 1139 524 1148 567 1149 c 1
 609 1146 l 1
 671 1135 714 1103 738 1049 c 0
 755 1011 759 968 749 921 c 2
 635 385 l 1
496 1025 m 1
 471 1025 450 1012 432 987 c 1
 419 963 l 1
 412 940 l 1
 406 907 412 882 431 866 c 0
 439 859 449 856 460 856 c 0
 492 858 515 879 527 919 c 0
 530 926 532 935 534 944 c 1
 537 995 524 1022 496 1025 c 1
1165 863 m 0
 1194 863 1217 876 1235 902 c 0
 1242 911 1246 921 1248 932 c 0
 1255 966 1247 990 1224 1004 c 0
 1216 1009 1206 1011 1195 1012 c 1
 1171 1009 l 1
 1149 1002 1132 988 1121 967 c 1
 1111 941 l 1
 1110 938 l 2
 1104 907 1112 884 1134 871 c 0
 1143 866 1153 863 1165 863 c 0
EndSplineSet
EndChar
StartChar: uni0E2C
Encoding: 165 3628 167
Width: 1400
Flags: HW
AnchorPoint: "AboveBase" 1052.81 1227 basechar 0
Fore
481 1028 m 0
 456 1028 435 1015 416 988 c 0
 406 974 400 959 396 943 c 1
 392 906 399 880 419 866 c 0
 426 861 435 859 445 859 c 0
 481 862 505 887 515 935 c 0
 516 941 516 941 518 948 c 0
 529 1001 517 1028 481 1028 c 0
1278 268 m 2
 1254 156 1208 77 1140 30 c 0
 1101 3 1055 -10 1004 -10 c 0
 933 -10 889 -9 874 -6 c 0
 826 1 797 21 786 54 c 1
 751 16 705 -5 646 -9 c 0
 637 -10 608 -10 557 -10 c 0
 425 -10 359 51 358 173 c 0
 357 202 361 233 368 268 c 2
 472 759 l 1
 456 753 437 750 416 749 c 0
 384 749 356 756 332 770 c 0
 320 777 310 785 302 795 c 0
 274 830 267 874 278 929 c 0
 283 952 292 978 305 1005 c 0
 325 1050 360 1088 409 1117 c 0
 437 1134 464 1144 491 1148 c 1
 540 1151 l 1
 608 1151 658 1135 692 1104 c 0
 694 1102 697 1100 699 1097 c 0
 729 1062 737 1000 722 909 c 1
 708 835 l 1
 588 268 l 2
 581 235 591 214 620 205 c 0
 626 203 632 202 638 202 c 0
 669 202 692 215 705 242 c 0
 710 250 713 259 715 268 c 2
 879 1039 l 1
 1099 1039 l 1
 935 268 l 2
 928 236 939 215 966 205 c 0
 972 203 979 202 985 202 c 0
 1011 202 1031 213 1045 236 c 0
 1051 245 1055 256 1058 268 c 2
 1247 1158 l 1
 1192 1168 1153 1193 1130 1234 c 0
 1111 1269 1106 1310 1116 1357 c 4
 1121 1380 1129 1403 1140 1426 c 0
 1167 1481 1209 1519 1267 1541 c 0
 1295 1552 1325 1557 1356 1557 c 0
 1418 1557 1464 1534 1494 1489 c 1
 1500 1479 1505 1469 1508 1459 c 0
 1518 1428 1516 1384 1504 1325 c 2
 1499 1301 l 1
 1536 1304 1568 1317 1595 1338 c 0
 1632 1367 1658 1417 1675 1487 c 1
 1809 1487 l 1
 1796 1436 l 1
 1787 1407 1776 1378 1761 1350 c 0
 1730 1291 1687 1244 1631 1207 c 1
 1588 1180 1538 1163 1483 1156 c 2
 1466 1154 l 1
 1278 268 l 2
1290 1302 m 0
 1314 1302 1334 1313 1352 1335 c 0
 1359 1344 1364 1354 1366 1365 c 0
 1371 1388 1364 1406 1346 1419 c 0
 1337 1425 1328 1428 1317 1428 c 0
 1293 1428 1271 1417 1254 1396 c 0
 1246 1386 1240 1376 1238 1365 c 0
 1233 1340 1240 1322 1260 1310 c 0
 1269 1305 1279 1302 1290 1302 c 0
EndSplineSet
EndChar
StartChar: uni0E2D
Encoding: 166 3629 168
Width: 1230
Flags: HW
Fore
280 270 m 2
 315 434 l 2
 335 529 356 595 379 631 c 0
 413 684 459 719 518 737 c 0
 541 744 565 748 590 748 c 0
 603 748 617 747 630 745 c 0
 688 736 727 704 746 649 c 0
 755 624 758 596 755 565 c 0
 754 552 753 539 750 525 c 0
 740 482 715 442 674 404 c 0
 638 371 597 354 553 354 c 0
 541 354 529 355 519 358 c 1
 512 325 l 2
 500 268 527 232 595 217 c 0
 615 212 638 210 664 210 c 0
 739 210 800 229 847 266 c 0
 879 291 899 323 907 360 c 2
 982 715 l 2
 1002 808 973 871 895 905 c 0
 860 921 816 929 765 929 c 0
 642 928 540 888 459 808 c 1
 428 775 l 1
 315 936 l 1
 447 1078 612 1149 809 1149 c 0
 938 1149 1041 1118 1117 1057 c 0
 1152 1030 1178 997 1195 959 c 0
 1221 900 1226 830 1210 751 c 2
 1108 273 l 2
 1081 146 1007 63 886 24 c 0
 818 1 728 -10 613 -10 c 0
 360 -10 248 78 277 253 c 0
 279 262 279 262 280 270 c 2
591 625 m 0
 555 625 531 598 520 545 c 0
 509 495 516 466 540 458 c 0
 545 457 550 457 555 456 c 0
 582 456 604 472 623 504 c 0
 630 515 635 527 639 540 c 0
 645 571 639 595 621 613 c 0
 612 621 602 625 591 625 c 0
EndSplineSet
EndChar
StartChar: uni0E2E
Encoding: 167 3630 169
Width: 1250
Flags: HW
Fore
995 741 m 2
 1000 769 1004 791 1005 808 c 1
 923 767 832 746 731 746 c 0
 713 746 l 0
 608 748 526 769 466 809 c 0
 413 845 390 890 401 944 c 1
 409 970 l 1
 429 1012 470 1048 530 1079 c 0
 536 1081 540 1083 546 1086 c 0
 633 1126 728 1147 829 1149 c 1
 946 1149 1044 1121 1124 1064 c 1
 1160 1100 1183 1131 1196 1158 c 1
 1309 1116 l 1
 1275 1061 1239 1014 1201 975 c 1
 1230 914 1238 851 1224 786 c 2
 1115 273 l 2
 1088 146 1014 63 893 24 c 0
 825 1 735 -10 620 -10 c 0
 367 -10 255 78 284 253 c 0
 286 262 286 262 287 270 c 2
 322 434 l 2
 342 529 363 595 386 631 c 0
 420 684 466 719 525 737 c 0
 548 744 572 748 597 748 c 0
 610 748 624 747 637 745 c 0
 695 736 734 704 753 649 c 0
 762 624 765 596 762 565 c 0
 761 552 760 539 757 525 c 0
 747 482 722 442 681 404 c 0
 645 371 604 354 560 354 c 0
 548 354 536 355 526 358 c 1
 519 325 l 2
 507 268 534 232 602 217 c 0
 622 212 645 210 671 210 c 0
 746 210 807 229 854 266 c 0
 886 291 906 323 914 360 c 2
 995 741 l 2
598 625 m 0
 562 625 538 598 527 545 c 0
 516 495 523 466 547 458 c 0
 552 457 557 457 562 456 c 0
 589 456 611 472 630 504 c 0
 637 515 642 527 646 540 c 0
 652 571 646 595 628 613 c 0
 619 621 609 625 598 625 c 0
935 935 m 1
 916 956 872 969 802 972 c 0
 794 972 794 972 787 972 c 0
 756 972 724 965 694 950 c 0
 681 943 674 937 673 932 c 0
 669 915 690 903 736 897 c 0
 748 895 760 894 772 894 c 0
 831 894 880 905 921 927 c 0
 927 930 931 932 935 935 c 1
EndSplineSet
EndChar
StartChar: uni0E2F
Encoding: 168 3631 170
Width: 1150
Flags: HW
Fore
1269 1149 m 1
 1025 0 l 1
 805 0 l 1
 970 776 l 1
 915 722 833 687 724 672 c 0
 692 667 660 665 628 665 c 0
 531 665 454 683 396 719 c 0
 357 743 332 782 321 836 c 0
 315 861 315 887 319 914 c 1
 331 958 l 1
 352 1023 392 1074 450 1110 c 0
 480 1129 511 1140 543 1144 c 1
 591 1147 l 1
 666 1146 718 1117 749 1061 c 1
 750 1057 751 1053 753 1050 c 0
 761 1031 762 1005 755 972 c 0
 750 944 739 918 725 895 c 0
 717 880 708 869 697 860 c 1
 731 857 l 1
 780 858 826 871 868 895 c 0
 871 896 874 898 877 900 c 0
 945 943 998 1011 1033 1103 c 0
 1040 1118 1045 1133 1049 1149 c 1
 1269 1149 l 1
464 958 m 1
 461 936 l 1
 461 911 473 896 498 890 c 0
 503 889 508 889 513 889 c 0
 538 889 560 899 580 920 c 0
 590 932 597 945 600 958 c 0
 605 981 598 1000 579 1013 c 0
 570 1020 559 1023 547 1023 c 0
 513 1023 488 1008 472 978 c 1
 464 958 l 1
EndSplineSet
EndChar
StartChar: uni0E30
Encoding: 169 3632 171
Width: 1100
Flags: HW
Fore
237 312 m 0
 260 412 317 472 410 491 c 0
 430 495 451 497 472 498 c 1
 510 495 l 1
 567 484 600 450 609 391 c 0
 612 374 613 357 610 340 c 1
 601 303 l 1
 592 275 579 252 561 233 c 1
 594 235 l 1
 649 243 703 272 758 322 c 0
 788 348 809 374 824 399 c 0
 837 423 849 450 858 480 c 1
 1024 480 l 1
 1000 369 941 275 847 199 c 0
 755 125 650 85 534 80 c 0
 525 79 517 79 509 79 c 0
 414 79 341 102 290 149 c 0
 255 180 237 220 234 268 c 0
 233 283 234 297 237 312 c 0
357 327 m 1
 356 307 l 1
 360 285 373 273 395 270 c 0
 398 269 400 269 402 269 c 2
 426 272 l 1
 452 280 469 296 479 319 c 0
 480 322 481 326 482 330 c 1
 482 350 l 1
 479 371 465 383 443 387 c 0
 440 388 436 388 433 388 c 0
 405 388 384 376 368 352 c 0
 362 345 358 336 357 327 c 1
349 836 m 0
 371 936 429 996 522 1015 c 0
 542 1019 562 1021 583 1022 c 1
 622 1019 l 1
 678 1008 711 974 720 915 c 0
 724 898 724 881 722 864 c 1
 713 827 l 1
 697 792 l 1
 690 779 681 767 672 757 c 1
 705 759 l 1
 760 767 814 796 870 846 c 0
 899 872 921 898 935 923 c 0
 948 947 960 974 969 1004 c 1
 1135 1004 l 1
 1112 893 1053 799 959 723 c 0
 866 649 761 609 645 604 c 0
 636 603 628 603 620 603 c 0
 525 603 452 626 401 673 c 0
 367 704 348 744 345 792 c 0
 345 807 346 821 349 836 c 0
468 851 m 1
 468 831 l 1
 471 809 484 797 507 794 c 0
 510 793 512 793 514 793 c 2
 537 796 l 1
 563 804 580 820 590 843 c 0
 592 846 593 850 594 854 c 1
 594 874 l 1
 590 895 577 907 555 911 c 0
 552 912 548 912 545 912 c 0
 517 912 495 900 479 876 c 0
 474 869 470 860 468 851 c 1
EndSplineSet
EndChar
StartChar: uni0E31
Encoding: 170 3633 172
Width: 0
Flags: HW
AnchorPoint: "AboveMark" 107.849 1740 basemark 0
AnchorPoint: "AboveBase" 80.8066 1227 mark 0
Fore
-422 1466 m 0
 -400 1566 -342 1626 -249 1645 c 0
 -229 1649 -209 1651 -188 1652 c 1
 -149 1649 l 1
 -93 1638 -60 1604 -51 1545 c 0
 -47 1528 -47 1511 -49 1494 c 1
 -58 1457 l 1
 -74 1422 l 1
 -82 1409 -90 1397 -99 1387 c 1
 -66 1389 l 1
 -11 1397 43 1426 99 1476 c 0
 128 1502 150 1528 164 1553 c 0
 177 1577 189 1604 198 1634 c 1
 364 1634 l 1
 341 1523 282 1429 188 1353 c 0
 95 1279 -10 1239 -126 1234 c 0
 -135 1233 -143 1233 -151 1233 c 0
 -246 1233 -319 1256 -370 1303 c 0
 -404 1334 -423 1374 -426 1422 c 0
 -427 1437 -426 1451 -422 1466 c 0
-303 1481 m 1
 -303 1461 l 1
 -300 1439 -287 1427 -264 1424 c 0
 -262 1423 -260 1423 -258 1423 c 2
 -234 1426 l 1
 -208 1434 -191 1450 -181 1473 c 0
 -179 1476 -178 1480 -178 1484 c 1
 -177 1504 l 1
 -179 1519 -188 1530 -202 1537 c 1
 -222 1542 l 1
 -226 1542 l 2
 -254 1542 -276 1530 -292 1506 c 1
 -302 1486 l 1
 -303 1484 -303 1484 -303 1481 c 1
EndSplineSet
EndChar
StartChar: uni0E32
Encoding: 171 3634 173
Width: 1150
Flags: HW
Fore
1116 753 m 2
 956 0 l 1
 736 0 l 1
 891 729 l 2
 908 810 892 867 843 901 c 0
 816 920 777 929 730 929 c 0
 671 929 612 904 554 853 c 0
 524 826 498 796 480 764 c 1
 300 846 l 1
 350 928 418 998 502 1056 c 0
 593 1118 680 1149 766 1149 c 0
 914 1149 1018 1107 1078 1022 c 1
 1099 987 l 1
 1130 924 1136 846 1116 753 c 2
EndSplineSet
EndChar
StartChar: uni0E33
Encoding: 172 3635 174
Width: 1050
Flags: HW
Fore
1062 753 m 2
 902 0 l 1
 682 0 l 1
 837 729 l 2
 854 810 838 867 789 901 c 0
 762 920 723 929 676 929 c 0
 617 929 558 904 500 853 c 0
 470 826 444 796 426 764 c 1
 246 846 l 1
 296 928 364 998 448 1056 c 0
 539 1118 626 1149 712 1149 c 0
 860 1149 964 1107 1024 1022 c 0
 1070 958 1084 875 1066 773 c 0
 1062 753 l 2
55 1668 m 0
 126 1668 178 1643 214 1594 c 0
 231 1570 241 1543 243 1512 c 0
 245 1489 245 1466 239 1441 c 0
 224 1370 185 1312 122 1267 c 0
 72 1231 17 1213 -42 1212 c 1
 -87 1216 l 1
 -152 1227 -196 1262 -216 1321 c 0
 -230 1357 -231 1397 -222 1441 c 0
 -208 1506 -171 1562 -112 1607 c 0
 -61 1648 -4 1668 55 1668 c 0
22 1509 m 0
 -12 1509 -39 1496 -59 1470 c 0
 -66 1459 -71 1448 -74 1435 c 0
 -81 1404 -71 1381 -46 1368 c 0
 -36 1362 -24 1359 -10 1359 c 0
 29 1359 57 1374 76 1404 c 0
 83 1413 88 1424 90 1435 c 0
 97 1467 86 1489 58 1502 c 1
 34 1509 l 1
 22 1509 l 0
EndSplineSet
MultipleSubs: 0 1 'ccmp' uni0E4D uni0E32
EndChar
StartChar: uni0E34
Encoding: 173 3636 175
Width: 0
Flags: HW
AnchorPoint: "AboveMark" 62.8486 1740 basemark 0
AnchorPoint: "AboveBase" 80.8066 1227 mark 0
Fore
81 1228 m 1
 -38 1255 -226 1281 -482 1306 c 0
 -654 1323 -792 1331 -898 1331 c 1
 -865 1398 -805 1466 -720 1534 c 0
 -678 1567 -637 1595 -597 1616 c 0
 -515 1658 -427 1679 -333 1679 c 0
 -311 1679 -289 1678 -267 1676 c 0
 -182 1666 -106 1632 -41 1575 c 0
 -8 1542 l 0
 55 1471 85 1367 81 1228 c 1
-139 1392 m 1
 -149 1433 -180 1466 -231 1491 c 0
 -262 1506 -296 1516 -332 1519 c 1
 -388 1520 l 1
 -470 1516 -536 1490 -588 1441 c 1
 -490 1441 -377 1432 -249 1413 c 0
 -203 1406 -167 1399 -139 1392 c 1
EndSplineSet
EndChar
StartChar: uni0E35
Encoding: 174 3637 176
Width: 0
Flags: HW
AnchorPoint: "AboveMark" 90.8486 1740 basemark 0
AnchorPoint: "AboveBase" 80.8066 1227 mark 0
Fore
80 1260 m 1
 80 1249 80 1238 80 1228 c 1
 -35 1254 -217 1278 -464 1301 c 0
 -620 1316 -747 1323 -844 1323 c 1
 -801 1406 -735 1477 -644 1537 c 0
 -538 1607 -427 1642 -310 1642 c 0
 -203 1642 -121 1617 -64 1568 c 0
 -56 1561 -49 1554 -41 1546 c 1
 -1 1735 l 1
 181 1735 l 5
 80 1260 l 1
-134 1387 m 1
 -143 1420 -171 1448 -218 1471 c 0
 -247 1486 -277 1495 -310 1498 c 1
 -363 1499 l 1
 -436 1494 -495 1471 -540 1429 c 1
 -446 1429 -340 1420 -223 1403 c 0
 -187 1398 -157 1392 -134 1387 c 1
EndSplineSet
EndChar
StartChar: uni0E36
Encoding: 175 3638 177
Width: 0
Flags: HW
AnchorPoint: "AboveMark" 172.849 1740 basemark 0
AnchorPoint: "AboveBase" 170.807 1227 mark 0
Fore
-50 1562 m 1
 -26 1606 11 1639 61 1661 c 0
 91 1674 121 1681 151 1681 c 4
 155 1681 155 1681 158 1681 c 0
 218 1679 261 1656 288 1613 c 0
 308 1582 313 1545 304 1502 c 0
 292 1443 259 1395 205 1360 c 0
 166 1334 123 1321 78 1321 c 1
 80 1304 81 1273 80 1228 c 1
 -35 1254 -217 1278 -464 1301 c 0
 -620 1316 -747 1323 -844 1323 c 1
 -801 1409 -730 1481 -634 1540 c 1
 -526 1607 -410 1640 -287 1640 c 0
 -274 1640 -262 1640 -251 1639 c 0
 -163 1634 -98 1611 -57 1570 c 0
 -55 1567 -52 1565 -50 1562 c 1
132 1559 m 0
 105 1559 84 1548 68 1526 c 1
 58 1507 l 1
 57 1500 l 2
 51 1473 59 1455 80 1444 c 0
 88 1439 96 1437 106 1437 c 0
 137 1437 161 1450 177 1476 c 0
 181 1483 184 1491 186 1500 c 0
 192 1527 182 1545 159 1554 c 0
 151 1557 142 1559 132 1559 c 0
-140 1376 m 1
 -149 1410 -174 1440 -215 1467 c 0
 -245 1486 -277 1497 -309 1500 c 1
 -348 1499 l 1
 -402 1494 -454 1476 -501 1447 c 0
 -517 1438 -529 1428 -537 1419 c 1
 -447 1419 -345 1410 -230 1393 c 0
 -192 1388 -162 1382 -140 1376 c 1
EndSplineSet
EndChar
StartChar: uni0E37
Encoding: 176 3639 178
Width: 0
Flags: HW
AnchorPoint: "AboveMark" -11.1514 1740 basemark 0
AnchorPoint: "AboveBase" 80.8066 1227 mark 0
Fore
-67 1587 m 1
 -53 1583 -39 1571 -28 1551 c 1
 8 1722 l 5
 178 1722 l 1
 85 1285 l 1
 75 1228 l 1
 -31 1252 -203 1276 -443 1299 c 0
 -602 1315 -730 1323 -825 1323 c 1
 -778 1409 -708 1481 -617 1539 c 0
 -516 1602 -412 1634 -301 1634 c 0
 -295 1634 l 0
 -278 1634 -258 1631 -235 1625 c 1
 -214 1723 l 1
 -38 1723 l 1
 -67 1587 l 1
-109 1370 m 1
 -125 1433 -167 1474 -232 1495 c 0
 -252 1501 -274 1505 -297 1506 c 1
 -357 1506 l 1
 -437 1500 -504 1470 -558 1417 c 2
 -560 1414 l 1
 -413 1408 -279 1396 -160 1379 c 0
 -136 1376 -119 1373 -109 1370 c 1
EndSplineSet
EndChar
StartChar: uni0E38
Encoding: 177 3640 179
Width: 0
Flags: HW
AnchorPoint: "BelowBase" -179.067 -85 mark 0
Fore
-475 -534 m 1
 -440 -370 l 1
 -452 -375 -464 -378 -477 -378 c 0
 -509 -377 -537 -365 -558 -341 c 0
 -580 -318 -585 -283 -576 -238 c 0
 -573 -224 -568 -210 -562 -197 c 0
 -559 -190 -556 -183 -552 -177 c 0
 -524 -130 -478 -100 -416 -89 c 0
 -400 -86 -385 -85 -370 -85 c 0
 -321 -85 -283 -97 -256 -120 c 0
 -252 -123 -249 -126 -246 -129 c 0
 -222 -160 -212 -203 -218 -258 c 0
 -220 -275 -223 -293 -228 -313 c 2
 -275 -534 l 1
 -475 -534 l 1
-420 -176 m 0
 -442 -176 -461 -187 -475 -209 c 0
 -480 -218 -484 -227 -486 -236 c 0
 -490 -263 -483 -282 -465 -292 c 0
 -461 -295 -454 -296 -446 -296 c 0
 -418 -296 -399 -275 -391 -233 c 0
 -382 -195 -392 -176 -420 -176 c 0
EndSplineSet
EndChar
StartChar: uni0E39
Encoding: 178 3641 180
Width: 0
Flags: HW
AnchorPoint: "BelowBase" -179.067 -85 mark 0
Fore
-506 -375 m 1
 -390 -375 l 1
 -331 -98 l 1
 -182 -98 l 5
 -268 -504 l 1
 -682 -504 l 1
 -646 -335 l 1
 -656 -343 -667 -348 -680 -349 c 0
 -721 -355 -753 -344 -776 -317 c 1
 -806 -284 -806 -237 -777 -176 c 1
 -762 -145 -735 -118 -698 -97 c 0
 -671 -82 -645 -75 -620 -75 c 0
 -571 -75 -535 -85 -511 -106 c 1
 -481 -133 -470 -175 -477 -232 c 0
 -480 -248 -483 -267 -488 -290 c 2
 -506 -375 l 1
-649 -161 m 0
 -663 -161 -677 -168 -691 -182 c 1
 -700 -193 -707 -205 -709 -218 c 0
 -712 -233 -709 -246 -704 -255 c 0
 -696 -269 -685 -275 -673 -274 c 1
 -659 -274 -647 -268 -637 -257 c 0
 -630 -250 -625 -236 -621 -215 c 0
 -617 -194 -618 -180 -623 -173 c 0
 -628 -165 -637 -161 -649 -161 c 0
EndSplineSet
EndChar
StartChar: uni0E3A
Encoding: 179 3642 181
Width: 0
Flags: HW
AnchorPoint: "BelowBase" -171.816 -65 mark 0
Fore
-259 -60 m 0
 -222 -60 -194 -73 -173 -99 c 0
 -152 -128 -145 -160 -152 -195 c 0
 -160 -232 -181 -263 -213 -289 c 1
 -245 -316 -279 -330 -316 -330 c 0
 -351 -330 -380 -316 -401 -289 c 0
 -423 -262 -429 -231 -421 -195 c 0
 -414 -160 -394 -128 -361 -99 c 1
 -329 -73 -295 -60 -259 -60 c 0
EndSplineSet
EndChar
StartChar: uni0E3F
Encoding: 180 3647 182
Width: 1250
Flags: HW
Fore
1138 827 m 1
 1228 800 1283 739 1303 644 c 0
 1314 589 1312 527 1297 457 c 0
 1267 314 1192 200 1072 117 c 1
 1023 86 l 1
 928 33 821 5 702 2 c 1
 674 -133 l 1
 513 -133 l 1
 541 0 l 1
 132 0 l 1
 448 1489 l 1
 857 1489 l 1
 880 1595 l 1
 1041 1595 l 1
 1018 1489 l 1
 1209 1486 1325 1430 1367 1323 c 0
 1387 1274 1389 1214 1374 1144 c 0
 1352 1039 1318 963 1272 915 c 0
 1261 904 1250 893 1237 884 c 1
 1202 862 l 1
 1188 854 1171 847 1155 841 c 0
 1149 839 1145 837 1140 836 c 1
 1138 827 l 1
736 916 m 1
 815 1291 l 1
 642 1291 l 1
 563 916 l 1
 736 916 l 1
897 916 m 1
 978 917 1036 942 1072 992 c 0
 1094 1023 1112 1067 1124 1124 c 0
 1140 1200 1124 1249 1076 1272 c 0
 1053 1283 1019 1289 976 1291 c 1
 897 916 l 1
581 190 m 1
 687 689 l 1
 514 689 l 1
 408 190 l 1
 581 190 l 1
743 194 m 1
 839 199 917 233 974 298 c 0
 1011 339 1036 389 1048 449 c 0
 1074 572 1042 647 951 674 c 0
 924 683 889 687 848 687 c 1
 743 194 l 1
EndSplineSet
EndChar
StartChar: uni0E40
Encoding: 181 3648 183
Width: 700
Flags: HW
Fore
388 1146 m 1
 608 1146 l 1
 441 364 l 1
 462 383 488 392 518 392 c 0
 538 393 556 389 573 381 c 0
 592 372 608 360 619 345 c 0
 647 311 654 265 642 207 c 0
 638 183 629 159 616 134 c 0
 587 77 544 36 485 11 c 0
 454 -2 420 -9 385 -9 c 0
 336 -8 301 -2 276 10 c 0
 255 21 237 36 218 57 c 0
 188 91 181 157 199 255 c 0
 201 270 205 286 209 304 c 2
 388 1146 l 1
431 111 m 0
 456 111 478 125 497 153 c 0
 505 166 511 180 515 196 c 1
 521 239 513 266 488 277 c 0
 482 280 475 281 467 281 c 0
 436 281 414 261 402 221 c 0
 400 216 399 211 398 205 c 0
 384 142 396 111 431 111 c 0
EndSplineSet
EndChar
StartChar: uni0E41
Encoding: 182 3649 184
Width: 1320
Flags: HW
Fore
1013 1146 m 1
 1233 1146 l 1
 1066 364 l 1
 1087 383 1113 392 1143 392 c 0
 1163 393 1181 389 1198 381 c 0
 1217 372 1233 360 1244 345 c 0
 1272 311 1279 265 1267 207 c 0
 1263 183 1254 159 1241 134 c 0
 1212 77 1169 36 1110 11 c 0
 1079 -2 1045 -9 1010 -9 c 0
 961 -8 926 -2 901 10 c 0
 880 21 862 36 843 57 c 0
 813 91 806 157 824 255 c 0
 826 270 830 286 834 304 c 2
 1013 1146 l 1
1056 111 m 0
 1081 111 1103 125 1122 153 c 0
 1130 166 1136 180 1140 196 c 1
 1146 239 1138 266 1113 277 c 1
 1094 281 l 1
 1092 281 l 2
 1061 281 1039 261 1027 221 c 0
 1025 216 1024 211 1023 205 c 0
 1009 142 1021 111 1056 111 c 0
420 1146 m 1
 640 1146 l 1
 473 364 l 1
 494 383 520 392 550 392 c 0
 570 393 588 389 605 381 c 0
 624 372 640 360 651 345 c 0
 679 311 686 265 674 207 c 0
 670 183 661 159 648 134 c 0
 619 77 576 36 517 11 c 0
 486 -2 452 -9 417 -9 c 0
 368 -8 333 -2 308 10 c 0
 287 21 269 36 250 57 c 0
 220 91 213 157 231 255 c 0
 233 270 237 286 241 304 c 2
 420 1146 l 1
463 111 m 0
 488 111 510 125 529 153 c 0
 537 166 543 180 547 196 c 1
 553 239 545 266 520 277 c 0
 514 280 507 281 499 281 c 0
 468 281 446 261 434 221 c 0
 432 216 431 211 430 205 c 0
 416 142 428 111 463 111 c 0
EndSplineSet
EndChar
StartChar: uni0E42
Encoding: 183 3650 185
Width: 1100
Flags: HW
Fore
942 850 m 2
 843 388 l 1
 866 394 887 397 907 397 c 0
 954 397 991 380 1016 345 c 0
 1043 308 1051 262 1039 205 c 0
 1033 181 1025 157 1013 134 c 0
 984 77 941 36 882 11 c 0
 851 -2 817 -9 782 -9 c 0
 733 -8 698 -2 673 10 c 0
 652 21 634 36 615 57 c 0
 585 91 578 157 596 255 c 0
 598 270 602 286 606 304 c 2
 722 850 l 2
 739 931 741 987 727 1016 c 0
 697 1083 581 1132 377 1161 c 0
 348 1166 313 1170 271 1175 c 1
 275 1195 302 1240 350 1309 c 0
 368 1334 383 1355 396 1370 c 0
 464 1451 542 1507 630 1539 c 0
 676 1556 717 1564 755 1564 c 0
 764 1564 774 1564 784 1563 c 0
 817 1561 875 1545 958 1516 c 0
 1058 1481 1132 1464 1183 1463 c 0
 1261 1463 1326 1483 1380 1524 c 1
 1280 1297 l 1
 1217 1267 1152 1252 1084 1252 c 0
 1037 1252 975 1268 898 1301 c 0
 830 1329 784 1344 756 1347 c 1
 721 1347 l 1
 709 1346 697 1343 686 1338 c 0
 669 1330 651 1316 633 1295 c 1
 744 1276 831 1237 894 1177 c 0
 895 1176 897 1174 898 1173 c 0
 944 1130 966 1071 963 998 c 1
 957 930 l 1
 953 907 948 880 942 850 c 2
828 111 m 0
 853 111 875 125 894 153 c 0
 902 166 908 180 912 196 c 1
 918 239 910 266 885 277 c 0
 879 280 872 281 864 281 c 0
 833 281 811 261 799 221 c 0
 797 216 796 211 795 205 c 0
 781 142 793 111 828 111 c 0
EndSplineSet
EndChar
StartChar: uni0E43
Encoding: 184 3651 186
Width: 1000
Flags: HW
Fore
629 633 m 2
 647 721 672 788 703 834 c 0
 722 861 744 887 768 910 c 2
 824 962 l 2
 892 1025 935 1078 954 1121 c 0
 960 1134 965 1149 970 1165 c 1
 976 1206 l 1
 980 1260 961 1300 920 1326 c 0
 895 1342 860 1350 815 1350 c 1
 844 1344 862 1317 869 1268 c 1
 871 1225 l 1
 871 1207 869 1190 865 1173 c 0
 862 1158 858 1143 852 1130 c 0
 824 1060 773 1008 699 975 c 0
 650 953 595 942 536 942 c 0
 437 942 371 979 338 1052 c 0
 316 1099 311 1154 325 1217 c 0
 353 1345 429 1439 552 1499 c 0
 613 1530 683 1549 761 1557 c 0
 786 1560 810 1561 833 1561 c 0
 949 1560 1041 1531 1111 1474 c 0
 1129 1459 1143 1444 1154 1428 c 0
 1185 1383 1195 1314 1185 1222 c 0
 1183 1203 1180 1185 1176 1166 c 0
 1157 1083 1110 1009 1034 942 c 0
 991 903 955 866 926 829 c 2
 915 815 l 2
 890 782 872 739 860 685 c 0
 858 677 858 677 849 633 c 2
 796 388 l 1
 819 394 840 397 860 397 c 0
 907 397 944 380 969 345 c 0
 996 308 1004 262 992 205 c 0
 986 181 978 157 966 134 c 0
 937 77 894 36 835 11 c 0
 804 -2 770 -9 735 -9 c 0
 686 -8 651 -2 626 10 c 0
 605 21 587 36 568 57 c 0
 538 91 531 157 549 255 c 0
 551 270 555 286 559 304 c 2
 629 633 l 2
781 111 m 0
 806 111 828 125 847 153 c 0
 855 166 861 180 865 196 c 1
 871 239 863 266 838 277 c 0
 832 280 825 281 817 281 c 0
 786 281 764 261 752 221 c 0
 750 216 749 211 748 205 c 0
 734 142 746 111 781 111 c 0
512 1188 m 0
 502 1134 524 1106 576 1103 c 1
 603 1106 l 1
 636 1113 661 1132 676 1162 c 0
 681 1171 684 1181 686 1190 c 0
 692 1224 681 1248 653 1261 c 1
 630 1268 l 2
 625 1269 620 1269 615 1269 c 0
 577 1269 548 1254 526 1224 c 0
 519 1213 514 1201 512 1188 c 0
EndSplineSet
EndChar
StartChar: uni0E44
Encoding: 185 3652 187
Width: 1140
Flags: HW
Fore
883 1194 m 2
 892 1235 884 1256 861 1256 c 0
 846 1256 828 1242 809 1215 c 1
 760 1148 l 1
 706 1082 636 1048 549 1047 c 0
 534 1047 520 1049 507 1052 c 0
 420 1075 370 1180 354 1366 c 0
 353 1385 350 1436 346 1521 c 1
 543 1521 l 1
 551 1408 563 1336 579 1305 c 0
 588 1290 597 1282 608 1282 c 0
 631 1282 658 1302 687 1343 c 1
 764 1454 l 1
 818 1525 874 1564 934 1571 c 0
 942 1572 950 1572 958 1572 c 0
 1060 1567 1120 1527 1136 1450 c 0
 1144 1419 1143 1382 1134 1341 c 2
 931 388 l 1
 954 394 975 397 995 397 c 0
 1042 397 1079 380 1104 345 c 0
 1131 308 1139 262 1127 205 c 0
 1121 181 1113 157 1101 134 c 0
 1072 77 1029 36 970 11 c 0
 939 -2 905 -9 870 -9 c 0
 821 -8 786 -2 761 10 c 0
 740 21 722 36 703 57 c 0
 673 92 667 162 687 269 c 0
 689 281 691 294 694 308 c 2
 883 1194 l 2
916 111 m 0
 941 111 963 125 982 153 c 0
 990 166 996 180 1000 196 c 1
 1006 239 998 266 973 277 c 0
 967 280 960 281 952 281 c 0
 921 281 899 261 887 221 c 0
 885 216 884 211 883 205 c 0
 869 142 881 111 916 111 c 0
EndSplineSet
EndChar
StartChar: uni0E45
Encoding: 186 3653 188
Width: 1000
Flags: HW
Fore
1044 753 m 2
 803 -380 l 1
 583 -380 l 1
 819 729 l 2
 836 810 820 867 771 901 c 0
 744 920 705 929 658 929 c 0
 599 929 540 904 482 853 c 0
 452 826 426 796 408 764 c 1
 228 846 l 1
 278 928 346 998 430 1056 c 0
 521 1118 608 1149 694 1149 c 0
 842 1149 946 1107 1006 1022 c 0
 1052 958 1066 875 1048 773 c 0
 1044 753 l 2
EndSplineSet
EndChar
StartChar: uni0E46
Encoding: 187 3654 189
Width: 1100
Flags: HW
Fore
437 588 m 1
 456 586 l 1
 479 588 501 602 521 628 c 0
 528 637 534 645 537 652 c 1
 546 691 l 1
 549 719 539 739 516 750 c 0
 511 753 505 754 500 754 c 1
 484 751 l 1
 474 746 464 738 455 727 c 0
 445 715 435 700 426 681 c 0
 420 666 415 653 412 642 c 0
 407 614 415 596 437 588 c 1
888 -380 m 1
 682 -380 l 1
 927 771 l 2
 933 800 929 837 915 880 c 1
 910 901 902 917 892 929 c 1
 781 857 680 857 589 929 c 1
 565 903 549 882 541 866 c 0
 540 865 539 863 539 862 c 1
 618 862 664 827 676 756 c 0
 680 729 679 702 673 674 c 0
 660 611 628 558 577 516 c 0
 529 477 476 457 415 457 c 0
 406 457 398 457 389 458 c 0
 323 464 279 500 259 567 c 0
 246 608 245 654 255 703 c 0
 258 716 262 729 266 741 c 0
 294 821 321 882 349 923 c 0
 367 948 388 974 412 999 c 0
 461 1048 517 1090 580 1124 c 0
 601 1135 620 1144 636 1149 c 1
 772 1041 l 1
 939 1149 l 1
 982 1137 1019 1112 1053 1073 c 1
 1072 1049 l 2
 1103 1011 1123 959 1134 894 c 0
 1142 850 1141 809 1133 771 c 2
 888 -380 l 1
EndSplineSet
EndChar
StartChar: uni0E47
Encoding: 188 3655 190
Width: 0
Flags: HW
AnchorPoint: "AboveMark" -402.193 1227 mark 0
AnchorPoint: "AboveBase" -49.1934 1227 mark 0
Fore
-123 1562 m 1
 -140 1561 -153 1553 -163 1538 c 1
 -169 1522 l 1
 -170 1521 l 1
 -172 1504 -165 1493 -147 1488 c 1
 -134 1487 l 1
 -116 1488 -102 1495 -93 1510 c 0
 -91 1514 -89 1518 -88 1523 c 0
 -85 1540 -91 1552 -107 1559 c 1
 -123 1562 l 1
-222 1434 m 1
 -250 1454 -260 1483 -252 1522 c 0
 -250 1533 -246 1544 -241 1553 c 0
 -217 1596 -179 1623 -129 1633 c 0
 -122 1634 -113 1635 -105 1636 c 1
 -68 1634 l 1
 -20 1627 9 1605 20 1566 c 0
 27 1539 28 1509 21 1476 c 0
 15 1447 4 1420 -11 1395 c 0
 -49 1334 -100 1298 -162 1287 c 0
 -174 1285 -185 1284 -196 1284 c 0
 -271 1284 -332 1300 -378 1333 c 2
 -420 1362 l 1
 -434 1369 -448 1372 -463 1372 c 0
 -484 1372 -499 1354 -509 1318 c 0
 -515 1296 -520 1285 -523 1284 c 0
 -622 1284 -684 1320 -710 1393 c 0
 -722 1428 -724 1467 -715 1510 c 0
 -711 1529 -705 1546 -698 1563 c 0
 -661 1640 -608 1696 -536 1730 c 0
 -517 1739 -498 1746 -478 1751 c 1
 -447 1761 -387 1768 -299 1773 c 0
 -206 1779 -138 1791 -97 1809 c 0
 -55 1828 -24 1856 -5 1894 c 1
 177 1894 l 1
 161 1844 122 1793 58 1741 c 0
 5 1698 -45 1671 -91 1660 c 0
 -117 1653 -177 1646 -274 1637 c 0
 -379 1628 -450 1612 -487 1589 c 0
 -509 1576 -524 1559 -531 1538 c 1
 -540 1511 l 1
 -540 1509 -541 1507 -540 1506 c 0
 -540 1502 -538 1495 -534 1486 c 1
 -509 1521 -479 1539 -446 1539 c 0
 -439 1539 -432 1538 -426 1536 c 0
 -395 1528 -369 1513 -347 1492 c 0
 -311 1459 -287 1439 -275 1434 c 0
 -264 1429 -255 1427 -248 1427 c 1
 -230 1430 l 1
 -227 1431 -224 1433 -222 1434 c 1
EndSplineSet
EndChar
StartChar: uni0E48
Encoding: 189 3656 191
Width: 0
Flags: HW
AnchorPoint: "AboveMark" 107.849 1740 mark 0
Fore
70 2106 m 1
 301 2106 l 1
 241 1826 l 5
 10 1826 l 1
 70 2106 l 1
EndSplineSet
Substitution: 0 65534 'loww' uni0E48.low
Substitution: 0 65534 'amni' uni0E4D
EndChar
StartChar: uni0E49
Encoding: 190 3657 192
Width: 0
Flags: HW
AnchorPoint: "AboveMark" 83.8486 1740 mark 0
Fore
524 2156 m 1
 463 2021 354 1910 200 1825 c 0
 102 1770 -4 1734 -120 1716 c 0
 -152 1711 -188 1707 -230 1703 c 1
 -207 1810 l 1
 -160 1821 -127 1840 -109 1867 c 0
 -105 1872 -102 1878 -99 1885 c 1
 -114 1880 -129 1878 -144 1878 c 0
 -164 1877 -182 1882 -198 1891 c 1
 -219 1906 l 2
 -223 1910 -227 1915 -231 1920 c 0
 -252 1950 -258 1987 -249 2030 c 1
 -235 2080 -206 2119 -161 2146 c 0
 -135 2161 -107 2169 -79 2170 c 1
 -40 2167 l 1
 13 2158 48 2131 68 2087 c 1
 76 2057 l 1
 78 2025 l 1
 77 2009 l 1
 67 1966 l 1
 49 1925 l 1
 43 1915 l 1
 98 1926 152 1953 206 1994 c 0
 226 2010 246 2027 263 2046 c 0
 295 2081 321 2117 342 2156 c 1
 524 2156 l 1
-110 1966 m 0
 -90 1966 -73 1975 -58 1994 c 0
 -51 2002 -48 2011 -46 2020 c 0
 -42 2039 -47 2054 -64 2065 c 0
 -71 2070 -78 2073 -87 2073 c 0
 -109 2073 -127 2063 -142 2044 c 1
 -151 2026 l 2
 -153 2024 -153 2022 -154 2020 c 0
 -159 1997 -151 1980 -132 1970 c 0
 -126 1967 -118 1966 -110 1966 c 0
EndSplineSet
Substitution: 0 65534 'loww' uni0E49.low
Substitution: 0 65534 'amni' uni0E4D
EndChar
StartChar: uni0E4A
Encoding: 191 3658 193
Width: 0
Flags: HW
AnchorPoint: "AboveMark" -88.1514 1740 mark 0
Fore
-216 1798 m 0
 -216 1822 -224 1835 -240 1837 c 1
 -252 1836 l 1
 -272 1831 -286 1821 -294 1806 c 1
 -298 1794 l 1
 -297 1769 -287 1756 -267 1756 c 0
 -250 1756 -236 1764 -224 1780 c 0
 -220 1785 -216 1791 -216 1798 c 0
255 1918 m 1
 406 2169 l 1
 586 2169 l 2
 585 2169 518 2057 385 1832 c 0
 334 1747 240 1695 102 1677 c 0
 79 1674 54 1672 30 1672 c 1
 64 1711 86 1754 96 1802 c 0
 109 1861 102 1911 77 1950 c 1
 71 1961 64 1970 55 1976 c 1
 -112 1858 l 1
 -192 1946 l 1
 -226 1975 l 1
 -227 1976 l 1
 -253 1967 -276 1949 -295 1922 c 0
 -298 1919 -300 1915 -302 1912 c 0
 -305 1906 -309 1897 -312 1886 c 1
 -287 1905 -259 1914 -228 1914 c 0
 -180 1914 -152 1893 -143 1851 c 0
 -141 1843 -140 1835 -140 1826 c 1
 -144 1793 l 1
 -154 1750 -178 1717 -217 1694 c 0
 -223 1691 -228 1689 -234 1686 c 0
 -260 1674 -289 1668 -322 1668 c 0
 -350 1668 -376 1672 -397 1681 c 0
 -442 1700 -469 1738 -476 1795 c 0
 -480 1822 -479 1851 -472 1882 c 0
 -470 1891 -468 1899 -465 1908 c 0
 -448 1972 -400 2031 -323 2086 c 0
 -279 2116 -235 2139 -189 2154 c 1
 -74 2036 l 1
 93 2154 l 1
 154 2132 201 2096 233 2046 c 0
 258 2007 267 1969 258 1931 c 1
 255 1918 l 1
EndSplineSet
Substitution: 0 65534 'loww' uni0E4A.low
Substitution: 0 65534 'amni' uni0E4D
EndChar
StartChar: uni0E4B
Encoding: 192 3659 194
Width: 0
Flags: HW
AnchorPoint: "AboveMark" -24.4072 1640 mark 0
Fore
217 1793 m 1
 94 1793 l 1
 68 1670 l 1
 -104 1670 l 1
 -78 1793 l 1
 -209 1793 l 1
 -172 1967 l 1
 -41 1967 l 1
 -13 2096 l 1
 159 2096 l 1
 131 1967 l 1
 254 1967 l 1
 217 1793 l 1
EndSplineSet
Substitution: 0 65534 'loww' uni0E4B.low
Substitution: 0 65534 'amni' uni0E4D
EndChar
StartChar: uni0E4C
Encoding: 193 3660 195
Width: 0
Flags: HW
AnchorPoint: "AboveMark" -45.1514 1740 mark 0
Fore
513 2169 m 1
 481 2114 428 2060 353 2009 c 0
 301 1974 246 1947 188 1930 c 0
 166 1923 146 1919 128 1918 c 1
 158 1901 174 1867 174 1817 c 5
 170 1789 l 1
 164 1764 148 1734 121 1699 c 0
 93 1662 50 1637 -10 1625 c 0
 -22 1623 -34 1622 -45 1621 c 1
 -88 1624 l 1
 -143 1633 -182 1651 -206 1680 c 2
 -208 1683 l 2
 -232 1716 -241 1756 -234 1805 c 1
 -229 1831 l 1
 -211 1891 -179 1937 -135 1969 c 0
 -95 1998 -25 2023 76 2044 c 0
 120 2053 148 2060 159 2063 c 0
 210 2079 256 2102 296 2133 c 0
 312 2146 325 2158 333 2169 c 1
 513 2169 l 1
-17 1857 m 0
 -46 1857 -69 1846 -86 1824 c 0
 -93 1815 -99 1804 -101 1793 c 0
 -104 1777 -99 1763 -86 1750 c 0
 -74 1739 -59 1733 -40 1733 c 1
 -7 1738 17 1752 31 1775 c 0
 36 1782 38 1788 40 1795 c 0
 46 1824 36 1843 11 1852 c 0
 2 1855 -6 1857 -17 1857 c 0
EndSplineSet
Substitution: 0 65534 'loww' uni0E4C.low
EndChar
StartChar: uni0E4D
Encoding: 194 3661 196
Width: 0
Flags: W
HStem: 1206 104<-26.5 28.5> 1415 107<28.5 84.5>
AnchorPoint: "AboveMark" 108.849 1740 basemark 0
AnchorPoint: "AboveBase" 155.807 1227 mark 0
Fore
63 1522 m 0
 106 1522 139 1507 164 1476 c 1
 187 1444 194 1406 185 1362 c 0
 175 1319 153 1283 116 1252 c 0
 79 1221 38 1206 -5 1206 c 0
 -48 1206 -81 1221 -106 1252 c 0
 -130 1283 -139 1319 -129 1362 c 0
 -120 1406 -96 1444 -58 1476 c 0
 -21 1507 20 1522 63 1522 c 0
17 1310 m 0
 40 1310 59 1320 73 1340 c 0
 77 1347 81 1354 83 1362 c 0
 87 1384 81 1400 63 1410 c 0
 56 1413 49 1415 40 1415 c 0
 17 1415 -1 1405 -16 1385 c 1
 -25 1366 l 1
 -25 1362 l 2
 -30 1340 -24 1324 -4 1315 c 0
 2 1312 9 1310 17 1310 c 0
EndSplineSet
Substitution: 0 65534 'high' uni0E4D.high
Substitution: 0 65534 'G007' uni0E4B
Substitution: 0 65534 'G006' uni0E4A
Substitution: 0 65534 'G005' uni0E49
Substitution: 0 65534 'G004' uni0E48
EndChar
StartChar: uni0E4E
Encoding: 195 3662 197
Width: 0
Flags: HW
AnchorPoint: "AboveBase" 125.807 1227 mark 0
Fore
299 1885 m 1
 243 1900 189 1908 136 1909 c 1
 98 1907 l 1
 70 1902 53 1888 49 1866 c 0
 43 1839 58 1820 93 1810 c 0
 108 1806 125 1804 145 1804 c 2
 215 1804 l 1
 188 1675 l 1
 123 1675 l 2
 45 1675 -0 1659 -14 1627 c 0
 -16 1624 -17 1620 -17 1617 c 1
 -17 1605 l 1
 -8 1584 28 1572 93 1567 c 0
 103 1566 112 1566 120 1566 c 2
 198 1566 l 1
 172 1444 l 5
 88 1444 l 2
 -12 1444 -87 1461 -138 1495 c 128
 -189 1529 -209 1569 -200 1616 c 0
 -191 1655 -165 1691 -120 1722 c 0
 -105 1732 -91 1739 -79 1744 c 1
 -111 1769 -126 1804 -123 1850 c 1
 -118 1884 l 1
 -105 1929 -78 1964 -33 1991 c 0
 17 2021 79 2036 154 2036 c 0
 210 2036 267 2028 326 2013 c 1
 299 1885 l 1
EndSplineSet
EndChar
StartChar: uni0E4F
Encoding: 196 3663 198
Width: 1250
Flags: HW
Fore
798 852 m 0
 706 852 619 818 540 751 c 1
 459 684 408 603 388 507 c 0
 368 413 385 332 436 264 c 0
 487 197 560 163 652 163 c 0
 746 163 832 197 913 264 c 1
 993 332 1043 413 1063 507 c 0
 1083 603 1067 684 1017 751 c 0
 964 818 892 852 798 852 c 0
703 406 m 0
 732 406 758 416 780 435 c 0
 803 454 818 478 824 508 c 0
 830 537 825 562 811 581 c 0
 798 600 775 609 746 609 c 0
 718 609 694 600 670 581 c 0
 648 562 634 537 628 508 c 0
 622 478 626 454 639 435 c 0
 654 416 675 406 703 406 c 0
837 1040 m 0
 981 1040 1093 988 1173 884 c 0
 1252 780 1276 655 1245 509 c 0
 1214 363 1137 238 1013 134 c 1
 889 30 756 -21 612 -21 c 0
 469 -21 357 30 278 134 c 0
 199 238 174 363 205 509 c 0
 236 655 314 780 438 884 c 1
 561 988 694 1040 837 1040 c 0
671 258 m 0
 597 258 542 282 504 330 c 0
 467 377 456 438 472 511 c 0
 487 584 524 644 581 692 c 0
 639 739 704 763 778 763 c 0
 852 763 908 739 945 692 c 0
 983 644 994 584 979 511 c 0
 963 438 926 377 868 330 c 0
 811 282 745 258 671 258 c 0
EndSplineSet
EndChar
StartChar: uni0E50
Encoding: 197 3664 199
Width: 1250
Flags: HW
Fore
673 230 m 0
 741 230 803 255 859 305 c 0
 907 348 938 399 950 458 c 0
 965 529 952 586 908 631 c 0
 873 668 827 686 770 686 c 0
 703 685 641 660 588 610 c 1
 559 580 l 1
 529 543 510 503 500 458 c 0
 485 385 499 327 540 282 c 0
 573 247 617 230 673 230 c 0
620 -10 m 0
 497 -10 399 28 327 105 c 0
 255 183 225 283 239 405 c 0
 241 422 244 440 247 458 c 0
 273 581 336 686 434 773 c 0
 534 860 647 910 777 922 c 0
 790 923 804 924 818 924 c 2
 883 921 l 1
 1011 908 1104 853 1164 756 c 0
 1214 674 1230 581 1213 477 c 0
 1211 467 1211 467 1209 458 c 0
 1185 343 1123 241 1026 153 c 0
 930 68 824 16 706 -3 c 0
 677 -8 649 -10 620 -10 c 0
EndSplineSet
EndChar
StartChar: uni0E51
Encoding: 198 3665 200
Width: 1300
Flags: HW
Fore
989 524 m 0
 989 656 921 722 786 722 c 2
 779 722 l 2
 692 721 628 685 587 616 c 0
 573 591 563 567 558 544 c 0
 553 521 553 497 559 474 c 0
 568 435 588 415 618 414 c 0
 628 414 638 417 648 422 c 1
 617 440 601 472 602 518 c 1
 606 550 l 1
 618 600 648 638 694 663 c 0
 705 669 717 674 729 677 c 0
 751 684 774 687 799 687 c 0
 827 687 852 683 873 675 c 0
 907 664 932 638 947 599 c 0
 953 584 956 569 957 553 c 1
 960 521 958 491 952 462 c 0
 945 427 930 393 908 360 c 0
 855 281 783 231 694 211 c 0
 669 206 642 203 615 203 c 0
 516 203 437 236 379 302 c 0
 362 322 348 344 337 367 c 0
 317 412 315 474 330 552 c 1
 346 609 l 1
 359 643 373 672 390 697 c 0
 483 829 606 904 757 921 c 0
 779 924 802 925 824 925 c 0
 938 924 1034 893 1108 832 c 0
 1143 803 1170 770 1187 733 c 0
 1190 727 1192 721 1194 715 c 0
 1220 644 1223 560 1202 463 c 0
 1178 347 1128 250 1054 172 c 0
 1049 167 1045 163 1041 159 c 0
 946 66 821 12 664 -4 c 0
 633 -7 602 -9 572 -9 c 0
 431 -8 322 23 244 84 c 0
 231 93 220 104 209 115 c 1
 344 292 l 1
 393 245 441 213 491 197 c 0
 522 188 556 181 596 178 c 1
 652 178 l 1
 738 183 809 213 867 270 c 0
 930 331 969 395 983 463 c 0
 988 483 990 503 989 524 c 0
701 545 m 0
 696 520 703 503 723 492 c 0
 731 487 739 485 750 485 c 0
 781 485 804 500 818 529 c 0
 822 535 824 541 825 548 c 0
 830 569 822 585 803 596 c 0
 795 601 784 603 773 603 c 0
 746 602 726 591 711 568 c 0
 706 561 703 553 701 545 c 0
EndSplineSet
EndChar
StartChar: uni0E52
Encoding: 199 3666 201
Width: 1350
Flags: HW
Fore
709 513 m 0
 704 490 711 474 730 465 c 0
 736 462 743 461 751 461 c 0
 777 461 797 473 809 496 c 0
 813 502 815 509 817 516 c 0
 821 537 813 552 793 559 c 0
 786 562 779 563 771 563 c 0
 745 562 727 551 715 530 c 0
 713 525 710 519 709 513 c 0
545 0 m 1
 429 7 352 54 316 141 c 0
 297 187 290 242 297 307 c 1
 338 611 l 1
 357 801 350 975 316 1134 c 1
 550 1134 l 1
 577 979 577 788 552 560 c 0
 537 438 529 363 528 334 c 0
 525 284 541 250 574 231 c 0
 582 226 591 223 602 221 c 0
 620 218 644 216 673 216 c 2
 1050 217 l 1
 1112 506 l 2
 1124 566 1124 620 1109 667 c 0
 1103 684 1096 695 1085 702 c 1
 1085 701 1045 678 966 632 c 1
 867 702 l 1
 860 696 853 687 846 674 c 1
 872 668 895 651 915 624 c 1
 934 599 942 565 936 523 c 2
 935 511 l 1
 926 469 902 430 864 394 c 0
 828 360 784 343 732 343 c 0
 649 343 597 369 578 420 c 0
 564 458 565 513 581 586 c 1
 600 664 638 732 694 790 c 0
 722 819 767 851 827 885 c 0
 861 904 890 917 914 924 c 1
 914 923 946 892 1009 831 c 1
 1132 924 l 1
 1189 908 1239 867 1282 801 c 0
 1309 760 1325 719 1331 679 c 0
 1339 631 1336 573 1322 506 c 2
 1214 0 l 1
 545 0 l 1
EndSplineSet
EndChar
StartChar: uni0E53
Encoding: 200 3667 202
Width: 1400
Flags: HW
Fore
350 138 m 1
 352 115 368 104 396 104 c 2
 410 105 l 1
 439 112 455 127 460 151 c 0
 465 176 457 192 435 197 c 1
 414 198 l 1
 409 197 405 196 400 195 c 0
 378 190 362 176 355 153 c 1
 350 138 l 1
214 108 m 0
 187 219 179 337 190 460 c 0
 193 495 198 529 205 561 c 0
 244 743 332 857 471 903 c 0
 511 916 553 923 599 924 c 1
 656 922 l 1
 738 913 801 884 845 835 c 0
 858 822 867 807 873 792 c 1
 915 849 976 888 1054 909 c 0
 1089 919 1126 924 1163 924 c 0
 1384 924 1464 778 1403 487 c 0
 1387 408 1359 318 1320 217 c 0
 1295 150 1264 77 1229 0 c 1
 1000 0 l 1
 1072 166 1120 304 1143 415 c 0
 1173 557 1156 628 1093 628 c 0
 1019 628 964 589 927 510 c 0
 908 470 890 409 872 326 c 1
 850 216 l 1
 646 216 l 1
 670 327 683 393 686 414 c 0
 702 531 683 601 629 625 c 0
 613 632 594 636 571 636 c 0
 495 636 448 593 429 506 c 0
 424 486 422 464 420 439 c 0
 419 406 421 369 426 328 c 1
 438 331 451 333 463 333 c 0
 482 334 500 330 517 321 c 0
 529 315 538 308 547 300 c 0
 584 263 597 218 586 163 c 0
 561 48 479 -10 339 -10 c 1
 275 -3 234 33 216 96 c 0
 216 100 215 104 214 108 c 0
EndSplineSet
EndChar
StartChar: uni0E54
Encoding: 201 3668 203
Width: 1550
Flags: HW
Fore
1778 1262 m 1
 1754 1164 1700 1063 1616 960 c 0
 1572 905 1529 862 1486 830 c 0
 1375 746 1237 704 1074 704 c 2
 814 704 l 2
 663 704 561 659 509 568 c 0
 492 539 479 503 470 462 c 0
 459 411 470 360 502 311 c 1
 539 260 584 233 634 231 c 1
 683 231 788 252 950 295 c 0
 973 301 l 1
 950 322 934 344 924 368 c 0
 910 403 905 433 911 459 c 0
 926 533 959 590 1010 631 c 0
 1062 672 1119 692 1183 692 c 0
 1247 692 1292 675 1318 642 c 1
 1347 603 1357 555 1346 500 c 1
 1334 442 1306 394 1263 357 c 0
 1230 329 1194 314 1155 313 c 1
 1179 302 1209 294 1245 289 c 0
 1255 288 1264 286 1270 284 c 0
 1334 267 1393 230 1447 173 c 1
 1253 -2 l 1
 1232 22 1207 41 1178 55 c 0
 1150 69 1105 76 1046 76 c 0
 1003 76 938 64 850 40 c 0
 737 9 647 -6 579 -6 c 0
 453 -6 356 40 287 132 c 128
 219 224 198 336 227 469 c 0
 258 618 332 731 449 808 c 128
 565 885 705 924 868 924 c 2
 1114 924 l 2
 1326 924 1470 1037 1546 1262 c 1
 1778 1262 l 1
1126 424 m 0
 1145 424 1163 431 1179 444 c 0
 1195 456 1205 471 1209 489 c 0
 1213 508 1209 524 1199 538 c 1
 1189 551 1173 557 1154 557 c 0
 1135 557 1118 550 1102 537 c 0
 1086 524 1077 508 1073 489 c 0
 1069 471 1072 456 1082 444 c 0
 1093 431 1107 424 1126 424 c 0
EndSplineSet
EndChar
StartChar: uni0E55
Encoding: 202 3669 204
Width: 1550
Flags: HW
Fore
814 922 m 1
 809 948 809 973 814 997 c 0
 825 1049 853 1093 898 1130 c 0
 943 1167 992 1186 1045 1186 c 0
 1097 1186 1138 1167 1167 1130 c 0
 1196 1093 1206 1049 1195 997 c 0
 1189 970 1179 947 1166 926 c 1
 1351 945 1478 1057 1546 1262 c 1
 1778 1262 l 1
 1754 1164 1700 1063 1616 960 c 0
 1572 905 1529 862 1486 830 c 0
 1375 746 1237 704 1074 704 c 2
 814 704 l 2
 663 704 561 659 509 568 c 0
 492 539 479 503 470 462 c 0
 459 411 470 360 502 311 c 1
 539 260 584 233 634 231 c 1
 683 231 788 252 950 295 c 0
 973 301 l 1
 950 322 934 344 924 368 c 0
 910 403 905 433 911 459 c 0
 926 533 959 590 1010 631 c 0
 1062 672 1119 692 1183 692 c 0
 1247 692 1292 675 1318 642 c 1
 1347 603 1357 555 1346 500 c 1
 1334 442 1306 394 1263 357 c 0
 1230 329 1194 314 1155 313 c 1
 1179 302 1209 294 1245 289 c 0
 1255 288 1264 286 1270 284 c 0
 1334 267 1393 230 1447 173 c 1
 1253 -2 l 1
 1232 22 1207 41 1178 55 c 0
 1150 69 1105 76 1046 76 c 0
 1003 76 938 64 850 40 c 0
 737 9 647 -6 579 -6 c 0
 453 -6 356 40 287 132 c 128
 219 224 198 336 227 469 c 0
 258 618 332 731 449 808 c 0
 550 875 672 913 814 922 c 1
1126 424 m 0
 1145 424 1163 431 1179 444 c 0
 1195 456 1205 471 1209 489 c 0
 1213 508 1209 524 1199 538 c 1
 1189 551 1173 557 1154 557 c 0
 1135 557 1118 550 1102 537 c 0
 1086 524 1077 508 1073 489 c 0
 1069 471 1072 456 1082 444 c 0
 1093 431 1107 424 1126 424 c 0
992 937 m 0
 1008 937 1023 943 1039 955 c 0
 1053 966 1062 979 1065 995 c 0
 1069 1013 1067 1028 1057 1039 c 0
 1047 1051 1035 1057 1018 1057 c 0
 1001 1057 984 1051 970 1039 c 0
 955 1028 945 1013 941 995 c 0
 938 979 941 966 952 955 c 1
 961 943 975 937 992 937 c 0
EndSplineSet
EndChar
StartChar: uni0E56
Encoding: 203 3670 205
Width: 1300
Flags: HW
Fore
668 900 m 1
 733 916 782 925 815 927 c 0
 826 928 838 928 850 928 c 0
 1010 928 1131 883 1212 792 c 0
 1294 702 1320 583 1289 436 c 0
 1260 301 1191 191 1082 108 c 0
 973 25 851 -16 716 -16 c 0
 605 -16 519 20 459 91 c 0
 399 162 380 245 400 338 c 0
 416 413 450 474 503 522 c 0
 556 570 614 594 677 594 c 0
 729 594 770 575 799 538 c 0
 828 501 838 457 827 406 c 0
 817 356 791 313 749 276 c 0
 735 263 720 253 703 244 c 1
 705 223 725 211 760 207 c 0
 765 206 771 206 776 206 c 0
 863 206 935 234 990 289 c 0
 1030 327 1054 374 1066 429 c 0
 1093 557 1056 642 954 683 c 1
 907 697 l 1
 876 704 841 708 803 708 c 0
 690 708 585 689 486 650 c 1
 430 930 368 1124 300 1232 c 0
 293 1243 287 1253 280 1262 c 1
 583 1262 l 1
 637 1135 666 1014 668 900 c 1
626 344 m 0
 643 344 659 350 674 362 c 1
 689 373 699 386 702 402 c 0
 706 420 703 435 693 447 c 0
 683 459 669 465 652 465 c 0
 635 465 619 459 603 446 c 1
 587 435 578 420 574 402 c 0
 571 386 574 373 585 362 c 1
 595 350 609 344 626 344 c 0
EndSplineSet
EndChar
StartChar: uni0E57
Encoding: 204 3671 206
Width: 1540
Flags: HW
Fore
1488 334 m 2
 1441 111 1297 0 1057 0 c 2
 771 0 l 1
 773 10 l 1
 809 53 847 117 888 203 c 0
 929 289 957 367 972 436 c 0
 1003 583 992 657 939 657 c 0
 901 657 873 643 855 614 c 0
 838 589 823 543 809 477 c 0
 807 467 l 1
 591 467 l 1
 604 550 607 602 601 624 c 0
 596 636 590 645 580 650 c 1
 560 656 l 2
 556 657 551 657 546 657 c 0
 512 657 485 632 466 582 c 1
 448 520 l 1
 443 504 438 479 431 445 c 0
 423 408 421 379 423 358 c 1
 436 363 451 366 467 366 c 0
 471 366 471 366 478 366 c 0
 527 364 566 344 595 306 c 0
 623 268 631 223 621 172 c 0
 610 120 581 76 536 39 c 0
 490 2 442 -16 390 -16 c 0
 307 -16 250 23 219 101 c 0
 189 179 189 291 220 436 c 0
 275 695 370 850 505 903 c 0
 534 915 567 922 602 924 c 1
 650 923 l 1
 719 916 761 884 777 825 c 1
 815 891 883 924 981 924 c 0
 995 924 l 0
 1124 921 1195 847 1212 704 c 0
 1218 646 1216 578 1203 499 c 0
 1200 478 1195 457 1191 436 c 0
 1174 358 1159 303 1148 271 c 0
 1141 254 1132 235 1123 216 c 1
 1138 216 l 2
 1181 216 1214 239 1239 285 c 0
 1247 301 1253 319 1257 338 c 2
 1425 1130 l 1
 1657 1130 l 1
 1488 334 l 2
416 109 m 0
 440 109 461 120 476 141 c 0
 483 151 488 162 491 173 c 0
 496 196 489 214 471 225 c 0
 463 231 454 234 443 234 c 0
 420 234 400 224 383 203 c 0
 376 194 371 184 369 173 c 0
 363 147 370 128 389 116 c 0
 397 111 406 109 416 109 c 0
EndSplineSet
EndChar
StartChar: uni0E58
Encoding: 205 3672 207
Width: 1580
Flags: HW
Fore
1786 1263 m 1
 1770 1195 l 1
 1738 1088 1689 990 1622 902 c 0
 1589 860 1556 827 1524 804 c 0
 1452 753 1335 719 1172 702 c 0
 1136 699 l 0
 1110 697 1029 695 891 692 c 0
 779 690 681 671 597 636 c 0
 565 623 538 598 515 562 c 0
 500 537 489 509 483 478 c 0
 479 462 l 0
 471 411 484 369 520 336 c 0
 538 320 559 310 581 306 c 1
 591 351 608 390 633 423 c 0
 638 430 638 430 645 438 c 0
 676 475 721 500 781 511 c 0
 796 514 812 516 827 516 c 0
 862 516 895 506 928 487 c 0
 959 468 998 424 1042 354 c 0
 1095 273 1095 273 1099 267 c 0
 1125 232 1160 215 1203 215 c 0
 1227 216 1247 229 1262 255 c 0
 1267 263 1271 271 1273 280 c 0
 1275 293 1273 302 1268 309 c 1
 1215 309 1174 328 1146 366 c 0
 1118 403 1109 448 1120 500 c 0
 1131 551 1159 595 1204 632 c 0
 1249 669 1298 688 1350 688 c 0
 1425 688 1480 660 1515 603 c 0
 1550 546 1558 472 1539 381 c 0
 1513 258 1464 161 1394 92 c 0
 1323 23 1242 -12 1152 -12 c 0
 1107 -12 1064 1 1023 28 c 0
 981 54 934 110 882 196 c 0
 846 254 820 283 803 283 c 0
 774 283 750 236 730 141 c 2
 700 0 l 1
 575 0 l 2
 446 0 349 45 282 134 c 0
 216 223 198 335 227 469 c 0
 258 615 332 728 449 808 c 0
 539 869 659 906 808 917 c 0
 824 918 901 921 1039 925 c 0
 1166 929 1262 944 1325 971 c 0
 1432 1015 1502 1102 1539 1232 c 0
 1542 1242 1544 1252 1546 1262 c 1
 1786 1263 l 1
1294 424 m 0
 1324 424 1349 437 1368 462 c 0
 1378 473 1383 485 1386 498 c 0
 1392 529 1384 552 1361 566 c 1
 1341 574 l 1
 1326 575 l 2
 1295 575 1270 562 1251 535 c 1
 1238 513 l 1
 1236 508 1235 503 1234 498 c 0
 1228 469 1236 448 1258 434 c 0
 1268 427 1280 424 1294 424 c 0
EndSplineSet
EndChar
StartChar: uni0E59
Encoding: 206 3673 208
Width: 1500
Flags: HW
Fore
1654 1130 m 1
 1623 985 1577 845 1513 708 c 0
 1500 678 1487 653 1476 633 c 0
 1426 548 1366 495 1296 475 c 0
 1279 470 1262 468 1245 468 c 0
 1183 468 1140 479 1115 501 c 0
 1107 508 1099 518 1091 530 c 1
 1052 598 l 1
 1043 611 1032 617 1019 618 c 1
 996 616 l 1
 977 608 l 1
 961 599 945 580 929 552 c 1
 1029 0 l 1
 802 0 l 1
 699 477 l 1
 691 518 683 549 674 569 c 0
 660 600 634 615 595 615 c 0
 555 615 520 598 491 564 c 1
 468 535 l 1
 452 511 439 478 429 435 c 0
 423 406 421 379 422 356 c 1
 432 361 439 363 444 363 c 2
 472 362 l 2
 526 362 567 343 595 306 c 0
 623 268 631 223 621 172 c 0
 610 120 581 76 536 39 c 0
 490 2 442 -16 390 -16 c 0
 307 -16 250 23 219 101 c 0
 189 179 189 291 220 436 c 0
 253 593 308 714 384 798 c 0
 460 882 553 924 663 924 c 0
 766 924 835 875 867 776 c 1
 931 875 998 924 1070 924 c 0
 1095 924 1118 916 1137 900 c 128
 1158 884 1179 849 1202 794 c 0
 1217 757 1238 738 1265 738 c 0
 1271 738 l 0
 1307 744 1346 812 1388 943 c 0
 1404 994 1422 1056 1442 1130 c 1
 1654 1130 l 1
415 107 m 0
 432 107 448 113 462 126 c 1
 478 139 487 154 491 173 c 0
 494 190 492 205 481 218 c 0
 473 230 459 236 442 236 c 0
 425 236 410 230 396 218 c 0
 381 205 371 190 368 173 c 0
 364 154 367 139 376 126 c 0
 385 113 398 107 415 107 c 0
EndSplineSet
EndChar
StartChar: uni0E5A
Encoding: 207 3674 209
Width: 1400
Flags: HW
Fore
1269 1149 m 1
 1025 0 l 1
 805 0 l 1
 970 776 l 1
 915 722 833 687 724 672 c 0
 692 667 660 665 628 665 c 0
 531 665 454 683 396 719 c 0
 357 743 332 782 321 836 c 0
 315 861 315 887 319 914 c 1
 331 958 l 1
 352 1023 392 1074 450 1110 c 0
 480 1129 511 1140 543 1144 c 1
 591 1147 l 1
 666 1146 718 1117 749 1061 c 1
 750 1057 751 1053 753 1050 c 0
 761 1031 762 1005 755 972 c 0
 750 944 739 918 725 895 c 0
 717 880 708 869 697 860 c 1
 731 857 l 1
 780 858 826 871 868 895 c 0
 871 896 874 898 877 900 c 0
 945 943 998 1011 1033 1103 c 0
 1040 1118 1045 1133 1049 1149 c 1
 1269 1149 l 1
464 958 m 1
 461 936 l 1
 461 911 473 896 498 890 c 0
 503 889 508 889 513 889 c 0
 538 889 560 899 580 920 c 0
 590 932 597 945 600 958 c 0
 605 981 598 1000 579 1013 c 0
 570 1020 559 1023 547 1023 c 0
 513 1023 488 1008 472 978 c 1
 464 958 l 1
1284 0 m 1
 1065 0 l 1
 1309 1149 l 1
 1528 1149 l 1
 1284 0 l 1
EndSplineSet
EndChar
StartChar: uni0E5B
Encoding: 208 3675 210
Width: 2370
Flags: HW
Fore
1840 300 m 0
 1796 300 1726 94 1620 94 c 0
 1528 94 1571 304 1517 304 c 0
 1472 304 1416 88 1311 88 c 0
 1194 88 1214 208 1208 300 c 1
 1175 296 1158 234 1043 136 c 1
 955 45 819 -12 602 -10 c 0
 467 -9 360 54 292 150 c 0
 222 246 206 342 236 483 c 0
 265 622 338 762 439 844 c 0
 571 950 698 986 788 986 c 0
 880 986 1017 964 1072 848 c 0
 1122 746 1105 600 1051 504 c 0
 973 364 820 274 670 272 c 0
 541 270 469 364 481 464 c 0
 494 584 566 666 630 706 c 0
 691 744 752 742 798 714 c 0
 827 697 841 678 844 642 c 0
 848 606 836 566 816 537 c 0
 793 504 765 486 729 473 c 0
 700 463 667 458 640 471 c 1
 636 457 700 427 780 452 c 0
 836 469 892 530 906 612 c 0
 925 722 841 786 729 786 c 0
 649 786 567 730 531 690 c 0
 464 618 444 546 427 464 c 0
 416 416 430 328 476 282 c 0
 515 242 587 222 657 222 c 0
 843 222 952 317 1002 368 c 1
 1109 484 1184 615 1282 615 c 0
 1423 615 1329 410 1379 410 c 0
 1455 410 1440 615 1588 615 c 8
 1698 615 1630 384 1700 384 c 0
 1754 384 1770 507 1868 507 c 0
 1954 507 1916 364 2056 364 c 2
 2435 364 l 9
 2400 198 l 17
 2015 198 l 2
 1881 198 1857 300 1840 300 c 0
748 603 m 0
 753 625 739 643 715 643 c 0
 692 643 668 624 664 601 c 0
 660 579 674 561 699 561 c 0
 722 562 744 580 748 603 c 0
EndSplineSet
EndChar
StartChar: afii301
Encoding: 211 8205 212
Width: 0
Flags: HW
Fore
-22 -275 m 1
 -94 -275 l 1
 201 1114 l 1
 38 978 l 1
 -1 1027 l 1
 206 1196 l 1
 71 1364 l 1
 130 1413 l 1
 264 1242 l 1
 470 1413 l 1
 509 1364 l 1
 302 1196 l 1
 437 1027 l 1
 378 978 l 1
 273 1114 l 1
 -22 -275 l 1
EndSplineSet
EndChar
StartChar: afii299
Encoding: 212 8206 213
Width: 0
Flags: HW
Fore
685 1198 m 1
 422 984 l 1
 384 1033 l 1
 548 1163 l 1
 282 1163 l 1
 -23 -275 l 1
 -94 -275 l 1
 226 1234 l 1
 563 1234 l 1
 454 1364 l 1
 513 1413 l 1
 685 1198 l 1
EndSplineSet
EndChar
StartChar: afii300
Encoding: 213 8207 214
Width: 0
Flags: HW
Fore
-23 -275 m 1
 -94 -275 l 1
 211 1163 l 1
 -55 1163 l 1
 55 1033 l 1
 -5 984 l 1
 -176 1198 l 1
 86 1413 l 1
 125 1364 l 1
 -40 1234 l 1
 297 1234 l 1
 -23 -275 l 1
EndSplineSet
EndChar
StartChar: uni2010
Encoding: 214 8208 215
Width: 973
Flags: HW
Fore
353 768 m 1
 978 768 l 1
 930 543 l 1
 305 543 l 1
 353 768 l 1
EndSplineSet
EndChar
StartChar: endash
Encoding: 215 8211 216
Width: 1125
Flags: HW
Fore
1238 525 m 1
 112 525 l 1
 161 759 l 1
 1287 759 l 1
 1238 525 l 1
EndSplineSet
EndChar
StartChar: emdash
Encoding: 216 8212 217
Width: 1886
Flags: HW
Fore
1982 525 m 1
 112 525 l 1
 164 770 l 1
 2034 770 l 1
 1982 525 l 1
EndSplineSet
EndChar
StartChar: afii00208
Encoding: 217 8213 218
Width: 1862
Flags: HW
Fore
1874 572 m 1
 232 572 l 1
 266 732 l 1
 1908 732 l 1
 1874 572 l 1
EndSplineSet
EndChar
StartChar: underscoredbl
Encoding: 218 8215 219
Width: 1118
Flags: HW
Fore
1089 -212 m 1
 -61 -212 l 1
 -33 -82 l 1
 1117 -82 l 1
 1089 -212 l 1
1044 -423 m 1
 -106 -423 l 1
 -78 -293 l 1
 1072 -293 l 1
 1044 -423 l 1
EndSplineSet
EndChar
StartChar: quoteleft
Encoding: 219 8216 220
Width: 450
Flags: HW
Fore
591 997 m 1
 409 997 l 1
 267 1556 l 1
 553 1556 l 1
 591 997 l 1
EndSplineSet
EndChar
StartChar: quoteright
Encoding: 220 8217 221
Width: 580
Flags: HW
Fore
827 1556 m 1
 447 997 l 1
 264 997 l 1
 540 1556 l 1
 827 1556 l 1
EndSplineSet
EndChar
StartChar: quotesinglbase
Encoding: 221 8218 222
Width: 432
Flags: HW
Fore
446 283 m 1
 66 -276 l 1
 -72 -276 l 1
 204 283 l 1
 446 283 l 1
EndSplineSet
EndChar
StartChar: quotereversed
Encoding: 222 8219 223
Width: 432
Flags: HW
Fore
666 1556 m 1
 390 997 l 1
 148 997 l 1
 528 1556 l 1
 666 1556 l 1
EndSplineSet
EndChar
StartChar: quotedblleft
Encoding: 223 8220 224
Width: 850
Flags: HW
Fore
937 997 m 1
 758 997 l 1
 616 1556 l 1
 899 1556 l 1
 937 997 l 1
588 997 m 1
 409 997 l 1
 267 1556 l 1
 550 1556 l 1
 588 997 l 1
EndSplineSet
EndChar
StartChar: quotedblright
Encoding: 224 8221 225
Width: 1000
Flags: HW
Fore
1227 1556 m 1
 847 997 l 1
 668 997 l 1
 944 1556 l 1
 1227 1556 l 1
878 1556 m 1
 498 997 l 1
 319 997 l 1
 595 1556 l 1
 878 1556 l 1
EndSplineSet
EndChar
StartChar: quotedblbase
Encoding: 225 8222 226
Width: 814
Flags: HW
Fore
841 283 m 1
 461 -276 l 1
 327 -276 l 1
 603 283 l 1
 841 283 l 1
447 283 m 1
 67 -276 l 1
 -67 -276 l 1
 209 283 l 1
 447 283 l 1
EndSplineSet
EndChar
StartChar: dagger
Encoding: 226 8224 227
Width: 1118
Flags: HW
Fore
1203 1034 m 1
 841 1039 l 1
 654 135 l 1
 522 135 l 1
 719 1039 l 1
 355 1034 l 1
 382 1163 l 1
 744 1158 l 1
 824 1556 l 1
 956 1556 l 1
 866 1158 l 1
 1230 1163 l 1
 1203 1034 l 1
EndSplineSet
EndChar
StartChar: daggerdbl
Encoding: 227 8225 228
Width: 1118
Flags: HW
Fore
1091 507 m 1
 729 512 l 1
 651 124 l 1
 519 124 l 1
 607 512 l 1
 243 507 l 1
 270 636 l 1
 632 631 l 1
 721 1049 l 1
 357 1044 l 1
 384 1173 l 1
 746 1168 l 1
 824 1556 l 1
 956 1556 l 1
 868 1168 l 1
 1232 1173 l 1
 1205 1044 l 1
 843 1049 l 1
 754 631 l 1
 1118 636 l 1
 1091 507 l 1
EndSplineSet
EndChar
StartChar: bullet
Encoding: 228 8226 229
Width: 950
Flags: HW
Fore
958 662 m 0
 937 565 885 483 802 414 c 128
 717 345 628 311 531 311 c 0
 434 311 359 345 305 414 c 128
 251 483 234 565 255 662 c 128
 275 759 327 841 410 910 c 128
 494 979 583 1013 680 1013 c 0
 777 1013 853 979 907 910 c 0
 962 841 978 759 958 662 c 0
EndSplineSet
EndChar
StartChar: ellipsis
Encoding: 229 8230 230
Width: 1650
Flags: HW
Fore
1497 0 m 1
 1293 0 l 1
 1340 223 l 1
 1544 223 l 1
 1497 0 l 1
939 0 m 1
 735 0 l 1
 782 223 l 1
 986 223 l 1
 939 0 l 1
381 0 m 1
 177 0 l 1
 224 223 l 1
 428 223 l 1
 381 0 l 1
EndSplineSet
EndChar
StartChar: perthousand
Encoding: 230 8240 231
Width: 2848
Flags: HW
Fore
1036 1076 m 0
 1004 926 950 815 874 742 c 128
 798 670 704 634 590 634 c 0
 474 634 394 671 350 744 c 128
 306 817 299 928 330 1075 c 0
 362 1224 416 1335 492 1408 c 128
 569 1481 663 1517 777 1517 c 0
 893 1517 974 1480 1017 1407 c 128
 1061 1334 1067 1223 1036 1076 c 0
1789 1489 m 1
 693 0 l 1
 528 0 l 1
 1624 1489 l 1
 1789 1489 l 1
1985 413 m 0
 1953 263 1899 152 1823 80 c 128
 1747 7 1653 -29 1539 -29 c 0
 1423 -29 1343 8 1299 81 c 128
 1255 154 1248 265 1280 412 c 0
 1311 561 1365 672 1441 745 c 128
 1518 818 1613 854 1727 854 c 0
 1843 854 1923 817 1966 744 c 128
 2010 671 2016 560 1985 413 c 0
858 1076 m 0
 879 1177 884 1254 872 1306 c 128
 859 1358 818 1384 749 1384 c 128
 680 1384 629 1358 593 1305 c 128
 558 1252 530 1176 508 1075 c 0
 487 975 482 899 494 846 c 128
 506 793 547 767 618 767 c 0
 687 767 739 793 774 846 c 128
 808 899 836 975 858 1076 c 0
1807 413 m 0
 1828 514 1833 591 1821 643 c 128
 1808 695 1767 721 1698 721 c 128
 1629 721 1578 695 1542 642 c 128
 1507 589 1479 513 1458 412 c 0
 1436 312 1431 236 1443 183 c 128
 1455 130 1496 104 1567 104 c 0
 1636 104 1688 130 1723 183 c 128
 1757 236 1785 312 1807 413 c 0
2829 413 m 0
 2797 263 2743 152 2667 80 c 128
 2591 7 2497 -29 2383 -29 c 0
 2267 -29 2187 8 2143 81 c 128
 2099 154 2092 265 2124 412 c 0
 2155 561 2209 672 2285 745 c 128
 2362 818 2457 854 2571 854 c 0
 2687 854 2767 817 2810 744 c 128
 2854 671 2860 560 2829 413 c 0
2651 413 m 0
 2672 514 2677 591 2665 643 c 128
 2652 695 2611 721 2542 721 c 128
 2473 721 2422 695 2386 642 c 128
 2351 589 2323 513 2302 412 c 0
 2280 312 2275 236 2287 183 c 128
 2299 130 2340 104 2411 104 c 0
 2480 104 2532 130 2567 183 c 128
 2601 236 2629 312 2651 413 c 0
EndSplineSet
EndChar
StartChar: minute
Encoding: 231 8242 232
Width: 602
Flags: HW
Fore
887 1489 m 1
 458 870 l 1
 322 870 l 1
 647 1489 l 1
 887 1489 l 1
EndSplineSet
EndChar
StartChar: second
Encoding: 232 8243 233
Width: 972
Flags: HW
Fore
883 1489 m 1
 454 870 l 1
 322 870 l 1
 647 1489 l 1
 883 1489 l 1
1277 1489 m 1
 848 870 l 1
 716 870 l 1
 1041 1489 l 1
 1277 1489 l 1
EndSplineSet
EndChar
StartChar: guilsinglleft
Encoding: 233 8249 234
Width: 784
Flags: HW
Fore
670 172 m 1
 252 608 l 1
 271 697 l 1
 874 1132 l 1
 831 933 l 1
 441 652 l 1
 712 371 l 1
 670 172 l 1
EndSplineSet
EndChar
StartChar: guilsinglright
Encoding: 234 8250 235
Width: 784
Flags: HW
Fore
790 608 m 1
 188 172 l 1
 230 371 l 1
 621 652 l 1
 349 933 l 1
 392 1132 l 1
 809 697 l 1
 790 608 l 1
EndSplineSet
EndChar
StartChar: uni203E
Encoding: 236 8254 237
Width: 1118
Flags: HW
Fore
1470 1658 m 1
 304 1658 l 1
 332 1789 l 1
 1498 1789 l 1
 1470 1658 l 1
EndSplineSet
EndChar
StartChar: fraction
Encoding: 237 8260 238
Width: 886
Flags: HW
Fore
1232 1489 m 1
 136 0 l 1
 -29 0 l 1
 1067 1489 l 1
 1232 1489 l 1
EndSplineSet
EndChar
StartChar: uni207F
Encoding: 238 8319 239
Width: 1010
Flags: HW
Fore
1010 566 m 1
 838 566 l 1
 949 1088 l 2
 959 1135 967 1176 971 1210 c 128
 975 1244 975 1273 967 1298 c 0
 960 1322 946 1340 924 1351 c 128
 903 1362 872 1368 832 1368 c 0
 790 1368 746 1357 702 1336 c 128
 656 1314 611 1287 563 1254 c 1
 416 566 l 1
 245 566 l 1
 441 1488 l 1
 612 1488 l 1
 591 1388 l 1
 649 1430 703 1462 753 1485 c 128
 803 1508 855 1519 909 1519 c 0
 1006 1519 1074 1489 1114 1428 c 128
 1155 1368 1162 1280 1137 1163 c 2
 1010 566 l 1
EndSplineSet
EndChar
StartChar: dottedcircle
Encoding: 239 9676 240
Width: 1247
Flags: HW
Fore
340 928 m 0
 344 945 353 960 367 972 c 128
 380 983 396 989 413 989 c 0
 430 989 444 983 453 972 c 128
 462 960 465 945 461 928 c 0
 458 911 448 896 434 885 c 128
 421 874 404 868 387 868 c 0
 370 868 357 874 348 885 c 128
 339 896 337 911 340 928 c 0
560 1071 m 0
 563 1088 572 1103 586 1114 c 128
 599 1126 616 1132 633 1132 c 0
 650 1132 663 1126 673 1114 c 128
 681 1103 684 1088 681 1071 c 0
 677 1054 668 1039 655 1028 c 128
 640 1017 624 1011 607 1011 c 0
 590 1011 576 1017 568 1028 c 128
 559 1039 556 1054 560 1071 c 0
800 1139 m 0
 804 1156 813 1171 826 1182 c 128
 840 1194 856 1200 873 1200 c 0
 890 1200 904 1194 913 1182 c 128
 922 1171 925 1156 921 1139 c 0
 917 1122 908 1107 895 1096 c 128
 881 1085 864 1079 847 1079 c 0
 830 1079 817 1085 808 1096 c 128
 799 1107 796 1122 800 1139 c 0
129 505 m 0
 133 522 142 537 155 548 c 128
 169 560 185 566 202 566 c 0
 219 566 233 560 242 548 c 128
 251 537 254 522 250 505 c 0
 247 488 238 473 224 462 c 128
 210 451 194 445 177 445 c 0
 160 445 146 451 137 462 c 128
 129 473 126 488 129 505 c 0
209 309 m 0
 212 326 221 341 235 352 c 128
 248 364 265 370 282 370 c 0
 299 370 312 364 321 352 c 128
 330 341 333 326 330 309 c 0
 326 292 317 277 303 266 c 128
 289 255 273 249 256 249 c 0
 239 249 225 255 217 266 c 128
 208 277 205 292 209 309 c 0
320 158 m 0
 323 175 332 190 346 202 c 128
 359 213 376 219 393 219 c 0
 410 219 423 213 433 202 c 128
 441 190 444 175 441 158 c 0
 437 141 428 126 414 115 c 128
 400 104 384 98 367 98 c 0
 350 98 336 104 327 115 c 128
 319 126 316 141 320 158 c 0
565 67 m 0
 569 84 578 99 591 110 c 128
 605 122 621 128 638 128 c 0
 655 128 669 122 677 110 c 128
 687 99 690 84 686 67 c 0
 683 50 673 35 659 24 c 128
 646 13 629 7 612 7 c 0
 595 7 582 13 573 24 c 128
 564 35 562 50 565 67 c 0
872 128 m 0
 876 145 885 160 899 172 c 128
 912 183 928 189 945 189 c 0
 962 189 976 183 985 172 c 128
 994 160 997 145 993 128 c 0
 990 111 980 96 966 85 c 128
 953 74 936 68 919 68 c 0
 902 68 889 74 880 85 c 128
 871 96 869 111 872 128 c 0
1073 294 m 0
 1077 311 1086 326 1100 338 c 128
 1113 349 1129 355 1146 355 c 0
 1163 355 1177 349 1186 338 c 128
 1195 326 1198 311 1194 294 c 0
 1191 277 1182 262 1167 251 c 128
 1154 240 1138 234 1121 234 c 0
 1104 234 1090 240 1081 251 c 128
 1073 262 1070 277 1073 294 c 0
1192 498 m 0
 1195 515 1205 530 1218 542 c 128
 1232 553 1248 559 1265 559 c 0
 1282 559 1296 553 1305 542 c 128
 1314 530 1316 515 1313 498 c 0
 1309 481 1300 466 1287 455 c 128
 1272 444 1256 438 1239 438 c 0
 1222 438 1208 444 1200 455 c 128
 1191 466 1188 481 1192 498 c 0
1229 739 m 0
 1233 756 1242 771 1255 782 c 128
 1269 794 1285 800 1302 800 c 0
 1319 800 1333 794 1342 782 c 128
 1351 771 1354 756 1350 739 c 0
 1346 722 1337 707 1324 696 c 128
 1310 685 1293 679 1276 679 c 0
 1259 679 1246 685 1237 696 c 128
 1228 707 1225 722 1229 739 c 0
1167 951 m 0
 1171 968 1180 983 1193 994 c 128
 1207 1006 1223 1012 1240 1012 c 0
 1257 1012 1271 1006 1279 994 c 128
 1289 983 1292 968 1288 951 c 0
 1285 934 1275 919 1261 908 c 128
 1248 897 1231 891 1214 891 c 0
 1197 891 1184 897 1175 908 c 128
 1166 919 1164 934 1167 951 c 0
1010 1094 m 0
 1013 1111 1022 1126 1036 1138 c 128
 1049 1149 1066 1155 1083 1155 c 0
 1100 1155 1113 1149 1122 1138 c 128
 1131 1126 1134 1111 1131 1094 c 0
 1127 1077 1118 1062 1103 1051 c 128
 1090 1040 1074 1034 1057 1034 c 0
 1040 1034 1026 1040 1017 1051 c 128
 1009 1062 1006 1077 1010 1094 c 0
194 739 m 0
 198 756 207 771 220 782 c 128
 234 794 250 800 267 800 c 0
 284 800 298 794 306 782 c 128
 316 771 319 756 315 739 c 0
 311 722 302 707 288 696 c 128
 275 685 258 679 241 679 c 0
 224 679 211 685 202 696 c 128
 193 707 190 722 194 739 c 0
EndSplineSet
EndChar
StartChar: uni0E10.descless
Encoding: 240 63232 241
Width: 1100
Flags: HW
Fore
798 529 m 2
 805 562 796 587 769 603 c 1
 697 636 l 1
 596 672 428 707 195 742 c 1
 231 829 274 901 321 957 c 0
 371 1016 433 1063 507 1099 c 0
 575 1132 655 1149 750 1149 c 0
 827 1149 895 1134 955 1103 c 0
 1007 1077 1063 1064 1125 1064 c 0
 1152 1064 1178 1067 1202 1072 c 1
 1118 862 l 1
 1100 858 1081 856 1058 856 c 0
 1037 855 1014 857 992 861 c 0
 952 867 921 876 897 889 c 0
 842 918 781 935 715 940 c 2
 695 941 l 2
 622 941 573 925 547 892 c 1
 741 853 869 815 930 778 c 0
 1014 728 1046 660 1028 573 c 2
 965 279 l 2
 924 86 811 -10 624 -10 c 0
 437 -10 365 88 406 283 c 2
 407 289 l 1
 395 278 381 271 365 266 c 0
 350 262 335 260 322 260 c 0
 283 261 252 277 227 308 c 0
 200 341 193 385 205 440 c 0
 225 537 276 603 357 639 c 0
 382 650 409 657 436 661 c 0
 522 672 586 655 630 610 c 1
 665 569 674 510 658 433 c 2
 626 283 l 2
 616 234 631 210 671 210 c 0
 711 210 736 233 745 279 c 2
 798 529 l 2
407 541 m 0
 383 541 361 528 343 502 c 0
 333 489 327 475 324 460 c 0
 323 456 l 0
 314 405 327 377 362 373 c 0
 365 372 368 372 371 372 c 0
 408 375 431 400 441 448 c 0
 443 454 443 454 444 461 c 0
 455 514 443 541 407 541 c 0
EndSplineSet
EndChar
StartChar: uni0E34.left
Encoding: 241 63233 242
Width: 0
Flags: HW
Fore
-193 1155 m 5
 -313 1182 -500 1209 -757 1234 c 0
 -928 1251 -1066 1259 -1172 1259 c 1
 -1139 1326 -1080 1393 -994 1461 c 0
 -952 1494 -911 1522 -871 1543 c 0
 -789 1586 -701 1607 -607 1607 c 0
 -585 1607 -564 1606 -541 1603 c 0
 -456 1593 -381 1559 -316 1502 c 0
 -304 1491 -293 1480 -283 1469 c 0
 -220 1398 -190 1294 -193 1155 c 5
-414 1319 m 1
 -424 1360 -455 1393 -506 1418 c 0
 -536 1433 -570 1443 -607 1446 c 1
 -662 1447 l 1
 -744 1443 -811 1417 -862 1368 c 1
 -764 1368 -651 1359 -523 1340 c 0
 -478 1333 -441 1326 -414 1319 c 1
EndSplineSet
EndChar
StartChar: uni0E35.left
Encoding: 242 63234 243
Width: 0
Flags: HW
Fore
-246 1194 m 1
 -246 1183 -246 1172 -246 1162 c 5
 -361 1188 -543 1212 -790 1235 c 0
 -936 1249 -1056 1256 -1151 1257 c 0
 -1161 1257 -1161 1257 -1170 1257 c 1
 -1127 1340 -1061 1411 -970 1471 c 0
 -864 1541 -753 1576 -636 1576 c 0
 -529 1576 -447 1551 -390 1502 c 0
 -382 1495 -375 1488 -367 1480 c 1
 -327 1669 l 1
 -145 1669 l 1
 -246 1194 l 1
-460 1321 m 1
 -469 1354 -497 1382 -544 1405 c 0
 -573 1420 -603 1429 -636 1432 c 1
 -689 1433 l 1
 -762 1428 -821 1405 -866 1363 c 1
 -772 1363 -666 1354 -549 1337 c 0
 -513 1332 -483 1326 -460 1321 c 1
EndSplineSet
EndChar
StartChar: uni0E36.left
Encoding: 243 63235 244
Width: 0
Flags: HW
Fore
-461 1509 m 1
 -437 1552 -400 1585 -350 1608 c 0
 -320 1621 -291 1628 -260 1628 c 0
 -257 1628 -257 1628 -253 1628 c 0
 -194 1625 -150 1603 -123 1560 c 1
 -110 1532 l 1
 -104 1500 l 1
 -105 1464 l 1
 -107 1449 l 1
 -120 1389 -153 1341 -207 1306 c 0
 -234 1289 -263 1277 -293 1271 c 0
 -306 1269 -320 1268 -333 1268 c 1
 -331 1251 -331 1220 -331 1175 c 5
 -447 1200 -629 1225 -876 1248 c 0
 -1022 1261 -1141 1268 -1236 1269 c 0
 -1243 1270 -1249 1270 -1255 1270 c 1
 -1212 1355 -1141 1428 -1045 1487 c 0
 -938 1553 -822 1586 -699 1587 c 0
 -687 1587 -675 1587 -662 1586 c 0
 -574 1581 -510 1558 -470 1517 c 0
 -461 1509 l 1
-279 1505 m 2
 -306 1505 -327 1494 -343 1472 c 1
 -353 1454 l 2
 -355 1451 -355 1449 -356 1446 c 0
 -361 1420 -353 1401 -333 1390 c 0
 -324 1386 -315 1384 -305 1384 c 0
 -274 1384 -250 1397 -236 1422 c 0
 -231 1429 -229 1437 -227 1446 c 0
 -221 1473 -230 1491 -253 1501 c 1
 -275 1505 l 1
 -279 1505 l 2
-551 1323 m 1
 -561 1356 -586 1386 -628 1413 c 0
 -657 1432 -688 1444 -720 1447 c 1
 -761 1446 l 1
 -815 1440 -866 1423 -914 1394 c 1
 -940 1375 l 1
 -950 1366 l 1
 -859 1366 -757 1357 -641 1340 c 0
 -603 1335 -574 1329 -551 1323 c 1
EndSplineSet
EndChar
StartChar: uni0E37.left
Encoding: 244 63236 245
Width: 0
Flags: HW
Fore
-470 1532 m 1
 -456 1528 -443 1516 -432 1496 c 1
 -396 1667 l 1
 -226 1667 l 1
 -319 1230 l 1
 -329 1173 l 5
 -435 1197 -606 1221 -847 1244 c 0
 -1006 1260 -1133 1268 -1228 1268 c 1
 -1181 1354 -1112 1426 -1021 1484 c 0
 -920 1547 -815 1579 -704 1579 c 0
 -698 1579 l 0
 -681 1579 -662 1576 -638 1570 c 1
 -617 1668 l 1
 -441 1668 l 1
 -470 1532 l 1
-512 1315 m 1
 -529 1378 -570 1419 -636 1440 c 0
 -656 1446 -678 1450 -701 1451 c 1
 -761 1451 l 1
 -812 1443 l 1
 -870 1430 -920 1403 -961 1362 c 2
 -964 1359 l 1
 -816 1353 -683 1341 -564 1324 c 0
 -539 1321 -523 1318 -512 1315 c 1
EndSplineSet
EndChar
StartChar: uni0E48.low_left
Encoding: 245 63237 246
Width: 0
Flags: HW
Fore
-315 1582 m 1
 -84 1582 l 1
 -143 1302 l 1
 -374 1302 l 1
 -315 1582 l 1
EndSplineSet
EndChar
StartChar: uni0E49.low_left
Encoding: 246 63238 247
Width: 0
Flags: HW
Fore
39 1551 m 1
 -23 1416 -132 1305 -286 1220 c 0
 -383 1165 -490 1129 -606 1111 c 0
 -638 1106 -674 1102 -716 1098 c 1
 -693 1205 l 1
 -646 1216 -612 1235 -595 1262 c 0
 -591 1267 -587 1273 -585 1280 c 1
 -600 1275 -614 1273 -629 1273 c 0
 -650 1272 -668 1277 -684 1286 c 1
 -704 1301 l 2
 -709 1305 -713 1310 -716 1315 c 0
 -737 1345 -743 1382 -734 1425 c 1
 -720 1475 -691 1514 -646 1541 c 0
 -620 1556 -593 1564 -564 1565 c 1
 -526 1562 l 1
 -473 1553 -438 1526 -418 1482 c 0
 -407 1458 -404 1432 -409 1404 c 1
 -419 1361 l 1
 -436 1320 l 1
 -443 1310 l 1
 -387 1321 -333 1348 -280 1389 c 0
 -259 1405 -240 1422 -223 1441 c 0
 -190 1476 -165 1512 -143 1551 c 1
 39 1551 l 1
-596 1361 m 0
 -576 1361 -559 1370 -544 1389 c 0
 -537 1397 -533 1406 -531 1415 c 0
 -527 1434 -533 1449 -550 1460 c 0
 -557 1465 -564 1468 -573 1468 c 0
 -595 1468 -613 1458 -627 1439 c 1
 -637 1421 l 2
 -638 1419 -639 1417 -639 1415 c 0
 -644 1392 -637 1375 -618 1365 c 0
 -611 1362 -604 1361 -596 1361 c 0
EndSplineSet
EndChar
StartChar: uni0E4A.low_left
Encoding: 247 63239 248
Width: 0
Flags: HW
Fore
-772 1302 m 1
 -770 1318 -775 1330 -790 1337 c 1
 -807 1340 l 1
 -808 1340 l 2
 -823 1339 -836 1331 -846 1315 c 1
 -854 1299 l 1
 -854 1298 l 1
 -857 1281 -851 1270 -838 1263 c 0
 -833 1261 -828 1260 -823 1260 c 0
 -806 1260 -791 1269 -779 1287 c 1
 -772 1302 l 1
-302 1422 m 1
 -150 1673 l 1
 30 1673 l 2
 29 1673 -38 1561 -171 1336 c 0
 -222 1251 -316 1199 -454 1181 c 0
 -478 1178 -502 1176 -526 1176 c 1
 -493 1215 -471 1258 -460 1306 c 0
 -448 1365 -454 1415 -479 1454 c 1
 -486 1465 -493 1474 -501 1480 c 1
 -668 1362 l 1
 -749 1450 l 1
 -783 1479 l 1
 -783 1480 l 1
 -809 1471 -832 1453 -852 1426 c 0
 -855 1423 -856 1419 -858 1416 c 0
 -861 1410 -865 1401 -869 1390 c 1
 -844 1409 -816 1418 -785 1418 c 0
 -737 1418 -708 1397 -699 1355 c 1
 -696 1330 l 1
 -700 1297 l 1
 -710 1254 -734 1221 -773 1198 c 1
 -790 1190 l 2
 -817 1178 -846 1172 -879 1172 c 0
 -907 1172 -932 1176 -953 1185 c 0
 -998 1204 -1025 1242 -1033 1299 c 0
 -1036 1326 -1035 1355 -1028 1386 c 0
 -1026 1395 -1025 1403 -1022 1412 c 0
 -1004 1476 -957 1535 -879 1590 c 0
 -836 1620 -792 1643 -746 1658 c 1
 -631 1540 l 1
 -464 1658 l 1
 -402 1636 -356 1600 -324 1550 c 0
 -299 1511 -290 1473 -298 1435 c 1
 -302 1422 l 1
EndSplineSet
EndChar
StartChar: uni0E4B.low_left
Encoding: 248 63240 249
Width: 0
Flags: HW
Fore
-224 1151 m 1
 -347 1151 l 1
 -373 1028 l 1
 -545 1028 l 1
 -519 1151 l 1
 -650 1151 l 1
 -613 1325 l 1
 -482 1325 l 1
 -455 1454 l 1
 -283 1454 l 1
 -310 1325 l 1
 -187 1325 l 1
 -224 1151 l 1
EndSplineSet
EndChar
StartChar: uni0E4C.low_left
Encoding: 249 63241 250
Width: 0
Flags: HW
Fore
-15 1740 m 1
 -47 1685 -100 1631 -175 1580 c 0
 -228 1545 -282 1518 -340 1501 c 0
 -362 1494 -382 1490 -401 1489 c 1
 -370 1472 -354 1438 -354 1388 c 1
 -358 1360 l 1
 -364 1335 -381 1305 -407 1270 c 0
 -435 1233 -478 1208 -538 1196 c 0
 -550 1194 -562 1193 -574 1192 c 1
 -616 1195 l 1
 -671 1204 -710 1222 -734 1251 c 2
 -736 1254 l 2
 -760 1287 -769 1327 -763 1376 c 1
 -757 1402 l 1
 -739 1462 -707 1508 -664 1540 c 0
 -623 1569 -553 1594 -452 1615 c 0
 -408 1624 -380 1631 -370 1634 c 0
 -318 1650 -272 1673 -232 1704 c 0
 -216 1717 -203 1729 -195 1740 c 1
 -15 1740 l 1
-545 1428 m 0
 -574 1428 -597 1417 -614 1395 c 0
 -621 1386 -627 1375 -629 1364 c 0
 -633 1347 -628 1333 -613 1320 c 0
 -602 1309 -587 1304 -568 1304 c 1
 -535 1309 -511 1323 -497 1346 c 0
 -492 1353 -490 1359 -489 1366 c 0
 -482 1395 -492 1414 -518 1423 c 0
 -526 1426 -534 1428 -545 1428 c 0
EndSplineSet
EndChar
StartChar: uni0E48.low
Encoding: 250 63242 251
Width: 0
Flags: HW
AnchorPoint: "AboveBase" 141.807 1227 mark 0
Fore
-12 1589 m 1
 219 1589 l 1
 159 1309 l 5
 -72 1309 l 1
 -12 1589 l 1
EndSplineSet
Substitution: 0 65534 'amni' uni0E4D
EndChar
StartChar: uni0E49.low
Encoding: 251 63243 252
Width: 0
Flags: HW
AnchorPoint: "AboveBase" 20.8066 1227 mark 0
Fore
291 1698 m 1
 229 1563 121 1452 -33 1367 c 0
 -131 1312 -238 1276 -354 1258 c 0
 -386 1253 -422 1249 -463 1245 c 1
 -441 1352 l 1
 -393 1363 -360 1382 -343 1409 c 0
 -338 1414 -335 1420 -333 1427 c 1
 -348 1422 -362 1420 -377 1420 c 0
 -397 1419 -415 1424 -431 1433 c 1
 -452 1448 l 2
 -456 1452 -460 1457 -464 1462 c 0
 -485 1492 -491 1529 -482 1572 c 1
 -468 1622 -439 1661 -394 1688 c 0
 -368 1703 -340 1711 -312 1712 c 1
 -274 1709 l 1
 -221 1700 -185 1673 -166 1629 c 0
 -155 1605 -151 1579 -156 1551 c 1
 -166 1508 l 1
 -184 1467 l 1
 -190 1457 l 1
 -135 1468 -81 1495 -28 1536 c 0
 -7 1552 13 1569 30 1588 c 0
 62 1623 88 1659 109 1698 c 1
 291 1698 l 1
-343 1508 m 0
 -323 1508 -307 1517 -292 1536 c 0
 -285 1544 -281 1553 -279 1562 c 0
 -275 1581 -281 1596 -297 1607 c 0
 -304 1612 -312 1615 -321 1615 c 0
 -343 1615 -361 1605 -375 1586 c 1
 -385 1568 l 2
 -386 1566 -387 1564 -387 1562 c 0
 -392 1539 -384 1522 -366 1512 c 0
 -359 1509 -351 1508 -343 1508 c 0
EndSplineSet
Substitution: 0 65534 'amni' uni0E4D
EndChar
StartChar: uni0E4A.low
Encoding: 252 63244 253
Width: 0
Flags: HW
AnchorPoint: "AboveBase" 260.807 1227 mark 0
Fore
-251 1377 m 0
 -251 1401 -259 1414 -275 1416 c 1
 -287 1415 l 1
 -307 1410 -321 1400 -330 1385 c 1
 -333 1373 l 1
 -332 1348 -322 1335 -302 1335 c 0
 -285 1335 -272 1343 -259 1359 c 0
 -255 1364 -252 1370 -251 1377 c 0
219 1497 m 1
 371 1748 l 1
 551 1748 l 2
 550 1748 483 1636 350 1411 c 0
 299 1326 205 1274 67 1256 c 0
 43 1253 19 1251 -5 1251 c 1
 28 1290 50 1333 61 1381 c 0
 73 1440 67 1490 42 1529 c 1
 35 1540 28 1549 20 1555 c 1
 -148 1437 l 1
 -228 1525 l 1
 -262 1554 l 1
 -262 1555 l 1
 -288 1546 -311 1528 -331 1501 c 0
 -334 1498 -335 1495 -337 1492 c 0
 -340 1485 -344 1477 -347 1466 c 1
 -323 1484 -295 1493 -264 1493 c 0
 -216 1493 -187 1472 -178 1430 c 1
 -175 1405 l 1
 -179 1372 l 1
 -190 1329 -213 1297 -251 1274 c 0
 -269 1265 l 0
 -296 1253 -325 1247 -358 1247 c 0
 -386 1247 -411 1251 -432 1260 c 0
 -477 1279 -504 1317 -512 1374 c 0
 -515 1401 -514 1430 -507 1461 c 0
 -506 1470 -504 1478 -501 1487 c 0
 -483 1551 -436 1610 -358 1665 c 0
 -315 1695 -271 1718 -225 1733 c 1
 -110 1615 l 1
 57 1733 l 1
 119 1711 165 1675 197 1625 c 0
 222 1586 231 1548 223 1510 c 1
 219 1497 l 1
EndSplineSet
Substitution: 0 65534 'amni' uni0E4D
EndChar
StartChar: uni0E4B.low
Encoding: 253 63245 254
Width: 0
Flags: HW
AnchorPoint: "AboveBase" 200.807 1227 mark 0
Fore
243 1348 m 1
 120 1348 l 1
 93 1225 l 1
 -79 1225 l 1
 -52 1348 l 1
 -183 1348 l 1
 -146 1522 l 1
 -15 1522 l 1
 12 1651 l 1
 184 1651 l 1
 157 1522 l 1
 280 1522 l 1
 243 1348 l 1
EndSplineSet
Substitution: 0 65534 'amni' uni0E4D
EndChar
StartChar: uni0E4C.low
Encoding: 254 63246 255
Width: 0
Flags: HW
AnchorPoint: "AboveBase" -39.1934 1227 mark 0
Fore
341 1798 m 1
 309 1743 256 1689 181 1638 c 0
 129 1603 74 1576 16 1559 c 0
 -6 1552 -26 1548 -44 1547 c 1
 -14 1530 2 1496 2 1446 c 1
 -2 1418 l 1
 -8 1393 -24 1363 -51 1328 c 0
 -79 1291 -122 1266 -181 1254 c 0
 -194 1252 -206 1251 -217 1250 c 1
 -260 1253 l 1
 -315 1262 -354 1280 -378 1309 c 2
 -380 1312 l 2
 -404 1345 -413 1385 -406 1434 c 1
 -401 1460 l 1
 -383 1520 -351 1566 -307 1598 c 0
 -267 1627 -197 1652 -95 1673 c 0
 -51 1682 -24 1689 -13 1692 c 0
 38 1708 84 1731 125 1762 c 0
 140 1775 153 1787 161 1798 c 1
 341 1798 l 1
-189 1486 m 0
 -218 1486 -240 1475 -258 1453 c 0
 -265 1444 -270 1433 -273 1422 c 0
 -276 1406 -271 1392 -258 1379 c 0
 -246 1368 -230 1362 -211 1362 c 1
 -178 1367 -154 1381 -141 1404 c 0
 -136 1411 -134 1417 -132 1424 c 0
 -126 1453 -136 1472 -161 1481 c 0
 -170 1484 -178 1486 -189 1486 c 0
EndSplineSet
EndChar
StartChar: uni0E0D.descless
Encoding: 255 63247 256
Width: 1700
Flags: HW
Fore
1146 310 m 2
 1138 275 1147 248 1171 229 c 0
 1187 216 1208 210 1234 210 c 0
 1311 210 1357 243 1371 310 c 2
 1547 1139 l 1
 1767 1139 l 1
 1576 241 l 2
 1558 157 1504 91 1415 44 c 0
 1347 8 1273 -10 1193 -10 c 0
 1187 -10 l 0
 1093 -9 1020 17 967 66 c 0
 915 114 897 175 913 249 c 2
 1000 657 l 2
 1038 838 978 929 819 929 c 0
 713 929 628 896 565 831 c 1
 631 795 671 739 685 663 c 1
 680 661 643 628 574 563 c 0
 534 526 504 463 486 376 c 2
 483 363 l 1
 504 382 530 391 560 391 c 0
 579 392 597 388 615 380 c 0
 634 371 649 359 661 344 c 0
 689 310 696 264 684 206 c 0
 680 182 671 158 658 133 c 0
 629 76 585 35 527 10 c 0
 495 -3 462 -10 427 -10 c 0
 378 -9 342 -3 318 9 c 0
 297 20 278 35 260 56 c 0
 230 90 223 156 241 254 c 0
 243 269 247 285 250 303 c 2
 264 366 l 2
 281 449 303 509 330 546 c 0
 351 576 394 618 457 671 c 1
 422 727 364 767 284 792 c 1
 311 855 360 917 432 979 c 1
 561 1092 706 1149 866 1149 c 0
 1016 1149 1123 1102 1186 1008 c 0
 1241 927 1253 815 1223 673 c 2
 1146 310 l 2
472 110 m 0
 497 110 519 124 538 152 c 0
 547 165 553 179 556 195 c 1
 563 238 554 265 530 276 c 0
 523 279 517 280 509 280 c 0
 478 280 456 260 444 220 c 0
 442 215 441 210 439 204 c 0
 426 141 437 110 472 110 c 0
EndSplineSet
EndChar
StartChar: uni0E31.left
Encoding: 256 63248 257
Width: 0
Flags: HW
Fore
-835 1467 m 0
 -813 1567 -755 1627 -662 1646 c 0
 -642 1650 -622 1652 -601 1653 c 1
 -562 1650 l 1
 -506 1639 -473 1605 -463 1546 c 0
 -460 1529 -460 1512 -462 1495 c 1
 -471 1458 l 1
 -480 1430 -494 1407 -512 1388 c 1
 -479 1390 l 1
 -424 1398 -370 1427 -314 1477 c 0
 -285 1503 -263 1529 -249 1554 c 0
 -236 1578 -224 1605 -214 1635 c 1
 -48 1635 l 1
 -72 1524 -131 1430 -225 1354 c 0
 -318 1280 -422 1240 -538 1235 c 0
 -548 1234 -556 1234 -564 1234 c 0
 -659 1234 -732 1257 -783 1304 c 0
 -817 1335 -836 1375 -839 1423 c 0
 -839 1438 -838 1452 -835 1467 c 0
-716 1482 m 1
 -716 1462 l 1
 -713 1440 -699 1428 -677 1425 c 0
 -674 1424 -672 1424 -670 1424 c 2
 -647 1427 l 1
 -621 1435 -604 1451 -594 1474 c 0
 -592 1477 -591 1481 -590 1485 c 1
 -590 1505 l 1
 -592 1520 -601 1531 -615 1538 c 1
 -635 1543 l 1
 -639 1543 l 2
 -667 1543 -689 1531 -705 1507 c 0
 -710 1500 -714 1491 -716 1482 c 1
EndSplineSet
EndChar
StartChar: uni0E4D.left
Encoding: 257 63249 258
Width: 0
Flags: HW
Fore
-329 1513 m 0
 -288 1513 -257 1498 -234 1469 c 0
 -211 1440 -204 1404 -212 1362 c 0
 -221 1321 -244 1285 -279 1256 c 0
 -314 1227 -352 1212 -393 1212 c 0
 -434 1212 -466 1227 -489 1256 c 0
 -513 1286 -520 1321 -511 1362 c 0
 -503 1404 -480 1440 -445 1469 c 0
 -410 1498 -370 1513 -329 1513 c 0
-375 1298 m 0
 -358 1298 -342 1304 -326 1317 c 0
 -311 1330 -302 1345 -298 1362 c 0
 -295 1379 -298 1394 -307 1406 c 0
 -317 1419 -331 1425 -348 1425 c 128
 -365 1425 -381 1419 -397 1406 c 0
 -413 1394 -422 1379 -425 1362 c 0
 -429 1345 -426 1330 -416 1317 c 0
 -406 1304 -392 1298 -375 1298 c 0
EndSplineSet
EndChar
